<svg width="1664" height="606" viewBox="0 0 1664 606" fill="none" xmlns="http://www.w3.org/2000/svg">
<g opacity="0.48">
<rect width="316.704" height="2136.16" transform="matrix(0.374677 -0.927155 0.926697 0.375809 -269.653 169.752)" fill="#ECECEC" fill-opacity="0.11"/>
<path d="M331.625 309.975C349.473 310.624 365.106 311.721 383.586 314.577C401.858 317.42 422.978 322.022 431.976 335.777C440.973 349.533 437.839 372.669 441.307 397.772C444.884 422.767 455.262 449.968 451.351 474.09C447.331 498.319 429.012 519.698 407.775 520.003C386.638 520.428 362.473 499.888 338.276 493.972C314.079 488.057 289.85 496.765 273.671 489.239C257.492 481.712 249.463 458.069 241.673 433.755C234.092 409.451 226.85 384.596 232.186 363.638C237.522 342.681 255.447 325.395 274.432 317.08C293.525 308.657 313.787 309.097 331.625 309.975Z" fill="url(#paint0_linear_15_1547)"/>
<path d="M1014.63 218.487C1032.47 219.136 1048.11 220.233 1066.59 223.089C1084.86 225.933 1105.98 230.534 1114.98 244.29C1123.97 258.045 1120.84 281.181 1124.31 306.284C1127.88 331.279 1138.26 358.48 1134.35 382.602C1130.33 406.832 1112.01 428.21 1090.78 428.515C1069.64 428.94 1045.47 408.4 1021.28 402.484C997.079 396.569 972.85 405.278 956.671 397.751C940.492 390.224 932.463 366.582 924.673 342.267C917.092 317.964 909.85 293.108 915.186 272.151C920.522 251.193 938.447 233.907 957.432 225.592C976.525 217.169 996.787 217.61 1014.63 218.487Z" fill="url(#paint1_linear_15_1547)"/>
<rect width="357.383" height="1849.46" transform="matrix(0.374677 -0.927155 0.926697 0.375809 -26.9668 -124.47)" fill="#ECECEC" fill-opacity="0.11"/>
<path d="M118.835 505.068C131.857 520.8 129.333 557.272 114.952 571.49C100.512 585.766 74.2752 577.729 61.2536 561.997C48.2852 546.33 48.5855 523.032 63.0252 508.755C77.4058 494.538 105.867 489.401 118.835 505.068Z" fill="url(#paint2_linear_15_1547)"/>
<path d="M237.926 340.94C245.666 341.229 252.445 341.712 260.459 342.958C268.384 344.2 277.543 346.205 281.45 352.174C285.357 358.144 284.006 368.177 285.519 379.066C287.079 389.908 291.589 401.709 289.902 412.169C288.167 422.676 280.231 431.94 271.022 432.064C261.857 432.239 251.371 423.32 240.876 420.744C230.381 418.168 219.878 421.935 212.86 418.663C205.841 415.392 202.351 405.135 198.965 394.586C195.669 384.042 192.519 373.259 194.825 364.172C197.132 355.085 204.898 347.595 213.128 343.997C221.404 340.352 230.191 340.552 237.926 340.94Z" fill="url(#paint3_linear_15_1547)"/>
<path d="M304.293 579.854C325.622 577.497 348.468 590.193 367.587 604.397C386.705 618.6 402.097 634.31 409.2 652.988C416.194 671.774 414.69 693.515 417.813 716.999C420.727 740.472 428.168 765.567 423.583 788.395C419.098 811.342 402.588 832.021 382.397 836.955C362.207 841.889 338.434 831.197 314.692 826.792C290.84 822.496 267.127 824.377 253.339 812.527C239.541 800.905 235.676 775.323 231.61 751.9C227.544 728.478 223.186 706.868 225.018 684.802C226.959 662.627 235.089 639.997 249.066 619.863C263.151 599.621 282.964 582.21 304.293 579.854Z" fill="url(#paint4_linear_15_1547)"/>
</g>
<defs>
<linearGradient id="paint0_linear_15_1547" x1="393.134" y1="369.099" x2="197.372" y2="531.137" gradientUnits="userSpaceOnUse">
<stop stop-color="white" stop-opacity="0.15"/>
<stop offset="1" stop-color="white" stop-opacity="0"/>
</linearGradient>
<linearGradient id="paint1_linear_15_1547" x1="1076.13" y1="277.611" x2="880.372" y2="439.65" gradientUnits="userSpaceOnUse">
<stop stop-color="white" stop-opacity="0.15"/>
<stop offset="1" stop-color="white" stop-opacity="0"/>
</linearGradient>
<linearGradient id="paint2_linear_15_1547" x1="107.91" y1="521.007" x2="37.0638" y2="579.648" gradientUnits="userSpaceOnUse">
<stop stop-color="white" stop-opacity="0.08"/>
<stop offset="1" stop-color="white" stop-opacity="0"/>
</linearGradient>
<linearGradient id="paint3_linear_15_1547" x1="264.619" y1="366.609" x2="179.801" y2="436.816" gradientUnits="userSpaceOnUse">
<stop stop-color="white" stop-opacity="0.15"/>
<stop offset="1" stop-color="white" stop-opacity="0"/>
</linearGradient>
<linearGradient id="paint4_linear_15_1547" x1="367.898" y1="678.479" x2="169.082" y2="843.045" gradientUnits="userSpaceOnUse">
<stop stop-color="white" stop-opacity="0.15"/>
<stop offset="1" stop-color="white" stop-opacity="0"/>
</linearGradient>
</defs>
</svg>
