<svg width="305" height="232" viewBox="0 0 305 232" fill="none" xmlns="http://www.w3.org/2000/svg">
<g clip-path="url(#clip0_1_3739)">
<path d="M140.652 49.986H65.4121C65.0427 49.9856 64.6886 49.8387 64.4274 49.5775C64.1662 49.3163 64.0192 48.9621 64.0188 48.5927V29.929C64.0192 29.5596 64.1662 29.2054 64.4274 28.9442C64.6886 28.683 65.0427 28.5361 65.4121 28.5356H140.652C141.021 28.5361 141.375 28.683 141.637 28.9442C141.898 29.2054 142.045 29.5596 142.045 29.929V48.5927C142.045 48.9621 141.898 49.3163 141.637 49.5775C141.375 49.8387 141.021 49.9856 140.652 49.986ZM65.4121 29.093C65.1905 29.0932 64.978 29.1814 64.8213 29.3381C64.6645 29.4948 64.5764 29.7073 64.5761 29.929V48.5927C64.5764 48.8144 64.6645 49.0269 64.8213 49.1836C64.978 49.3403 65.1905 49.4285 65.4121 49.4287H140.652C140.873 49.4285 141.086 49.3403 141.243 49.1836C141.399 49.0269 141.488 48.8144 141.488 48.5927V29.929C141.488 29.7073 141.399 29.4948 141.243 29.3381C141.086 29.1814 140.873 29.0932 140.652 29.093L65.4121 29.093Z" fill="#3F3D56"/>
<path d="M197.287 12.9423C202.613 13.4703 206.821 15.0444 209.573 17.5371C212.334 20.0558 213.511 23.4465 213.006 27.4228C212.758 29.419 212.092 31.54 211.023 33.7406C209.932 35.984 208.369 38.2852 206.656 40.599C204.92 42.9428 203.062 45.2951 201.489 47.6286C196.926 54.3244 195.653 60.5487 197.878 65.2854C198.062 65.6764 198.27 66.0556 198.503 66.423C198.629 66.6225 199.337 66.2876 199.21 66.0868C196.352 61.5393 197.168 55.3185 201.516 48.5132C203.024 46.1528 204.896 43.7625 206.679 41.3828C208.408 39.0757 210.059 36.766 211.258 34.5114C214.194 28.9945 214.649 23.9839 212.567 20.1045C210.484 16.2252 205.957 13.6489 199.55 12.697C198.941 12.6064 198.314 12.5329 197.676 12.4711C197.317 12.4363 196.931 12.9079 197.287 12.9423L197.287 12.9423Z" fill="#3F3D56"/>
<path d="M210.214 103.294C205.379 108.344 199.401 112.224 192.764 114.62C186.073 117.022 178.901 117.824 171.853 116.958C168.312 116.528 164.839 115.687 161.51 114.452C158.117 113.191 154.957 111.473 151.883 109.61C148.768 107.722 145.727 105.717 142.514 103.985C133.331 98.9719 122.649 97.1547 112.21 98.8305C111.348 98.9694 110.49 99.1327 109.637 99.3203C109.174 99.4212 109.287 100.131 109.752 100.03C120.296 97.7291 131.303 99.1085 140.846 103.926C144.155 105.598 147.258 107.62 150.404 109.557C153.455 111.435 156.567 113.238 159.903 114.602C168.065 117.944 177.076 118.862 185.814 117.24C194.551 115.619 202.627 111.531 209.035 105.485C209.644 104.911 210.234 104.318 210.811 103.712C211.135 103.372 210.535 102.958 210.214 103.294L210.214 103.294Z" fill="#3F3D56"/>
<path d="M77.1029 44.2205C80.2375 44.2205 82.7786 41.6794 82.7786 38.5448C82.7786 35.4102 80.2375 32.8691 77.1029 32.8691C73.9683 32.8691 71.4272 35.4102 71.4272 38.5448C71.4272 41.6794 73.9683 44.2205 77.1029 44.2205Z" fill="#1C71B7"/>
<path d="M90.2108 34.7607C89.96 34.7607 89.7194 34.8604 89.542 35.0378C89.3646 35.2152 89.2649 35.4558 89.2649 35.7067C89.2649 35.9576 89.3646 36.1982 89.542 36.3756C89.7194 36.553 89.96 36.6526 90.2108 36.6526H134.805C135.056 36.6526 135.297 36.553 135.474 36.3756C135.652 36.1982 135.751 35.9576 135.751 35.7067C135.751 35.4558 135.652 35.2152 135.474 35.0378C135.297 34.8604 135.056 34.7607 134.805 34.7607H90.2108Z" fill="#E6E6E6"/>
<path d="M90.2108 40.4365C89.96 40.4365 89.7194 40.5362 89.542 40.7136C89.3646 40.891 89.2649 41.1316 89.2649 41.3825C89.2649 41.6334 89.3646 41.874 89.542 42.0514C89.7194 42.2287 89.96 42.3284 90.2108 42.3284H109.4C109.524 42.3286 109.648 42.3043 109.763 42.2569C109.878 42.2095 109.982 42.1398 110.07 42.052C110.158 41.9641 110.228 41.8597 110.276 41.7449C110.323 41.63 110.348 41.5068 110.348 41.3825C110.348 41.2581 110.323 41.135 110.276 41.0201C110.228 40.9052 110.158 40.8008 110.07 40.713C109.982 40.6251 109.878 40.5555 109.763 40.508C109.648 40.4606 109.524 40.4363 109.4 40.4365H90.2108Z" fill="#E6E6E6"/>
<path d="M107.987 116.513H74.5472C74.1778 116.513 73.8237 116.366 73.5625 116.105C73.3013 115.844 73.1544 115.489 73.1539 115.12V80.2937C73.1544 79.9243 73.3013 79.5702 73.5625 79.309C73.8237 79.0478 74.1778 78.9008 74.5472 78.9004H107.987C108.357 78.9008 108.711 79.0478 108.972 79.309C109.233 79.5702 109.38 79.9243 109.381 80.2937V115.12C109.38 115.489 109.233 115.844 108.972 116.105C108.711 116.366 108.357 116.513 107.987 116.513ZM74.5472 79.4577C74.3256 79.458 74.1131 79.5461 73.9564 79.7028C73.7997 79.8596 73.7115 80.0721 73.7113 80.2937V115.12C73.7115 115.342 73.7997 115.554 73.9564 115.711C74.1131 115.868 74.3256 115.956 74.5472 115.956H107.987C108.209 115.956 108.421 115.868 108.578 115.711C108.735 115.554 108.823 115.342 108.823 115.12V80.2937C108.823 80.0721 108.735 79.8596 108.578 79.7028C108.421 79.5461 108.209 79.458 107.987 79.4577H74.5472Z" fill="#3F3D56"/>
<path d="M81.6728 86.0825C81.4219 86.0825 81.1813 86.1822 81.0039 86.3596C80.8265 86.537 80.7268 86.7776 80.7268 87.0285C80.7268 87.2793 80.8265 87.52 81.0039 87.6973C81.1813 87.8747 81.4219 87.9744 81.6728 87.9744H100.862C101.113 87.9744 101.353 87.8747 101.531 87.6973C101.708 87.52 101.808 87.2793 101.808 87.0285C101.808 86.7776 101.708 86.537 101.531 86.3596C101.353 86.1822 101.113 86.0825 100.862 86.0825H81.6728Z" fill="#E6E6E6"/>
<path d="M81.6728 91.6558C81.5484 91.6555 81.4252 91.6798 81.3102 91.7273C81.1953 91.7747 81.0908 91.8444 81.0028 91.9322C80.9148 92.0201 80.8449 92.1244 80.7973 92.2393C80.7496 92.3542 80.7251 92.4773 80.7251 92.6017C80.7251 92.7261 80.7496 92.8492 80.7973 92.9641C80.8449 93.079 80.9148 93.1833 81.0028 93.2712C81.0908 93.3591 81.1953 93.4287 81.3102 93.4761C81.4252 93.5236 81.5484 93.5479 81.6728 93.5477H100.862C101.113 93.5477 101.353 93.448 101.531 93.2706C101.708 93.0932 101.808 92.8526 101.808 92.6017C101.808 92.3508 101.708 92.1102 101.531 91.9328C101.353 91.7554 101.113 91.6558 100.862 91.6558H81.6728Z" fill="#E6E6E6"/>
<path d="M91.2673 109.332C90.0896 109.332 88.9384 108.983 87.9593 108.328C86.9801 107.674 86.2169 106.744 85.7662 105.656C85.3156 104.568 85.1977 103.371 85.4274 102.216C85.6572 101.061 86.2242 100 87.057 99.1673C87.8897 98.3346 88.9506 97.7675 90.1057 97.5378C91.2607 97.308 92.4579 97.4259 93.5459 97.8766C94.6339 98.3273 95.5638 99.0904 96.2181 100.07C96.8724 101.049 97.2216 102.2 97.2216 103.378C97.2198 104.956 96.5919 106.47 95.4756 107.586C94.3594 108.702 92.8459 109.33 91.2673 109.332Z" fill="#1C71B7"/>
<path d="M162.767 0.859863H196.207C196.577 0.860297 196.931 1.00723 197.192 1.26844C197.453 1.52964 197.6 1.88379 197.601 2.25319V37.0795C197.6 37.4489 197.453 37.8031 197.192 38.0643C196.931 38.3255 196.577 38.4724 196.207 38.4728H162.767C162.398 38.4724 162.044 38.3255 161.783 38.0643C161.521 37.8031 161.374 37.4489 161.374 37.0795V2.25319C161.374 1.88379 161.521 1.52964 161.783 1.26844C162.044 1.00723 162.398 0.860297 162.767 0.859863ZM196.207 37.9155C196.429 37.9153 196.641 37.8271 196.798 37.6704C196.955 37.5137 197.043 37.3012 197.043 37.0795V2.25319C197.043 2.03154 196.955 1.81904 196.798 1.66232C196.641 1.50559 196.429 1.41744 196.207 1.41719H162.767C162.546 1.41744 162.333 1.50559 162.176 1.66232C162.02 1.81904 161.932 2.03154 161.931 2.25319V37.0795C161.932 37.3012 162.02 37.5137 162.176 37.6704C162.333 37.8271 162.546 37.9153 162.767 37.9155H196.207Z" fill="#3F3D56"/>
<path d="M189.082 31.2908C189.333 31.2908 189.574 31.1912 189.751 31.0138C189.928 30.8364 190.028 30.5958 190.028 30.3449C190.028 30.094 189.928 29.8534 189.751 29.676C189.574 29.4986 189.333 29.3989 189.082 29.3989H169.893C169.642 29.3989 169.401 29.4986 169.224 29.676C169.047 29.8534 168.947 30.094 168.947 30.3449C168.947 30.5958 169.047 30.8364 169.224 31.0138C169.401 31.1912 169.642 31.2908 169.893 31.2908H189.082Z" fill="#E6E6E6"/>
<path d="M189.082 25.7176C189.333 25.7176 189.574 25.6179 189.751 25.4405C189.928 25.2631 190.028 25.0225 190.028 24.7716C190.028 24.5208 189.928 24.2801 189.751 24.1027C189.574 23.9253 189.333 23.8257 189.082 23.8257H169.893C169.642 23.8257 169.401 23.9253 169.224 24.1027C169.047 24.2801 168.947 24.5208 168.947 24.7716C168.947 25.0225 169.047 25.2631 169.224 25.4405C169.401 25.6179 169.642 25.7176 169.893 25.7176H189.082Z" fill="#E6E6E6"/>
<path d="M179.487 8.0415C180.665 8.0415 181.816 8.39072 182.795 9.04498C183.774 9.69925 184.538 10.6292 184.988 11.7172C185.439 12.8052 185.557 14.0024 185.327 15.1574C185.097 16.3124 184.53 17.3734 183.698 18.2061C182.865 19.0388 181.804 19.6059 180.649 19.8357C179.494 20.0654 178.297 19.9475 177.209 19.4968C176.121 19.0462 175.191 18.283 174.536 17.3038C173.882 16.3246 173.533 15.1734 173.533 13.9958C173.535 12.4172 174.163 10.9037 175.279 9.78745C176.395 8.67119 177.909 8.04329 179.487 8.0415Z" fill="#1C71B7"/>
<path d="M64.4484 72.9103C70.3659 68.3272 77.2793 65.2019 84.6291 63.7874C92.0374 62.3758 99.6766 62.7683 106.901 64.9319C110.533 66.0132 114.022 67.5251 117.295 69.4354C120.629 71.3846 123.642 73.7842 126.541 76.3248C129.478 78.8985 132.318 81.5868 135.383 84.0098C144.136 91.0059 155.001 94.8281 166.206 94.8526C167.132 94.8541 168.057 94.8286 168.981 94.7762C169.482 94.7486 169.485 93.9654 168.981 93.9931C157.56 94.6221 146.281 91.2139 137.119 84.3651C133.942 81.9892 131.04 79.2726 128.079 76.64C125.207 74.0878 122.259 71.605 119.001 69.5545C111.032 64.5343 101.762 61.9717 92.3459 62.1863C82.9302 62.4009 73.7862 65.3833 66.0545 70.7614C65.3194 71.2725 64.6013 71.8067 63.8948 72.3566C63.4976 72.6658 64.0553 73.2163 64.4484 72.9103Z" fill="#3F3D56"/>
<path d="M64.0327 76.6951C66.2801 76.6951 68.102 74.8732 68.102 72.6259C68.102 70.3785 66.2801 68.5566 64.0327 68.5566C61.7854 68.5566 59.9635 70.3785 59.9635 72.6259C59.9635 74.8732 61.7854 76.6951 64.0327 76.6951Z" fill="#3F3D56"/>
<path d="M215.416 130.723C217.664 130.723 219.486 128.902 219.486 126.654C219.486 124.407 217.664 122.585 215.416 122.585C213.169 122.585 211.347 124.407 211.347 126.654C211.347 128.902 213.169 130.723 215.416 130.723Z" fill="#3F3D56"/>
<path d="M236.734 103.473H170.337C169.967 103.473 169.613 103.326 169.352 103.065C169.091 102.804 168.944 102.45 168.943 102.08V67.5325C168.944 67.1631 169.091 66.809 169.352 66.5477C169.613 66.2865 169.967 66.1396 170.337 66.1392H236.734C237.103 66.1396 237.458 66.2865 237.719 66.5477C237.98 66.8089 238.127 67.1631 238.127 67.5325V102.08C238.127 102.45 237.98 102.804 237.719 103.065C237.458 103.326 237.103 103.473 236.734 103.473ZM170.337 66.6965C170.115 66.6968 169.902 66.7849 169.746 66.9416C169.589 67.0984 169.501 67.3109 169.501 67.5325V102.08C169.501 102.302 169.589 102.514 169.746 102.671C169.902 102.828 170.115 102.916 170.337 102.916H236.734C236.956 102.916 237.168 102.828 237.325 102.671C237.482 102.514 237.57 102.302 237.57 102.08V67.5325C237.57 67.3109 237.482 67.0984 237.325 66.9416C237.168 66.7849 236.956 66.6968 236.734 66.6965H170.337Z" fill="#3F3D56"/>
<path d="M181.47 84.0535C184.605 84.0535 187.146 81.5124 187.146 78.3778C187.146 75.2432 184.605 72.7021 181.47 72.7021C178.335 72.7021 175.794 75.2432 175.794 78.3778C175.794 81.5124 178.335 84.0535 181.47 84.0535Z" fill="#1C71B7"/>
<path d="M194.578 74.5938C194.454 74.5935 194.33 74.6178 194.216 74.6653C194.101 74.7127 193.996 74.7823 193.908 74.8702C193.82 74.9581 193.75 75.0624 193.703 75.1773C193.655 75.2922 193.63 75.4153 193.63 75.5397C193.63 75.6641 193.655 75.7872 193.703 75.9021C193.75 76.017 193.82 76.1213 193.908 76.2092C193.996 76.2971 194.101 76.3667 194.216 76.4141C194.33 76.4616 194.454 76.4859 194.578 76.4856H230.33C230.581 76.4856 230.822 76.386 230.999 76.2086C231.177 76.0312 231.276 75.7906 231.276 75.5397C231.276 75.2888 231.177 75.0482 230.999 74.8708C230.822 74.6934 230.581 74.5938 230.33 74.5938H194.578Z" fill="#E6E6E6"/>
<path d="M194.578 80.2695C194.454 80.2693 194.33 80.2936 194.216 80.341C194.101 80.3885 193.996 80.4581 193.908 80.546C193.82 80.6338 193.75 80.7382 193.703 80.8531C193.655 80.968 193.63 81.0911 193.63 81.2155C193.63 81.3398 193.655 81.463 193.703 81.5779C193.75 81.6928 193.82 81.7971 193.908 81.885C193.996 81.9728 194.101 82.0425 194.216 82.0899C194.33 82.1374 194.454 82.1617 194.578 82.1614H213.767C214.018 82.1614 214.259 82.0618 214.436 81.8844C214.614 81.707 214.713 81.4664 214.713 81.2155C214.713 80.9646 214.614 80.724 214.436 80.5466C214.259 80.3692 214.018 80.2695 213.767 80.2695H194.578Z" fill="#E6E6E6"/>
<path d="M177.117 89.3433C176.397 89.3433 175.812 89.7677 175.812 90.2892C175.812 90.8107 176.397 91.2352 177.117 91.2352H229.801C230.521 91.2352 231.106 90.8107 231.106 90.2892C231.106 89.7677 230.521 89.3433 229.801 89.3433H177.117Z" fill="#E6E6E6"/>
<path d="M177.117 95.019C176.397 95.019 175.812 95.4435 175.812 95.965C175.812 96.4865 176.397 96.9109 177.117 96.9109H229.801C230.521 96.9109 231.106 96.4865 231.106 95.965C231.106 95.4435 230.521 95.019 229.801 95.019H177.117Z" fill="#E6E6E6"/>
<path d="M164.999 130.442C168.745 128.817 172.927 130.234 176.458 131.732C178.276 132.503 180.075 133.326 181.957 133.935C183.54 134.447 185.162 134.831 186.806 135.084C190.105 135.59 193.46 135.61 196.766 135.145C200.088 134.682 203.325 133.741 206.377 132.351C209.413 130.975 212.218 129.14 214.696 126.912C215.011 126.627 215.32 126.336 215.623 126.038C215.984 125.685 215.43 125.131 215.07 125.484C212.684 127.81 209.945 129.744 206.955 131.213C203.976 132.678 200.8 133.698 197.526 134.242C194.241 134.796 190.892 134.854 187.591 134.414C185.944 134.191 184.317 133.837 182.726 133.356C180.899 132.762 179.106 132.066 177.357 131.271C173.793 129.74 169.834 128.242 165.918 129.297C165.469 129.421 165.03 129.578 164.604 129.766C164.143 129.966 164.541 130.641 164.999 130.442Z" fill="#3F3D56"/>
<path d="M142.379 43.0619C145.407 41.437 148.788 42.8537 151.642 44.3514C153.112 45.1227 154.567 45.946 156.088 46.5551C157.368 47.0662 158.679 47.4504 160.008 47.7041C162.675 48.2095 165.388 48.23 168.06 47.7651C170.746 47.3018 173.363 46.3605 175.831 44.9702C178.284 43.5945 180.553 41.7601 182.556 39.5314C182.811 39.2467 183.061 38.9554 183.305 38.6576C183.597 38.3044 183.149 37.7509 182.858 38.104C180.929 40.4297 178.715 42.3632 176.297 43.8327C173.889 45.2972 171.321 46.3176 168.675 46.8616C166.019 47.4154 163.312 47.4733 160.642 47.0331C159.311 46.8104 157.996 46.4568 156.71 45.9756C155.232 45.3813 153.783 44.6851 152.369 43.8904C149.488 42.3599 146.287 40.8613 143.121 41.9167C142.758 42.0408 142.403 42.1976 142.059 42.3858C141.686 42.5859 142.008 43.2606 142.379 43.0619V43.0619Z" fill="#3F3D56"/>
<path d="M163.552 140.046H132.182L139.565 127.259C139.697 127.03 139.887 126.84 140.116 126.708C140.346 126.575 140.606 126.506 140.87 126.506C141.135 126.506 141.395 126.575 141.624 126.708C141.853 126.84 142.044 127.03 142.176 127.259L145.329 132.722L150.692 123.434C150.857 123.147 151.096 122.909 151.383 122.743C151.669 122.577 151.995 122.49 152.326 122.49C152.658 122.49 152.983 122.577 153.27 122.743C153.557 122.909 153.795 123.147 153.961 123.434L163.552 140.046Z" fill="#1C71B7"/>
<path d="M163.582 140.042H130.142C129.772 140.042 129.418 139.895 129.157 139.634C128.896 139.372 128.749 139.018 128.748 138.649V119.985C128.749 119.616 128.896 119.262 129.157 119C129.418 118.739 129.772 118.592 130.142 118.592H163.582C163.951 118.592 164.305 118.739 164.566 119C164.827 119.262 164.974 119.616 164.975 119.985V138.649C164.974 139.018 164.827 139.372 164.566 139.634C164.305 139.895 163.951 140.042 163.582 140.042ZM130.142 119.149C129.92 119.149 129.707 119.238 129.551 119.394C129.394 119.551 129.306 119.763 129.306 119.985V138.649C129.306 138.871 129.394 139.083 129.551 139.24C129.707 139.396 129.92 139.485 130.142 139.485H163.582C163.803 139.485 164.016 139.396 164.172 139.24C164.329 139.083 164.417 138.871 164.418 138.649V119.985C164.417 119.763 164.329 119.551 164.172 119.394C164.016 119.238 163.803 119.149 163.582 119.149H130.142Z" fill="#3F3D56"/>
<path d="M229.17 123.617L223.209 126.643C221.082 127.724 219.029 127.539 218.242 125.286C218.055 124.75 217.986 124.18 218.04 123.615C218.093 123.049 218.269 122.502 218.553 122.011C218.838 121.52 219.225 121.096 219.689 120.768C220.153 120.441 220.682 120.217 221.24 120.113L226.905 119.055L251.167 111.006L265.864 100.584L271.252 109.168L254.27 118.332L229.17 123.617Z" fill="#FFB8B8"/>
<path d="M256.994 224.084L252.434 223.324L252.94 214.71H257.754L256.994 224.084Z" fill="#FFB8B8"/>
<path d="M301.256 215.67L296.842 217.047L293.412 209.129L297.709 206.96L301.256 215.67Z" fill="#FFB8B8"/>
<path d="M298.798 208.123L293.224 210.403L266.622 175.44L258.261 216.483L252.687 215.47C249.112 180.085 246.196 143.992 249.774 126.922L270.422 126.035L279.796 155.931L284.357 176.2L298.798 208.123Z" fill="#2F2E41"/>
<path d="M256.743 231.051C255.909 231.23 255.04 231.137 254.263 230.787L251.554 229.568C249.282 229.452 247.735 229.904 246.47 228.254C246.114 227.782 245.89 227.223 245.822 226.635C245.754 226.048 245.844 225.453 246.083 224.912C246.321 224.369 246.699 223.899 247.178 223.551C247.657 223.202 248.22 222.988 248.809 222.929L252.53 220.584L252.725 222.342C254.426 223.305 256.445 222.889 258.585 221.951L259.752 226.039C259.903 226.566 259.944 227.118 259.872 227.662C259.8 228.205 259.618 228.728 259.336 229.198C259.053 229.668 258.678 230.075 258.232 230.394C257.786 230.712 257.279 230.936 256.743 231.051Z" fill="#2F2E41"/>
<path d="M303.062 222.666C302.331 223.106 301.479 223.301 300.63 223.222L297.672 222.949C295.485 223.576 294.169 224.506 292.437 223.356C291.946 223.026 291.553 222.57 291.298 222.036C291.043 221.503 290.935 220.911 290.986 220.321C291.034 219.731 291.239 219.164 291.579 218.679C291.919 218.194 292.381 217.808 292.92 217.56L295.678 214.134L296.433 215.734C298.355 216.093 300.129 215.043 301.848 213.461L304.28 216.948C304.594 217.398 304.812 217.907 304.92 218.444C305.029 218.982 305.026 219.535 304.912 220.072C304.797 220.608 304.574 221.115 304.256 221.561C303.938 222.007 303.531 222.383 303.062 222.666Z" fill="#2F2E41"/>
<path d="M262.821 90.0585C267.859 90.0585 271.942 85.975 271.942 80.9377C271.942 75.9004 267.859 71.8169 262.821 71.8169C257.784 71.8169 253.7 75.9004 253.7 80.9377C253.7 85.975 257.784 90.0585 262.821 90.0585Z" fill="#FFB8B8"/>
<path d="M273.969 100.193L262.061 97.6597L260.541 87.7789L268.902 86.0054L273.969 100.193Z" fill="#FFB8B8"/>
<path d="M270.675 127.302H249.393L254.19 115.259C253.842 111.115 255.598 108.067 258.112 105.413L261.301 97.4064C266.454 94.015 270.339 94.2684 274.476 98.6732C279.38 105.618 275.985 116.057 270.675 127.302Z" fill="#1C71B7"/>
<path d="M261.048 152.891L260.443 159.549C260.227 161.925 258.979 163.566 256.653 163.034C256.099 162.908 255.579 162.663 255.129 162.317C254.679 161.971 254.309 161.532 254.044 161.03C253.779 160.527 253.626 159.974 253.595 159.407C253.564 158.84 253.656 158.273 253.865 157.745L255.981 152.385L262.061 127.556L261.048 109.567H271.182L269.915 128.822L261.048 152.891Z" fill="#FFB8B8"/>
<path d="M271.942 110.074H260.288L261.105 102.472C261.158 101.157 261.702 99.9093 262.628 98.9744C263.554 98.0396 264.796 97.4849 266.111 97.4192C266.807 97.3844 267.504 97.488 268.16 97.7241C268.816 97.9603 269.419 98.3242 269.934 98.7948C270.448 99.2655 270.864 99.8335 271.158 100.466C271.452 101.099 271.617 101.783 271.644 102.48L271.942 110.074Z" fill="#1C71B7"/>
<path d="M274.11 71.5597C276.003 71.5597 277.538 70.0248 277.538 68.1314C277.538 66.238 276.003 64.7031 274.11 64.7031C272.216 64.7031 270.681 66.238 270.681 68.1314C270.681 70.0248 272.216 71.5597 274.11 71.5597Z" fill="#2F2E41"/>
<path d="M270.577 67.2923C270.633 66.4225 271.019 65.6069 271.656 65.0116C272.292 64.4163 273.132 64.086 274.004 64.0881C273.933 64.0791 273.863 64.0682 273.791 64.0636C272.883 64.0058 271.991 64.3106 271.308 64.9109C270.626 65.5112 270.21 66.3579 270.151 67.265C270.093 68.172 270.397 69.065 270.997 69.7478C271.597 70.4306 272.444 70.8472 273.351 70.906C273.423 70.9106 273.494 70.9088 273.565 70.909C272.7 70.7994 271.91 70.3644 271.355 69.6924C270.8 69.0205 270.521 68.1622 270.577 67.2923Z" fill="#2F2E41"/>
<path d="M270.558 68.7563C267.5 66.2199 258.73 69.4435 258.165 71.1487C254.03 71.7122 250.9 74.1244 250.9 78.4136V78.4137C253.358 79.4206 256.153 79.2966 259.176 78.4137C263.993 82.3396 264.323 87.2749 261.393 92.9435L264.998 93.0156L269.466 86.4858L269.679 93.1092L277.941 92.9435V83.4517C277.968 80.2958 277.242 77.179 275.822 74.3601C274.535 71.8587 272.537 70.3982 270.558 68.7563Z" fill="#2F2E41"/>
<path d="M262.864 85.5259C263.769 85.5259 264.503 84.4983 264.503 83.2307C264.503 81.9631 263.769 80.9355 262.864 80.9355C261.959 80.9355 261.225 81.9631 261.225 83.2307C261.225 84.4983 261.959 85.5259 262.864 85.5259Z" fill="#FFB8B8"/>
<path d="M56.5883 86.1433C56.5883 86.1433 57.5751 69.0621 62.6983 72.9434C67.8216 76.8247 60.461 87.7275 60.461 87.7275L56.5883 86.1433Z" fill="#FFB9B9"/>
<path d="M86.6249 116.391C86.2984 117.86 87.7025 121.974 95.9312 126.677C104.16 131.379 121.238 131.575 128.748 131.085" stroke="#3F3D56" stroke-width="0.889213" stroke-linecap="round"/>
<path d="M37.5275 136.811C37.5275 136.811 48.908 149.587 42.5408 150.465C36.1736 151.343 33.6689 138.429 33.6689 138.429L37.5275 136.811Z" fill="#FFB9B9"/>
<path d="M22.6771 76.3347C24.1055 76.7106 25.3909 77.5001 26.3721 78.6042C27.3532 79.7082 27.9863 81.0775 28.1918 82.5401L31.8118 108.306L36.8866 128.859C36.8866 128.859 39.424 131.143 38.409 132.411C37.394 133.68 39.6777 139.009 39.6777 139.009L33.3342 141.039C33.3342 141.039 32.573 135.71 31.3043 135.456C30.1893 135.233 17.708 101.891 14.6995 93.8137C14.2847 92.7 14.0499 92.0666 14.0499 92.0666C14.0499 92.0666 14.5574 75.066 22.6771 76.3347Z" fill="#575A89"/>
<path d="M23.8357 210.701L27.7321 217.606C30.7494 224.048 28.0681 225.218 20.6699 222.025L18.9835 213.872L23.8357 210.701Z" fill="#FFB9B9"/>
<path d="M25.8016 219.878C25.8016 219.878 27.6512 216.866 28.3202 217.37C28.9892 217.874 31.7486 220.059 31.7486 220.059L35.3428 223.501C35.3428 223.501 47.4861 224.785 39.77 229.04C32.0539 233.294 27.7897 229.767 27.7897 229.767C27.7897 229.767 16.9825 230.329 17.1569 227.313C17.3312 224.298 20.8166 219.528 20.8166 219.528C20.8166 219.528 25.2094 222.473 25.8016 219.878Z" fill="#2F2E41"/>
<path d="M6.54553 132.652L10.1984 176.851C10.1984 176.851 10.3201 203.273 14.2165 208.387C18.1129 213.501 18.2346 216.058 18.2346 216.058L26.2708 211.919C26.2708 211.919 22.131 205.02 22.9833 203.964C23.5087 203.295 23.8826 202.519 24.0791 201.691L21.8874 174.416L26.0273 126.929L6.54553 132.652Z" fill="#2F2E41"/>
<path d="M16.5298 210.701L13.1205 219.711L5.38867 216.479L9.46776 209.727L16.5298 210.701Z" fill="#FFB9B9"/>
<path d="M10.8422 216.676C10.8422 216.676 13.7421 214.864 14.1045 215.589C14.467 216.314 15.9169 219.395 15.9169 219.395L17.5481 223.926C17.5481 223.926 27.5163 230.269 18.998 230.632C10.4797 230.994 8.30485 226.101 8.30485 226.101C8.30485 226.101 -1.30088 221.932 0.149055 219.395C1.59899 216.858 6.6737 214.226 6.6737 214.226C6.6737 214.226 9.21105 218.67 10.8422 216.676Z" fill="#2F2E41"/>
<path d="M37.4729 132.774L39.4211 173.442C39.4211 173.442 21.6439 210.214 19.6957 211.188C19.1152 211.488 18.6006 211.901 18.1824 212.403C17.7641 212.905 17.4507 213.485 17.2605 214.11L6.54553 211.432L11.416 203.639L22.131 177.582C22.131 177.582 23.8356 176.851 24.3227 174.416C24.8097 171.981 25.7838 171.981 23.3486 171.494C20.9134 171.007 20.9134 168.572 20.9134 168.572L12.8771 131.556L37.4729 132.774Z" fill="#2F2E41"/>
<path d="M38.3213 60.7902C39.1831 55.4799 35.5768 50.4765 30.2665 49.6148C24.9562 48.753 19.9528 52.3593 19.0911 57.6696C18.2293 62.9798 21.8356 67.9832 27.1459 68.845C32.4562 69.7067 37.4596 66.1005 38.3213 60.7902Z" fill="#FFB9B9"/>
<path d="M20.0611 59.8389C20.0611 59.8389 19.3305 72.2585 18.3564 73.4761C17.3823 74.6937 28.5844 74.4502 28.5844 74.4502C28.5844 74.4502 27.8538 63.9788 28.5844 63.0047C29.3149 62.0306 20.0611 59.8389 20.0611 59.8389Z" fill="#FFB9B9"/>
<path d="M38.2027 135.453C38.2027 135.453 10.6846 133.018 5.5719 135.453C5.5719 135.453 7.45402 128.471 6.9677 127.741C6.61401 127.207 7.58981 107.319 7.28349 95.8462C7.10981 89.3724 5.61611 83.0503 9.95825 78.2439C11.4362 76.6113 13.0846 75.2407 14.8246 74.5713C14.8246 74.5713 14.3383 69.9449 16.773 69.7017C16.773 69.7017 26.0289 68.7259 29.4363 71.6502C30.5258 72.5786 31.2111 75.4081 31.2837 77.846C29.5974 86.1387 30.1942 95.3409 31.7416 104.887C31.8363 105.494 31.9405 106.103 32.0447 106.713C33.6869 116.18 36.169 125.941 38.2027 135.453Z" fill="#575A89"/>
<path d="M23.6173 62.1001C24.4411 62.0509 25.2455 62.3293 26.0636 62.4379C28.9904 62.8265 32.0352 60.7027 32.6815 57.8217C32.7333 57.4381 32.8476 57.0655 33.0199 56.7189C33.4704 55.9834 34.4963 55.8432 35.342 56.0123C36.1877 56.1814 36.9893 56.5772 37.8505 56.6224C39.1803 56.6922 40.457 55.8735 41.1657 54.7462C41.8354 53.5831 42.1202 52.2381 41.9794 50.9034L41.3419 51.5725C41.0828 51.0245 40.9828 50.4147 41.0532 49.8127C40.7154 49.7227 40.3601 49.721 40.0214 49.8076C39.6828 49.8943 39.372 50.0664 39.1189 50.3076C38.5568 50.3674 38.981 49.265 38.5634 48.884C38.3603 48.7592 38.1182 48.7139 37.8838 48.7568C36.6879 48.7684 35.7206 47.8537 34.7782 47.1174C33.1455 45.8445 31.2361 44.9736 29.2046 44.575C27.8542 44.3117 26.4183 44.2693 25.1377 44.7722C24.104 45.2362 23.171 45.898 22.3913 46.7203C20.3864 48.6482 18.611 50.9134 17.777 53.5668C17.0989 55.7401 17.0797 58.0656 17.7218 60.2499C18.0579 61.3842 19.0707 65.2691 20.5536 65.3595C22.4168 65.4732 21.2982 62.2384 23.6173 62.1001Z" fill="#2F2E41"/>
<path d="M27.6492 77.5303L31.1391 77.9041C31.1391 77.9041 34.5649 84.5504 34.3161 85.9368C34.0673 87.3231 33.5255 86.4814 35.0674 88.6994C36.6093 90.9174 40.9846 96.6504 41.5264 97.4921C42.0682 98.3337 56.8387 87.0641 55.9204 83.6876C55.9204 83.6876 60.5854 87.0342 62.584 87.4797C62.584 87.4797 47.3618 107.443 45.2405 109.998C43.1192 112.553 41.412 112.028 38.4968 110.514C35.5816 108.999 20.8337 93.889 20.8337 93.889L27.6492 77.5303Z" fill="#575A89"/>
<path opacity="0.1" d="M32.0445 106.713L19.9149 94.5831L22.9844 93.582L31.7413 104.887C31.8361 105.494 31.9403 106.103 32.0445 106.713Z" fill="black"/>
</g>
<defs>
<clipPath id="clip0_1_3739">
<rect width="305" height="230.28" fill="white" transform="translate(0 0.859863)"/>
</clipPath>
</defs>
</svg>
