<svg width="161" height="161" viewBox="0 0 161 161" fill="none" xmlns="http://www.w3.org/2000/svg">
<g clip-path="url(#clip0_15_660)">
<rect x="0.5" y="0.990234" width="160" height="160" rx="80" fill="#F8FDFF"/>
<g clip-path="url(#clip1_15_660)">
<path d="M113.936 93.0392C113.341 94.7466 112.468 96.3435 111.351 97.7648C110.826 98.487 110.133 99.0695 109.331 99.4612C108.927 99.6432 108.48 99.7038 108.042 99.6356C107.605 99.5675 107.196 99.3736 106.867 99.0775C106.546 98.6015 106.362 98.0457 106.337 97.4718C106.312 96.8979 106.447 96.3283 106.726 95.8261C107.548 93.7727 108.874 91.9598 110.583 90.5553C111.411 89.8888 112.603 89.3032 113.471 89.8686C113.726 90.0271 113.937 90.2469 114.085 90.5079C114.233 90.769 114.314 91.0629 114.319 91.3631C114.3 91.9412 114.17 92.5103 113.936 93.0392Z" fill="#F4B798"/>
<path d="M103.838 106.954L77.1402 92.4738L73.9292 91.5044C70.1124 102.793 79.0184 113.214 79.9877 124.624C83.2593 144.233 77.8269 162.752 82.1688 183.452C82.4313 184.603 73.9292 187.814 74.2322 188.925C81.3347 189.275 88.454 189.039 95.5176 188.218C95.6388 188.218 95.7802 184.502 95.8811 179.393C96.1639 167.458 101.94 145.869 101.94 145.869L113.37 111.72L103.838 106.954Z" fill="#061725"/>
<path d="M101.92 102.955L101.617 106.207L90.57 111.821C89.7518 112.229 88.8519 112.447 87.9376 112.458C87.0234 112.469 86.1185 112.272 85.2909 111.884C84.4633 111.495 83.7343 110.924 83.1586 110.214C82.583 109.504 82.1756 108.672 81.9669 107.782L79.9474 97.6846L89.1563 100.552L101.92 102.955Z" fill="#DEAD8E"/>
<path d="M102.364 73.854C98.5705 73.4 94.7533 73.1775 90.9332 73.1876C87.4597 73.3693 84.5718 76.338 83.1178 79.2461C81.7147 82.4178 81.1047 85.8834 81.3406 89.3435C81.3081 92.85 82.1185 96.313 83.7034 99.441C85.9249 103.48 89.459 104.571 93.2354 106.388C97.0119 108.206 101.475 104.974 104.605 102.753C108.644 99.8651 107.594 101.582 113.208 90.2725C116.944 82.7196 111.411 74.4397 102.364 73.854Z" fill="#F4B798"/>
<path d="M111.451 84.6789C111.261 84.5936 111.079 84.4922 110.906 84.376L107.049 81.8718C107.372 82.0738 107.816 83.3865 108.099 83.7702C109.063 84.6479 109.727 85.8064 109.997 87.0821C110.164 88.5603 109.92 90.0558 109.291 91.4038L110.704 91.8683C110.978 91.1946 111.509 90.6572 112.178 90.3739C112.865 90.1114 113.592 90.4749 114.339 90.5153C115.087 90.5721 115.839 90.46 116.538 90.1873C117.237 89.9147 117.866 89.4884 118.378 88.9401C119.472 87.2939 119.925 85.3036 119.651 83.3461C119.327 84.3356 118.701 84.4164 117.813 84.4568C116.621 84.4568 115.45 84.9818 114.238 85.0828C113.29 85.2539 112.312 85.1122 111.451 84.6789Z" fill="#061725"/>
<path d="M81.4615 64.3828C84.1676 63.3124 86.7324 61.3131 89.3981 60.5255C90.9128 60.0812 92.6495 59.435 93.74 61.1718C93.9622 61.5353 94.3055 61.9796 94.0632 62.4238C94.0632 62.4238 95.8807 58.2435 102.141 58.3849C108.402 58.5262 113.592 66.4628 118.681 65.2713C118.303 66.1762 117.814 67.0309 117.227 67.8159C117.227 67.8159 122.841 72.279 126.113 70.5422C125.386 73.5513 125.487 76.3584 121.387 76.3584C124.113 76.9844 124.295 77.6306 126.113 76.8026C124.659 79.9934 121.306 82.7198 114.864 81.2657C119.569 82.3563 120.922 81.6696 120.922 81.6696C120.922 81.6696 119.408 92.1104 109.795 86.2943C106.661 83.8287 103.935 80.8845 101.717 77.57C100.647 76.0756 99.6976 73.9552 97.7992 73.3897C93.7603 72.2386 90.2463 74.8437 87.0151 76.7219C83.7839 78.6 79.1391 81.2455 76.1099 77.3883C73.4643 74.0157 71.7881 70.8249 73.1008 66.4224C73.2357 65.7605 73.6186 65.1753 74.1711 64.7867C74.9833 64.5416 75.8561 64.5916 76.6349 64.928C78.2612 65.2565 79.9495 65.0658 81.4615 64.3828Z" fill="#061725"/>
<path d="M95.8801 66.3213C98.3466 65.1699 101.071 64.6816 103.784 64.9047C106.496 65.1278 109.104 66.0546 111.349 67.5936C118.68 72.3192 122.76 73.4501 124.941 72.1375C123.623 73.5691 121.9 74.5645 120.002 74.9903C118.104 75.4162 116.121 75.2523 114.318 74.5205C116.984 77.3679 120.154 79.5894 123.103 78.1757C122.143 78.7849 121.112 79.2732 120.033 79.6298C118.874 79.8721 117.678 79.8721 116.519 79.6298C112.48 78.8422 109.875 75.5908 106.422 73.5713C104.462 72.4528 102.287 71.7643 100.04 71.5518C99.3684 71.4924 98.6926 71.4924 98.0208 71.5518C97.6371 71.5518 96.1225 71.5518 95.8801 71.9153C97.3947 69.8958 105.978 68.5428 111.673 73.0866C111.349 70.5421 104.766 64.1806 95.8801 66.3213Z" fill="#DEAD8E"/>
<path d="M82.1678 183.452C77.8259 162.752 83.2583 144.234 79.9867 124.624C78.9568 113.214 70.0508 102.794 73.9282 91.5047L70.8182 90.5757C66.1734 89.2024 60.7208 87.5667 60.438 87.5667C60.1553 87.5667 45.6553 100.431 45.6553 100.431L52.7034 109.054C53.7821 110.383 54.5563 111.933 54.9715 113.594C55.3867 115.255 55.4328 116.986 55.1066 118.667C55.1066 118.788 55.1066 118.889 55.1066 118.99L41.3336 181.816C41.3336 181.816 52.9861 186.199 58.0348 186.825C66.961 187.895 72.8377 185.613 83.0564 186.825C82.7131 185.714 82.4303 184.603 82.1678 183.452Z" fill="#061725"/>
<path d="M74.8176 158.936C74.8176 158.936 62.5593 159.481 48.5642 179.635C38.4667 194.337 35.8616 200.699 36.0433 201.244C36.2251 201.789 34.4075 208.494 38.5677 213.765C42.7279 219.036 54.9256 219.823 60.358 218.127C65.7905 216.431 74.7974 187.087 74.7974 187.087L74.8176 158.936Z" fill="#4D5A68"/>
<path d="M88.8934 134.762L101.333 149.06C101.333 149.06 90.0849 159.844 84.0264 162.046C83.2186 162.328 74.0501 158.956 74.0501 158.956L72.0306 153.523C70.7777 150.072 70.2218 146.407 70.3948 142.739C70.3948 142.739 72.0306 124.948 74.4338 110.811L70.3948 101.219C70.3948 101.219 71.2228 94.1301 72.5759 88.0514C74.5954 87.0417 74.8377 89.041 74.8377 89.041L75.8878 99.8857L79.6239 104.389C80.5945 105.317 81.7912 105.976 83.095 106.298C84.3988 106.62 85.7643 106.596 87.0556 106.227C89.0751 105.439 91.5389 103.844 93.821 104.026C94.6291 104.094 95.407 104.365 96.0828 104.813C97.8196 106.651 94.6691 106.833 93.72 107.156C91.937 107.588 90.2425 108.326 88.7116 109.337C85.6622 111.962 83.1782 113.376 83.4609 117.415C84.0062 125.028 85.4804 130.622 84.8746 142.537C85.9651 141.285 85.9651 139.831 86.8941 138.357L88.8934 134.762Z" fill="#FEC29E"/>
<path d="M62.5585 168.103C62.3767 169.194 58.1964 185.37 58.1964 185.37L51.8552 240.018C51.8552 240.018 57.0251 244.925 66.0926 241.29C70.273 228.022 80.2291 191.59 80.2291 191.59L83.4603 181.493C84.7316 177.539 85.1581 173.363 84.7124 169.234L84.3489 165.882C84.2182 164.719 83.7888 163.609 83.1023 162.66C82.4158 161.712 81.4955 160.957 80.431 160.47L78.4115 159.521C77.3082 159.014 76.0967 158.787 74.8848 158.861C73.6728 158.935 72.4979 159.307 71.4645 159.945L66.1936 163.156L62.5585 168.103Z" fill="#5C6A78"/>
<path d="M107.048 109.539C108.526 109.466 110.003 109.691 111.392 110.203C112.78 110.714 114.051 111.501 115.128 112.516C116.205 113.53 117.066 114.752 117.659 116.108C118.252 117.463 118.565 118.925 118.58 120.404C118.825 126.763 116.661 132.979 112.521 137.812C111.552 138.943 101.717 149.606 101.293 149.081C98.829 146.092 88.1055 133.894 88.1055 133.894L93.3763 124.1C93.3763 124.1 100.929 109.721 107.048 109.539Z" fill="#061725"/>
<path d="M97.9411 76.8225H95.6793C94.9655 76.8225 94.3868 77.4012 94.3868 78.115V82.3963C94.3868 83.1101 94.9655 83.6888 95.6793 83.6888H97.9411C98.6549 83.6888 99.2336 83.1101 99.2336 82.3963V78.115C99.2336 77.4012 98.6549 76.8225 97.9411 76.8225Z" fill="#D13F4A"/>
<path d="M95.5979 90.7573V80.5185C95.5979 79.751 98.1627 79.125 101.313 79.125C104.463 79.125 107.048 79.751 107.048 80.5185V90.7573C107.048 91.5247 104.484 92.1507 101.313 92.1507C98.1425 92.1507 95.5979 91.5247 95.5979 90.7573Z" fill="#414042"/>
<path d="M104.726 98.0483V77.4091C104.726 75.8541 98.4855 74.5818 90.771 74.5818C83.0566 74.5818 76.8365 75.8541 76.8365 77.4091V98.0483C76.8365 99.6033 83.0768 100.855 90.771 100.855C98.4653 100.855 104.726 99.6033 104.726 98.0483Z" fill="#061725"/>
<path d="M88.0656 70.3C87.6575 70.1843 87.2231 70.2 86.8244 70.345C86.4256 70.49 86.0827 70.7569 85.8442 71.1078C85.6401 71.4559 85.5177 71.8458 85.4862 72.2481C85.4547 72.6504 85.515 73.0546 85.6624 73.4303C86.2145 74.5561 86.6935 75.7163 87.0963 76.9038C87.3194 78.1383 87.9613 79.2581 88.9138 80.0744C89.1136 80.273 89.3754 80.3971 89.6556 80.4261C89.9358 80.455 90.2175 80.3871 90.4537 80.2336C90.6899 80.0801 90.8663 79.8502 90.9536 79.5824C91.0409 79.3146 91.0337 79.0249 90.9333 78.7617C90.7314 77.7722 90.5698 76.7422 90.3477 75.8133C90.1255 74.8843 90.1255 73.4706 89.8428 72.3195C89.765 71.9172 89.5975 71.5376 89.3527 71.209C89.108 70.8803 88.7923 70.6111 88.4291 70.4212C88.3129 70.3674 88.191 70.3267 88.0656 70.3Z" fill="#FEC29E"/>
<path d="M83.7642 71.1676H83.4612C83.0922 71.2755 82.7809 71.5252 82.5954 71.862C82.41 72.1988 82.3655 72.5954 82.4717 72.965C82.7342 74.0757 82.9766 75.1662 83.2593 76.2568C83.6446 77.5537 84.3374 78.7384 85.2788 79.7101C86.2077 80.6593 87.2983 79.8717 86.9348 78.559L85.4202 72.2582C85.3291 71.903 85.1091 71.5945 84.8029 71.3929C84.4967 71.1913 84.1264 71.111 83.7642 71.1676Z" fill="#FEC29E"/>
<path d="M80.3502 70.6635H80.0272C79.84 70.7149 79.6648 70.8027 79.5116 70.9219C79.3585 71.0412 79.2304 71.1895 79.1347 71.3583C79.039 71.5272 78.9776 71.7133 78.954 71.906C78.9304 72.0986 78.9451 72.2941 78.9972 72.481C79.3208 74.2965 79.8987 76.0573 80.7138 77.7115C81.0369 78.2366 81.8043 79.5897 82.4707 79.731C83.1372 79.8724 83.9046 78.7011 83.7228 77.9539L82.1274 71.6732C82.0191 71.3079 81.7736 70.9986 81.4422 70.8104C81.1109 70.6221 80.7195 70.5695 80.3502 70.6635Z" fill="#FEC29E"/>
<path d="M60.3782 87.5664L54.9458 83.9717C54.9458 83.9717 68.1937 77.9132 70.0112 76.3178C71.8288 74.7224 79.4423 76.8227 79.4423 76.8227L87.5202 72.3798L91.0544 73.0462C91.0544 73.0462 93.8817 79.7913 98.2236 79.9125C96.3656 76.6207 94.1846 71.7134 94.1846 71.7134L87.2577 67.6744H79.4423L73.3838 66.4021H70.1122C70.1122 66.4021 46.1408 70.4411 40.5064 75.3081C35.6193 79.4884 34.347 78.62 36.1645 83.689C37.9821 88.7579 45.6561 100.431 45.6561 100.431L60.3782 87.5664Z" fill="#FEC29E"/>
<path d="M73.0198 84.0319C69.2837 77.7715 72.5754 70.8244 77.7655 67.2095C83.824 62.9282 91.7808 65.6343 96.668 69.229C101.919 73.1266 104.362 78.0744 103.534 83.1635L100.303 82.6384C101.151 77.4685 97.1729 73.6719 94.7293 71.8543C90.6903 68.8655 84.3491 66.5633 79.6437 69.8348C75.8066 72.5006 72.9996 77.5291 75.8268 82.2951L73.0198 84.0319Z" fill="#414042"/>
<path d="M71.909 80.3565C71.735 80.5087 71.5927 80.6939 71.4903 80.9012C71.3879 81.1086 71.3275 81.3342 71.3125 81.5649C71.2975 81.7957 71.3282 82.0272 71.4028 82.2461C71.4774 82.465 71.5946 82.6669 71.7475 82.8405L75.7865 87.5459L78.432 85.3043L74.393 80.5988C74.2464 80.4189 74.0657 80.2699 73.8612 80.1602C73.6567 80.0506 73.4325 79.9825 73.2015 79.96C72.9706 79.9374 72.7375 79.9609 72.5156 80.0289C72.2938 80.097 72.0876 80.2083 71.909 80.3565Z" fill="#505050"/>
<path d="M103.979 80.7215C103.668 80.3746 103.234 80.1634 102.77 80.1331C102.305 80.1029 101.847 80.2562 101.495 80.5599L96.7891 84.6999L99.1115 87.3252L103.817 83.2862C104.006 83.135 104.161 82.946 104.273 82.7313C104.384 82.5167 104.45 82.281 104.465 82.0396C104.48 81.7981 104.445 81.5561 104.361 81.3291C104.277 81.1021 104.147 80.8952 103.979 80.7215Z" fill="#505050"/>
<path d="M103.919 91.5042C103.923 94.4137 103.064 97.259 101.45 99.6798C99.8357 102.101 97.5398 103.988 94.8525 105.103C92.1653 106.219 89.2075 106.511 86.3538 105.945C83.5 105.378 80.8785 103.978 78.8212 101.92C76.7639 99.8629 75.3632 97.2414 74.7966 94.3877C74.23 91.5339 74.5228 88.5762 75.6381 85.8889C76.7533 83.2017 78.6408 80.9058 81.0616 79.2918C83.4825 77.6779 86.3277 76.8185 89.2372 76.8225C93.1294 76.8279 96.8606 78.3764 99.6128 81.1286C102.365 83.8808 103.914 87.6121 103.919 91.5042Z" fill="#505050"/>
<path d="M101.617 91.5045C101.62 93.9587 100.896 96.3588 99.5352 98.401C98.1742 100.443 96.2379 102.036 93.9713 102.977C91.7047 103.918 89.2099 104.165 86.8027 103.687C84.3955 103.209 82.1843 102.028 80.4489 100.293C78.7136 98.5573 77.5322 96.346 77.0544 93.9388C76.5766 91.5316 76.8239 89.0368 77.7649 86.7702C78.7059 84.5036 80.2983 82.5673 82.3405 81.2063C84.3827 79.8454 86.7829 79.121 89.237 79.125C92.5186 79.1304 95.6643 80.4363 97.9847 82.7568C100.305 85.0772 101.611 88.2229 101.617 91.5045Z" fill="#414042"/>
<path d="M98.5666 91.5047C98.5706 93.3557 98.0252 95.1662 96.9993 96.707C95.9734 98.2477 94.5133 99.4493 92.8039 100.159C91.0946 100.87 89.2129 101.057 87.3972 100.696C85.5816 100.336 83.9137 99.4453 82.6048 98.1365C81.2959 96.8276 80.405 95.1597 80.0448 93.344C79.6847 91.5284 79.8716 89.6467 80.5818 87.9373C81.292 86.228 82.4935 84.7679 84.0343 83.742C85.575 82.7161 87.3856 82.1706 89.2366 82.1746C91.7111 82.1746 94.0842 83.1576 95.8339 84.9073C97.5837 86.657 98.5666 89.0302 98.5666 91.5047Z" fill="#48647C"/>
<path d="M93.4169 85.3047L84.7128 97.6438C86.0209 98.6177 87.6058 99.1484 89.2365 99.1584C90.8614 99.1618 92.4441 98.641 93.7495 97.6734C95.0549 96.7058 96.0135 95.3431 96.4829 93.7874C96.9523 92.2318 96.9075 90.5663 96.3552 89.0381C95.8028 87.51 94.7724 86.2007 93.4169 85.3047Z" fill="#3498DB"/>
<path d="M89.2366 83.9519C87.648 83.9491 86.0988 84.4472 84.8096 85.3756C83.5204 86.3039 82.5567 87.6151 82.0556 89.1228C81.5546 90.6304 81.5417 92.2576 82.0188 93.7729C82.4959 95.2883 83.4386 96.6146 84.713 97.5633L93.417 85.305C92.1912 84.4441 90.7344 83.9725 89.2366 83.9519Z" fill="#2980B9"/>
<path opacity="0.46" d="M92.2255 91.6457C92.2295 92.2425 92.0559 92.827 91.7269 93.325C91.3978 93.8229 90.928 94.2117 90.3774 94.4419C89.8267 94.6722 89.22 94.7334 88.6345 94.618C88.0489 94.5025 87.5109 94.2155 87.0888 93.7935C86.6668 93.3715 86.3798 92.8335 86.2644 92.2479C86.1489 91.6623 86.2102 91.0556 86.4404 90.505C86.6707 89.9543 87.0595 89.4846 87.5574 89.1555C88.0553 88.8264 88.6399 88.6528 89.2367 88.6568C90.0294 88.6568 90.7896 88.9717 91.3501 89.5322C91.9106 90.0927 92.2255 90.853 92.2255 91.6457Z" fill="#48647C"/>
<path d="M94.366 64.2215C94.366 64.2215 101.232 55.4972 113.026 66.241C110.279 64.4948 107.168 63.4044 103.932 63.0542C100.696 62.704 97.4227 63.1034 94.366 64.2215Z" fill="#DEAD8E"/>
</g>
</g>
<defs>
<clipPath id="clip0_15_660">
<rect x="0.5" y="0.990234" width="160" height="160" rx="80" fill="white"/>
</clipPath>
<clipPath id="clip1_15_660">
<rect width="90.6753" height="206.473" fill="white" transform="translate(35.4574 58.3442)"/>
</clipPath>
</defs>
</svg>
