<svg width="160" height="160" viewBox="0 0 160 160" fill="none" xmlns="http://www.w3.org/2000/svg">
<g clip-path="url(#clip0_15_4)">
<rect width="160" height="160" rx="80" fill="#F8FDFF"/>
<g clip-path="url(#clip1_15_4)">
<path d="M133.776 118.183L132.415 108.043L125.703 109.259L120.747 117.955L125.703 122.09L133.776 118.183Z" fill="#FFB583"/>
<path d="M113.642 144.458L107.823 144.084L99.7925 123.41L105.787 121.082L111.304 135.295L123.667 112.542L129.319 115.607L113.642 144.458Z" fill="#FFB583"/>
<path d="M125.713 110.278V116.023L124.498 117.758L121.817 116.085C122.015 115.981 122.015 111.317 122.181 110.891L123.407 107.254C123.438 107.139 123.438 107.017 123.407 106.901L123.147 105.364C123.127 105.256 123.132 105.146 123.163 105.041C123.193 104.936 123.249 104.84 123.324 104.761C123.439 104.666 123.571 104.596 123.714 104.553C123.856 104.51 124.006 104.496 124.153 104.511C124.301 104.527 124.445 104.572 124.575 104.643C124.706 104.714 124.821 104.811 124.913 104.927L125.422 105.332C126.243 106.07 125.713 110.278 125.713 110.278Z" fill="#FFB583"/>
<path d="M47.367 144.458L31.6894 115.607L37.3308 112.542L49.6734 135.233L53.5903 124.947L59.5953 127.233L53.1955 144.064L47.367 144.458Z" fill="#FFB583"/>
<path d="M27.2327 118.183L28.5833 108.043L35.3053 109.259L40.261 117.955L35.3053 122.09L27.2327 118.183Z" fill="#FFB583"/>
<path d="M35.3051 110.277V116.022L36.5207 117.757L39.2011 116.085C39.0037 115.981 38.9933 111.316 38.8375 110.89L37.6012 107.254C37.5698 107.138 37.5698 107.016 37.6012 106.9L37.8609 105.363C37.8813 105.256 37.8769 105.146 37.848 105.042C37.8192 104.938 37.7667 104.841 37.6947 104.76C37.5807 104.666 37.449 104.595 37.3075 104.553C37.1659 104.51 37.0172 104.496 36.8701 104.511C36.7231 104.527 36.5806 104.572 36.451 104.643C36.3214 104.714 36.2073 104.81 36.1155 104.926L35.6064 105.332C34.7752 106.069 35.3051 110.277 35.3051 110.277Z" fill="#FFB583"/>
<path d="M128.218 162.847H126.929C126.607 162.847 126.298 162.719 126.07 162.491C125.842 162.263 125.714 161.954 125.714 161.631V77.8823H129.433V161.631C129.433 161.954 129.305 162.263 129.077 162.491C128.849 162.719 128.54 162.847 128.218 162.847Z" fill="#061725"/>
<path d="M129.423 77.8823H125.703V79.3472H129.423V77.8823Z" fill="#8B0093"/>
<path d="M139.261 77.8832H115.885C115.266 77.8832 114.652 77.7607 114.081 77.5228C113.509 77.2848 112.99 76.9361 112.553 76.4968C112.117 76.0574 111.772 75.536 111.537 74.9627C111.303 74.3893 111.185 73.7753 111.189 73.156H143.947C143.952 73.7748 143.835 74.3886 143.602 74.9619C143.369 75.5352 143.025 76.0566 142.589 76.4961C142.154 76.9356 141.635 77.2845 141.064 77.5226C140.493 77.7606 139.88 77.8832 139.261 77.8832Z" fill="#061725"/>
<path d="M144.311 62.9949H136.467L136.093 70.3402L135.584 62.9949H134.69L134.233 67.4623L133.755 62.9949H127.012L126.649 64.8234L126.368 62.9949H119.584L119.345 70.3402L118.774 62.9949H115.241L114.878 66.4026L114.265 62.9949H110.815L112.343 73.1453H142.784L144.311 62.9949Z" fill="#BBC1C7"/>
<path d="M142.898 72.408H112.239L112.342 73.1456H142.783L142.898 72.408Z" fill="#CCCCCC"/>
<path d="M127.033 117.321C127.086 117.578 127.234 117.806 127.448 117.958C127.662 118.11 127.926 118.176 128.186 118.142H133.786L134.212 117.591L134.004 116.105L133.474 115.877L127.823 116.126C127.563 116.186 127.336 116.343 127.189 116.566C127.042 116.788 126.986 117.058 127.033 117.321Z" fill="#FFC69F"/>
<path d="M126.316 114.984C126.334 115.126 126.382 115.263 126.456 115.386C126.53 115.509 126.628 115.615 126.746 115.698C126.863 115.781 126.996 115.839 127.136 115.868C127.277 115.897 127.422 115.897 127.562 115.867L133.443 115.69L133.994 115.035L133.775 113.342L133.079 112.989L127.168 113.685C126.883 113.745 126.633 113.915 126.474 114.158C126.314 114.402 126.257 114.698 126.316 114.984Z" fill="#FFC69F"/>
<path d="M126.316 109.705C126.333 109.849 126.38 109.987 126.453 110.111C126.527 110.235 126.625 110.343 126.742 110.427C126.86 110.511 126.993 110.57 127.134 110.599C127.276 110.629 127.421 110.629 127.563 110.599H132.757L133.443 109.955L133.256 108.479L132.425 108.001L127.178 108.396C127.035 108.425 126.899 108.481 126.778 108.563C126.657 108.644 126.554 108.749 126.473 108.871C126.393 108.992 126.338 109.129 126.311 109.272C126.284 109.415 126.286 109.563 126.316 109.705Z" fill="#FFC69F"/>
<path d="M125.485 112.501C125.538 112.807 125.71 113.079 125.963 113.26C126.215 113.441 126.529 113.515 126.836 113.467L133.069 112.989L133.641 112.428L133.433 110.911L132.747 110.599L126.399 111.088C126.093 111.157 125.825 111.344 125.655 111.608C125.484 111.872 125.423 112.192 125.485 112.501Z" fill="#FFC69F"/>
<path d="M39.128 103.576H26.027C25.0023 103.574 24.0108 103.212 23.2263 102.553C22.4418 101.894 21.9143 100.98 21.7362 99.9705L18.5466 81.9033C18.536 81.8388 18.5396 81.7728 18.5572 81.7099C18.5749 81.647 18.6061 81.5888 18.6487 81.5392C18.6913 81.4897 18.7442 81.4501 18.8038 81.4233C18.8633 81.3964 18.928 81.383 18.9934 81.3838H46.224C46.2895 81.3842 46.3541 81.399 46.4132 81.4271C46.4724 81.4552 46.5246 81.496 46.5663 81.5466C46.6079 81.5971 46.6379 81.6562 46.6542 81.7197C46.6704 81.7831 46.6725 81.8493 46.6603 81.9137L43.4292 99.9705C43.2508 100.981 42.7218 101.897 41.9351 102.556C41.1484 103.216 40.1545 103.577 39.128 103.576Z" fill="#061725"/>
<path d="M44.8012 84.8131L42.9207 95.8675C42.7712 96.8547 42.2771 97.7572 41.526 98.4152C40.7749 99.0731 39.8152 99.444 38.8169 99.4622H26.3496C25.3509 99.4433 24.3913 99.0705 23.6417 98.4103C22.8921 97.7502 22.4011 96.8454 22.2562 95.8571L20.4276 84.782H19.9497L22.1419 97.6441C22.2985 98.6384 22.8014 99.5455 23.5618 100.205C24.3222 100.865 25.2911 101.235 26.2976 101.249H38.9415C39.948 101.235 40.917 100.865 41.6774 100.205C42.4378 99.5455 42.9407 98.6384 43.0973 97.6441L45.3206 84.8028L44.8012 84.8131Z" fill="#061725"/>
<path d="M33.6945 123.025H31.4089C31.1675 123.025 30.9286 122.976 30.7067 122.881C30.4848 122.786 30.2846 122.647 30.1184 122.472C29.9521 122.297 29.8233 122.09 29.7397 121.863C29.6561 121.637 29.6196 121.396 29.6323 121.155L30.5258 103.586H34.6815L35.5231 121.165C35.5346 121.41 35.4955 121.654 35.4081 121.883C35.3207 122.112 35.187 122.32 35.0153 122.495C34.8436 122.669 34.6376 122.806 34.4103 122.898C34.183 122.989 33.9393 123.032 33.6945 123.025Z" fill="#061725"/>
<path d="M34.1209 104.698C34.1209 104.895 34.0274 105.051 33.9235 105.051H31.2222C31.1183 105.051 31.0352 104.895 31.0352 104.708C31.0352 104.521 31.1183 104.365 31.2222 104.365H33.9339C34.0378 104.365 34.1313 104.521 34.1313 104.708L34.1209 104.698Z" fill="#061725"/>
<path d="M34.1209 106.039C34.1209 106.226 34.0274 106.382 33.9235 106.382H31.2222C31.1183 106.382 31.0352 106.236 31.0352 106.039C31.0352 105.852 31.1183 105.696 31.2222 105.696H33.9339C34.0378 105.696 34.1313 105.852 34.1313 106.049L34.1209 106.039Z" fill="#061725"/>
<path d="M34.1099 107.368C34.1099 107.555 34.0268 107.711 33.9229 107.711H31.2216C31.1177 107.711 31.0242 107.555 31.0242 107.358C31.0242 107.17 31.1177 107.015 31.2216 107.015H33.9333C34.0372 107.015 34.1203 107.16 34.1203 107.358L34.1099 107.368Z" fill="#061725"/>
<path d="M34.1099 108.698C34.1099 108.885 34.0268 109.041 33.9125 109.041H31.2216C31.1177 109.041 31.0242 108.885 31.0242 108.698C31.0242 108.501 31.1177 108.345 31.2216 108.345H33.9333C34.0372 108.345 34.1203 108.501 34.1203 108.688L34.1099 108.698Z" fill="#061725"/>
<path d="M34.1099 110.028C34.1099 110.215 34.0268 110.371 33.9125 110.371H31.2216C31.1073 110.371 31.0242 110.215 31.0242 110.028C31.0242 109.831 31.1073 109.686 31.2216 109.686H33.9333C34.0475 109.686 34.1307 109.841 34.1307 110.028H34.1099Z" fill="#061725"/>
<path d="M34.1099 111.357C34.1099 111.555 34.0164 111.7 33.9125 111.7H31.2216C31.1073 111.7 31.0242 111.545 31.0242 111.357C31.0242 111.17 31.1073 111.015 31.2216 111.015H33.9333C34.0475 111.015 34.1307 111.17 34.1307 111.357H34.1099Z" fill="#061725"/>
<path d="M34.1099 112.688C34.1099 112.885 34.0164 113.041 33.9125 113.041H31.2112C31.1073 113.041 31.0242 112.885 31.0242 112.698C31.0242 112.511 31.1073 112.355 31.2112 112.355H33.9333C34.0372 112.355 34.1307 112.511 34.1307 112.698L34.1099 112.688Z" fill="#061725"/>
<path d="M34.1101 114.027C34.1101 114.214 34.0166 114.37 33.9127 114.37H31.2115C31.1076 114.37 31.0141 114.214 31.0245 114.027C31.0245 113.84 31.1076 113.685 31.2115 113.685H33.9335C34.0374 113.685 34.1309 113.84 34.1309 114.038L34.1101 114.027Z" fill="#061725"/>
<path d="M34.1 115.358C34.1 115.545 34.0169 115.7 33.913 115.7H31.2117C31.1079 115.7 31.0143 115.545 31.0143 115.347C31.0143 115.16 31.1079 115.004 31.2117 115.004H33.9338C34.0377 115.004 34.1208 115.15 34.1208 115.347L34.1 115.358Z" fill="#061725"/>
<path d="M34.1 116.688C34.1 116.875 34.0169 117.031 33.9026 117.031H31.2117C31.1079 117.031 31.0143 116.875 31.0143 116.678C31.0143 116.491 31.1079 116.335 31.2117 116.335H33.9338C34.0377 116.335 34.1208 116.491 34.1208 116.678L34.1 116.688Z" fill="#061725"/>
<path d="M34.1 118.017C34.1 118.204 34.0169 118.36 33.9026 118.36H31.2117C31.0975 118.36 31.0143 118.204 31.0143 118.017C31.0143 117.82 31.0975 117.674 31.2117 117.674H33.9338C34.0481 117.674 34.1312 117.83 34.1312 118.017H34.1Z" fill="#061725"/>
<path d="M34.1 119.347C34.1 119.545 34.0065 119.69 33.9026 119.69H31.2117C31.0975 119.69 31.0143 119.535 31.0143 119.347C31.0143 119.15 31.0975 119.005 31.2117 119.005H33.9338C34.0481 119.005 34.1312 119.16 34.1312 119.347H34.1Z" fill="#061725"/>
<path d="M34.1 120.677C34.1 120.874 34.0065 121.019 33.9026 121.019H31.2014C31.0975 121.019 31.0143 120.864 31.0143 120.677C31.0143 120.49 31.0975 120.334 31.2014 120.334H33.9338C34.0377 120.334 34.1312 120.49 34.1312 120.677H34.1Z" fill="#061725"/>
<path d="M33.9342 117.321C33.8813 117.578 33.7329 117.806 33.519 117.958C33.305 118.11 33.0413 118.176 32.781 118.142H27.233L26.8071 117.591L27.0045 116.105L27.5343 115.877L33.1862 116.126C33.4382 116.195 33.6552 116.356 33.7938 116.577C33.9324 116.799 33.9826 117.064 33.9342 117.321Z" fill="#FFC69F"/>
<path d="M34.6919 114.984C34.6386 115.264 34.479 115.512 34.2466 115.677C34.0141 115.841 33.7268 115.909 33.4451 115.867L27.5647 115.753L27.0037 115.098L27.2323 113.405L27.918 113.051L33.8399 113.747C34.112 113.807 34.3512 113.968 34.5093 114.198C34.6673 114.427 34.7326 114.708 34.6919 114.984Z" fill="#FFC69F"/>
<path d="M34.6917 109.705C34.6408 109.987 34.4822 110.238 34.2494 110.405C34.0167 110.572 33.7281 110.641 33.445 110.599H28.2503L27.575 109.955L27.7516 108.479L28.5931 108.001L33.7878 108.396C33.9352 108.418 34.0765 108.471 34.203 108.55C34.3294 108.628 34.4384 108.732 34.5231 108.855C34.6078 108.978 34.6664 109.117 34.6954 109.263C34.7244 109.409 34.7232 109.56 34.6917 109.705Z" fill="#FFC69F"/>
<path d="M35.523 112.501C35.4671 112.807 35.2935 113.08 35.0392 113.261C34.7849 113.441 34.4701 113.515 34.162 113.467L27.9283 112.989L27.3673 112.428L27.5751 110.911L28.2504 110.599L34.6087 111.088C34.7619 111.12 34.9072 111.182 35.0362 111.27C35.1653 111.359 35.2755 111.472 35.3605 111.604C35.4455 111.735 35.5036 111.882 35.5315 112.036C35.5594 112.19 35.5565 112.348 35.523 112.501Z" fill="#FFC69F"/>
<path d="M62.1197 129.622L47.907 126.09L58.2237 102.194H71.2209L62.1197 129.622Z" fill="#061725"/>
<path d="M97.9532 129.622L112.166 126.09L101.86 102.194H88.8624L97.9532 129.622Z" fill="#061725"/>
<path d="M95.6463 145.965H64.4469L58.2236 102.194H101.88L95.6463 145.965Z" fill="#061725"/>
<path d="M95.6463 145.965H64.4469L58.2236 162.858H101.88L95.6463 145.965Z" fill="#061725"/>
<path d="M91.9585 145.965H68.146L63.3876 162.858H96.7064L91.9585 145.965Z" fill="#F8FDFF"/>
<path d="M96.3843 143.534H63.72V146.993H96.3843V143.534Z" fill="#F8FDFF"/>
<path d="M70.6602 120.656H68.6447L66.3278 102.194H68.333L70.6602 120.656Z" fill="#F8FDFF"/>
<path d="M89.4441 120.656H91.4492L93.7765 102.194H91.7609L89.4441 120.656Z" fill="#F8FDFF"/>
<path d="M68.8316 141.83C69.0029 141.752 69.1897 141.713 69.3781 141.716C69.5665 141.72 69.7517 141.765 69.9201 141.85C70.0884 141.935 70.2356 142.056 70.3506 142.206C70.4657 142.355 70.5457 142.528 70.5848 142.712C70.6239 142.897 70.6211 143.087 70.5765 143.271C70.532 143.454 70.4468 143.624 70.3273 143.77C70.2079 143.916 70.0572 144.033 69.8864 144.113C69.7156 144.192 69.5291 144.232 69.3406 144.23C69.1693 144.309 68.9825 144.348 68.7941 144.344C68.6057 144.341 68.4205 144.295 68.2521 144.21C68.0838 144.126 67.9366 144.004 67.8216 143.855C67.7065 143.706 67.6265 143.532 67.5874 143.348C67.5483 143.164 67.5511 142.973 67.5957 142.79C67.6402 142.607 67.7254 142.436 67.8449 142.29C67.9643 142.145 68.115 142.028 68.2858 141.948C68.4566 141.868 68.6431 141.828 68.8316 141.83Z" fill="#F8FDFF"/>
<path d="M68.3115 139.43C68.5496 139.428 68.7836 139.492 68.9863 139.618C69.1889 139.743 69.3518 139.923 69.4561 140.137C69.5604 140.351 69.6017 140.59 69.5753 140.827C69.5489 141.063 69.4559 141.288 69.307 141.473C69.1581 141.659 68.9594 141.799 68.7342 141.876C68.509 141.954 68.2665 141.965 68.0349 141.91C67.8032 141.855 67.592 141.735 67.4258 141.565C67.2596 141.394 67.1452 141.18 67.096 140.947C67.0608 140.586 67.1681 140.225 67.3952 139.941C67.6223 139.658 67.9511 139.475 68.3115 139.43Z" fill="#F8FDFF"/>
<path d="M67.8028 137.03C67.9741 136.951 68.1609 136.913 68.3493 136.916C68.5378 136.919 68.723 136.965 68.8913 137.05C69.0597 137.135 69.2068 137.256 69.3219 137.405C69.437 137.554 69.517 137.728 69.5561 137.912C69.5952 138.096 69.5924 138.287 69.5478 138.47C69.5032 138.653 69.418 138.824 69.2986 138.97C69.1791 139.116 69.0284 139.233 68.8576 139.312C68.6868 139.392 68.5003 139.432 68.3119 139.43C68.1406 139.508 67.9538 139.547 67.7654 139.544C67.577 139.54 67.3917 139.495 67.2234 139.41C67.055 139.325 66.9079 139.204 66.7928 139.055C66.6778 138.905 66.5977 138.732 66.5586 138.548C66.5195 138.364 66.5224 138.173 66.5669 137.99C66.6115 137.807 66.6967 137.636 66.8161 137.49C66.9356 137.344 67.0863 137.227 67.2571 137.148C67.4279 137.068 67.6144 137.028 67.8028 137.03Z" fill="#F8FDFF"/>
<path d="M67.2942 134.63C67.5319 134.629 67.7649 134.696 67.9662 134.822C68.1676 134.948 68.329 135.129 68.4317 135.343C68.5345 135.558 68.5744 135.797 68.5468 136.033C68.5193 136.269 68.4253 136.492 68.2759 136.677C68.1265 136.862 67.9278 137.001 67.7028 137.077C67.4777 137.153 67.2356 137.165 67.0045 137.109C66.7734 137.054 66.5628 136.934 66.3971 136.763C66.2314 136.593 66.1173 136.379 66.0682 136.146C66.0332 135.783 66.1419 135.421 66.3712 135.138C66.6005 134.854 66.9319 134.672 67.2942 134.63Z" fill="#F8FDFF"/>
<path d="M66.774 132.23C67.1227 132.124 67.4986 132.158 67.8224 132.325C68.1463 132.492 68.3925 132.778 68.5091 133.123C68.6348 133.414 68.6675 133.737 68.6027 134.047C68.5379 134.357 68.3789 134.64 68.1473 134.856C67.9157 135.073 67.6229 135.212 67.309 135.256C66.995 135.299 66.6753 135.245 66.3935 135.1C66.1118 134.955 65.8817 134.726 65.7349 134.445C65.588 134.164 65.5316 133.845 65.5732 133.531C65.6149 133.217 65.7526 132.923 65.9676 132.69C66.1825 132.457 66.4642 132.296 66.774 132.23Z" fill="#F8FDFF"/>
<path d="M66.2651 129.841C66.5031 129.83 66.7393 129.888 66.9457 130.007C67.1522 130.126 67.3201 130.301 67.4297 130.513C67.5393 130.725 67.586 130.963 67.5643 131.201C67.5425 131.438 67.4531 131.664 67.3068 131.852C67.1605 132.04 66.9634 132.182 66.7388 132.262C66.5141 132.341 66.2714 132.355 66.0394 132.301C65.8073 132.246 65.5956 132.127 65.4294 131.956C65.2632 131.785 65.1494 131.571 65.1015 131.337C65.0707 130.987 65.1736 130.638 65.3894 130.361C65.6052 130.083 65.9181 129.898 66.2651 129.841Z" fill="#F8FDFF"/>
<path d="M65.7563 127.44C65.9919 127.439 66.2229 127.505 66.4225 127.63C66.6221 127.756 66.7822 127.935 66.8841 128.147C66.9861 128.36 67.0257 128.597 66.9985 128.831C66.9713 129.065 66.8783 129.286 66.7304 129.47C66.5824 129.653 66.3855 129.791 66.1625 129.867C65.9395 129.943 65.6996 129.954 65.4704 129.899C65.2412 129.845 65.0323 129.726 64.8678 129.557C64.7032 129.389 64.5898 129.177 64.5408 128.946C64.5029 128.586 64.6096 128.224 64.8374 127.942C65.0652 127.66 65.3956 127.479 65.7563 127.44Z" fill="#F8FDFF"/>
<path d="M65.5169 124.999C65.8878 125.009 66.2482 125.124 66.5559 125.331C66.6878 125.412 66.8001 125.521 66.8845 125.65C66.969 125.78 67.0236 125.926 67.0442 126.079C67.0534 126.224 67.0321 126.369 66.9818 126.505C66.9477 126.577 66.9096 126.646 66.8676 126.713C66.8676 126.775 66.7741 126.838 66.7117 126.9C66.4322 127.187 66.068 127.376 65.6728 127.44C65.2934 127.528 64.8945 127.465 64.5611 127.264C64.48 127.22 64.4063 127.164 64.3429 127.098C64.2788 127.036 64.223 126.966 64.1767 126.89C64.0721 126.735 64.0078 126.556 63.9897 126.37C63.9633 126.179 63.9846 125.984 64.0517 125.803C64.1187 125.621 64.2295 125.459 64.3741 125.331C64.5332 125.203 64.7161 125.108 64.9123 125.051C65.1084 124.994 65.3139 124.976 65.5169 124.999Z" fill="#F8FDFF"/>
<path d="M65.788 122.568C66.1611 122.651 66.5011 122.842 66.7646 123.119C66.8252 123.177 66.8777 123.244 66.9205 123.316C66.9631 123.377 66.998 123.444 67.0244 123.514C67.0856 123.65 67.1072 123.802 67.0867 123.95C67.0754 124.097 67.0212 124.238 66.9309 124.355L66.8582 124.438L66.7854 124.521C66.7284 124.579 66.6657 124.632 66.5984 124.677C66.2909 124.883 65.9298 124.995 65.5595 124.999C65.1762 125.001 64.806 124.86 64.5205 124.604C64.4562 124.54 64.3971 124.471 64.3439 124.397C64.3259 124.355 64.3014 124.316 64.2712 124.282C64.2753 124.241 64.2753 124.199 64.2712 124.158C64.209 123.981 64.1877 123.793 64.2089 123.607C64.2332 123.423 64.297 123.245 64.3959 123.088C64.4459 123.011 64.5052 122.942 64.5725 122.88C64.6363 122.816 64.71 122.764 64.7907 122.724C65.095 122.558 65.4476 122.503 65.788 122.568Z" fill="#F8FDFF"/>
<path d="M66.5768 120.251C66.9237 120.414 67.216 120.674 67.4184 120.999C67.5036 121.126 67.5599 121.27 67.5833 121.421C67.6066 121.571 67.5964 121.726 67.5535 121.872C67.5066 122.012 67.4243 122.137 67.3145 122.236L67.221 122.308L67.1275 122.371C67.0595 122.417 66.9863 122.456 66.9093 122.485C66.552 122.624 66.1612 122.653 65.7873 122.568C65.4063 122.49 65.0688 122.271 64.8418 121.955C64.7901 121.881 64.7481 121.801 64.7171 121.716C64.7113 121.671 64.7113 121.626 64.7171 121.581V121.456C64.6757 121.275 64.6757 121.087 64.7171 120.906C64.7764 120.731 64.8758 120.572 65.0075 120.442C65.1392 120.312 65.2995 120.215 65.4756 120.158C65.8415 120.05 66.2343 120.084 66.5768 120.251Z" fill="#F8FDFF"/>
<path d="M67.8547 118.163C68.0131 118.281 68.1501 118.425 68.2599 118.589C68.3598 118.737 68.4401 118.898 68.4989 119.066C68.5281 119.144 68.549 119.224 68.5612 119.305C68.5662 119.382 68.5662 119.458 68.5612 119.534C68.5532 119.68 68.5105 119.823 68.4365 119.95C68.3628 120.077 68.2548 120.181 68.1249 120.251C67.9871 120.33 67.8355 120.383 67.6781 120.407C67.3004 120.471 66.9121 120.416 66.5665 120.251C66.2129 120.092 65.9314 119.806 65.7769 119.451C65.7038 119.281 65.6752 119.095 65.6937 118.911C65.7043 118.723 65.7615 118.541 65.86 118.381C65.9607 118.228 66.0915 118.097 66.2444 117.996C66.3233 117.95 66.4069 117.911 66.4937 117.882C66.5812 117.852 66.6718 117.831 66.7639 117.82C67.1404 117.804 67.5098 117.926 67.8028 118.163H67.8547Z" fill="#F8FDFF"/>
<path d="M69.559 116.407C69.6864 116.559 69.7881 116.731 69.8603 116.916C69.925 117.083 69.967 117.257 69.9849 117.435C70.0171 117.593 70.0171 117.756 69.9849 117.913C69.947 118.053 69.8757 118.181 69.7771 118.287L69.694 118.35C69.6737 118.379 69.6446 118.401 69.6109 118.412C69.5505 118.453 69.4839 118.485 69.4135 118.505C69.3377 118.516 69.2607 118.516 69.1849 118.505C69.1021 118.515 69.0184 118.515 68.9356 118.505C68.5581 118.478 68.1968 118.341 67.8967 118.111C67.5819 117.875 67.3668 117.531 67.2941 117.144C67.2835 117.055 67.2835 116.964 67.2941 116.874C67.2842 116.785 67.2842 116.694 67.2941 116.604C67.3197 116.518 67.3545 116.434 67.398 116.355C67.423 116.315 67.4508 116.277 67.4811 116.241L67.5746 116.126C67.7036 115.992 67.8643 115.892 68.0421 115.835C68.2199 115.794 68.4046 115.794 68.5824 115.835C68.7684 115.861 68.9481 115.921 69.1122 116.012C69.2824 116.117 69.4335 116.251 69.559 116.407Z" fill="#F8FDFF"/>
<path d="M71.626 115.087C71.7085 115.269 71.7645 115.461 71.7922 115.659C71.8182 115.838 71.8182 116.02 71.7922 116.199C71.7738 116.356 71.7243 116.508 71.6468 116.646C71.6502 116.677 71.6502 116.708 71.6468 116.739L71.574 116.822C71.5298 116.876 71.4772 116.921 71.4182 116.957C71.3567 116.997 71.2903 117.028 71.2208 117.051H71.0026C70.8445 117.054 70.6868 117.033 70.5351 116.989C70.1709 116.879 69.8485 116.662 69.6104 116.365C69.3643 116.076 69.2347 115.706 69.2468 115.326C69.2603 115.144 69.3135 114.967 69.4027 114.807C69.4521 114.726 69.5077 114.65 69.5689 114.578C69.6384 114.511 69.7151 114.452 69.7975 114.402C69.8751 114.35 69.9588 114.308 70.0468 114.277H70.1819H70.3169C70.5002 114.258 70.6853 114.283 70.8572 114.35C71.0324 114.416 71.1916 114.519 71.3247 114.651C71.4483 114.779 71.55 114.926 71.626 115.087Z" fill="#F8FDFF"/>
<path d="M73.9431 114.308C74.0201 114.68 73.9876 115.066 73.8496 115.42C73.7837 115.565 73.6999 115.701 73.6003 115.825L73.5171 115.898L73.3301 115.991C73.2582 116.006 73.1839 116.006 73.112 115.991H72.9042C72.7463 115.964 72.5949 115.908 72.4574 115.825C72.1278 115.633 71.8664 115.342 71.7094 114.994C71.5276 114.649 71.4903 114.245 71.6055 113.872C71.6617 113.697 71.7577 113.537 71.886 113.405L72.0938 113.228C72.175 113.176 72.2622 113.134 72.3535 113.103C72.4436 113.071 72.5384 113.053 72.634 113.051H72.7691H72.9042C73.0859 113.074 73.26 113.138 73.4132 113.238C73.5667 113.347 73.6973 113.485 73.7977 113.643C73.8851 113.855 73.9343 114.08 73.9431 114.308Z" fill="#F8FDFF"/>
<path d="M76.3742 114.069C76.3752 114.27 76.3436 114.47 76.2807 114.661C76.2489 114.747 76.2107 114.831 76.1664 114.911C76.1259 114.99 76.0808 115.066 76.0313 115.139C75.9476 115.268 75.8379 115.379 75.709 115.463C75.5802 115.547 75.4351 115.603 75.2833 115.628C75.2144 115.637 75.1444 115.637 75.0755 115.628C75.0066 115.638 74.9365 115.638 74.8677 115.628C74.7231 115.558 74.5899 115.467 74.4729 115.357C74.205 115.09 74.0208 114.751 73.943 114.381C73.907 114.182 73.907 113.978 73.943 113.778C73.9693 113.593 74.0367 113.415 74.1404 113.259C74.2315 113.102 74.36 112.97 74.5144 112.874C74.5932 112.825 74.6767 112.783 74.7638 112.75C74.8539 112.717 74.9486 112.7 75.0443 112.698H75.3248C75.3697 112.692 75.4151 112.692 75.4599 112.698H75.5949C75.7605 112.77 75.9091 112.876 76.0313 113.009C76.098 113.073 76.1541 113.146 76.1975 113.228C76.2418 113.311 76.28 113.398 76.3118 113.487C76.365 113.676 76.3861 113.873 76.3742 114.069Z" fill="#F8FDFF"/>
<path d="M77.6001 115.586C78.2772 115.586 78.826 114.912 78.826 114.08C78.826 113.248 78.2772 112.573 77.6001 112.573C76.923 112.573 76.3741 113.248 76.3741 114.08C76.3741 114.912 76.923 115.586 77.6001 115.586Z" fill="#F8FDFF"/>
<path d="M81.2777 114.069C81.2305 114.303 81.1178 114.518 80.953 114.69C80.7881 114.862 80.5778 114.984 80.3465 115.041C80.1152 115.098 79.8725 115.088 79.6466 115.012C79.4207 114.937 79.2209 114.798 79.0705 114.614C78.9202 114.429 78.8254 114.205 78.7973 113.969C78.7691 113.732 78.8088 113.492 78.9116 113.277C79.0144 113.063 79.1762 112.881 79.378 112.755C79.5799 112.628 79.8135 112.562 80.0518 112.563C80.4121 112.605 80.7419 112.786 80.9708 113.067C81.1998 113.349 81.3099 113.708 81.2777 114.069Z" fill="#F8FDFF"/>
<path d="M82.5043 115.586C83.1814 115.586 83.7303 114.912 83.7303 114.08C83.7303 113.248 83.1814 112.573 82.5043 112.573C81.8273 112.573 81.2784 113.248 81.2784 114.08C81.2784 114.912 81.8273 115.586 82.5043 115.586Z" fill="#F8FDFF"/>
<path d="M86.1711 114.309C86.0834 114.677 85.8966 115.015 85.6308 115.285C85.5174 115.395 85.3877 115.486 85.2464 115.555C85.1774 115.564 85.1076 115.564 85.0386 115.555C84.9662 115.566 84.8928 115.566 84.8204 115.555C84.6691 115.533 84.5245 115.478 84.397 115.394C84.2695 115.309 84.1622 115.198 84.0828 115.067C84.0296 114.994 83.981 114.918 83.9373 114.839C83.8902 114.799 83.8451 114.758 83.8023 114.714C83.7359 114.523 83.7008 114.323 83.6984 114.122C83.6999 113.923 83.735 113.727 83.8023 113.54C83.8306 113.451 83.8653 113.364 83.9062 113.28C83.9531 113.201 84.0089 113.128 84.0724 113.062C84.1963 112.926 84.3489 112.82 84.5191 112.75H84.6438C84.7022 112.701 84.769 112.662 84.8412 112.636H85.1217C85.2176 112.636 85.3127 112.654 85.4022 112.688C85.4911 112.717 85.5752 112.759 85.6516 112.813C85.8067 112.911 85.938 113.042 86.036 113.197C86.1319 113.356 86.1954 113.533 86.223 113.716C86.2408 113.915 86.2232 114.116 86.1711 114.309Z" fill="#F8FDFF"/>
<path d="M88.4884 115.087C88.3241 115.434 88.06 115.723 87.7299 115.919C87.5961 116.001 87.4481 116.057 87.2936 116.085H87.0754C87.007 116.1 86.936 116.1 86.8676 116.085C86.7972 116.064 86.7306 116.033 86.6702 115.991L86.5975 115.919C86.4907 115.8 86.4062 115.662 86.3481 115.513C86.2101 115.16 86.1777 114.774 86.2546 114.402C86.2926 114.203 86.3665 114.013 86.4728 113.841C86.576 113.684 86.7062 113.547 86.8572 113.436C87.0113 113.337 87.185 113.273 87.3663 113.249H87.5014H87.6468C87.739 113.252 87.8302 113.269 87.9169 113.3C88.0082 113.331 88.0954 113.373 88.1767 113.425C88.2539 113.478 88.3268 113.537 88.3948 113.602C88.5194 113.737 88.6149 113.896 88.6754 114.069C88.7335 114.42 88.6673 114.78 88.4884 115.087Z" fill="#F8FDFF"/>
<path d="M90.5452 116.407C90.3071 116.704 89.9847 116.921 89.6206 117.031C89.469 117.076 89.3112 117.097 89.153 117.093H88.9452C88.8749 117.073 88.8082 117.041 88.7478 117C88.6856 116.964 88.6295 116.918 88.5816 116.864L88.5193 116.781L88.4569 116.688C88.3794 116.55 88.3299 116.398 88.3115 116.241C88.2907 116.062 88.2907 115.88 88.3115 115.701C88.3425 115.503 88.402 115.31 88.4881 115.129C88.5719 114.95 88.6881 114.788 88.831 114.652C88.964 114.52 89.1233 114.417 89.2985 114.35C89.4706 114.285 89.6554 114.26 89.8387 114.278H89.9738H90.1089C90.2001 114.308 90.2874 114.35 90.3686 114.402C90.4477 114.453 90.5209 114.512 90.5868 114.579C90.6513 114.648 90.7071 114.725 90.753 114.807C90.8451 114.967 90.9018 115.144 90.9192 115.327C90.9381 115.722 90.8041 116.109 90.5452 116.407Z" fill="#F8FDFF"/>
<path d="M92.2596 118.162C91.9576 118.39 91.5973 118.527 91.2206 118.557C91.1378 118.567 91.0541 118.567 90.9713 118.557C90.899 118.568 90.8254 118.568 90.7531 118.557C90.682 118.539 90.615 118.507 90.5557 118.464C90.5202 118.45 90.4882 118.429 90.4622 118.401L90.3791 118.339C90.2806 118.233 90.2092 118.105 90.1713 117.965C90.1442 117.807 90.1442 117.645 90.1713 117.487C90.1937 117.309 90.2391 117.134 90.3064 116.968C90.3746 116.783 90.4729 116.611 90.5973 116.459C90.7264 116.302 90.881 116.169 91.0544 116.064C91.2142 115.971 91.3908 115.911 91.5739 115.887C91.7515 115.845 91.9365 115.845 92.1141 115.887C92.2939 115.946 92.4575 116.045 92.592 116.178L92.6855 116.292L92.7583 116.407C92.8006 116.488 92.8388 116.571 92.8725 116.656C92.8826 116.746 92.8826 116.836 92.8725 116.926C92.8883 117.016 92.8883 117.107 92.8725 117.196C92.7981 117.584 92.579 117.93 92.2596 118.162Z" fill="#F8FDFF"/>
<path d="M93.5269 120.251C93.1812 120.416 92.793 120.47 92.4152 120.407C92.2579 120.383 92.1063 120.33 91.9685 120.251C91.8439 120.178 91.7401 120.074 91.6672 119.95C91.5843 119.827 91.5408 119.682 91.5425 119.534C91.5324 119.458 91.5324 119.381 91.5425 119.305C91.5509 119.224 91.5683 119.144 91.5945 119.066C91.6532 118.898 91.7335 118.737 91.8334 118.589C91.9501 118.427 92.0902 118.283 92.249 118.163C92.4018 118.035 92.5784 117.94 92.7685 117.882C92.9463 117.826 93.1333 117.805 93.3191 117.82C93.4114 117.829 93.5021 117.85 93.5892 117.882C93.6776 117.907 93.7617 117.946 93.8386 117.996C93.9968 118.094 94.1316 118.225 94.2334 118.381C94.3228 118.545 94.3793 118.725 94.3996 118.911C94.4093 119.095 94.3773 119.28 94.3061 119.451C94.1576 119.807 93.8789 120.093 93.5269 120.251Z" fill="#F8FDFF"/>
<path d="M94.3167 122.568C93.9427 122.653 93.5519 122.624 93.1946 122.485L92.9764 122.37L92.8829 122.308L92.7998 122.235C92.6868 122.14 92.6038 122.013 92.5608 121.872C92.5179 121.725 92.5077 121.571 92.531 121.42C92.5544 121.269 92.6107 121.126 92.6959 120.999C92.8917 120.672 93.1813 120.411 93.5271 120.251C93.8755 120.078 94.2768 120.045 94.6491 120.157C94.9196 120.237 95.1515 120.414 95.3008 120.653C95.4502 120.892 95.5066 121.178 95.4595 121.456C95.453 121.547 95.4282 121.635 95.3868 121.716C95.3487 121.813 95.2962 121.904 95.2309 121.986C95.0062 122.284 94.6816 122.49 94.3167 122.568Z" fill="#F8FDFF"/>
<path d="M94.5974 125C94.2271 124.996 93.866 124.884 93.5585 124.677C93.4872 124.637 93.4238 124.584 93.3714 124.522C93.3387 124.499 93.3105 124.471 93.2883 124.439L93.2156 124.355C93.1295 124.236 93.0759 124.096 93.0598 123.95C93.0446 123.802 93.066 123.652 93.1221 123.514L93.2364 123.316C93.2755 123.244 93.3244 123.178 93.3818 123.119C93.6454 122.843 93.9854 122.651 94.3584 122.568C94.7386 122.475 95.1403 122.53 95.4805 122.724C95.558 122.769 95.631 122.821 95.6987 122.88C95.7628 122.942 95.8186 123.012 95.8649 123.088C95.9713 123.243 96.039 123.421 96.0623 123.607C96.0747 123.794 96.05 123.981 95.9896 124.158C95.9937 124.199 95.9937 124.241 95.9896 124.283L95.9168 124.397C95.8637 124.471 95.8046 124.54 95.7402 124.605C95.5873 124.746 95.4068 124.854 95.2102 124.922C95.0135 124.99 94.8048 125.016 94.5974 125Z" fill="#F8FDFF"/>
<path d="M94.3476 127.441C93.9533 127.374 93.59 127.185 93.3087 126.9L93.1633 126.713C93.1174 126.649 93.079 126.579 93.049 126.505C92.9875 126.372 92.9658 126.225 92.9866 126.08C93.0061 125.927 93.059 125.781 93.1417 125.652C93.2243 125.523 93.3346 125.413 93.4645 125.331C93.7725 125.125 94.1327 125.009 94.5035 124.999C94.8862 124.989 95.2581 125.127 95.5424 125.383C95.6871 125.512 95.7978 125.673 95.8649 125.855C95.9319 126.036 95.9532 126.231 95.9268 126.422C95.9123 126.608 95.8516 126.786 95.7502 126.942C95.7006 127.016 95.645 127.085 95.584 127.15C95.4066 127.314 95.1912 127.431 94.9572 127.491C94.7233 127.55 94.478 127.551 94.2437 127.492L94.3476 127.441Z" fill="#F8FDFF"/>
<path d="M93.8388 129.84C93.6212 129.745 93.4351 129.59 93.302 129.393C93.169 129.196 93.0944 128.966 93.087 128.728C93.0796 128.491 93.1396 128.256 93.2601 128.051C93.3806 127.846 93.5567 127.68 93.7679 127.571C93.9792 127.462 94.2169 127.416 94.4536 127.436C94.6903 127.457 94.9162 127.545 95.1052 127.689C95.2942 127.833 95.4386 128.027 95.5215 128.25C95.6045 128.473 95.6226 128.714 95.5739 128.947C95.4595 129.293 95.2136 129.581 94.8891 129.748C94.5646 129.915 94.1874 129.948 93.8388 129.84Z" fill="#F8FDFF"/>
<path d="M93.3296 132.229C93.1156 132.133 92.9334 131.977 92.8039 131.781C92.6743 131.585 92.6027 131.357 92.5974 131.122C92.592 130.887 92.6531 130.656 92.7735 130.454C92.894 130.253 93.0689 130.089 93.2782 129.983C93.4876 129.876 93.7227 129.831 93.9566 129.852C94.1905 129.873 94.4136 129.96 94.6003 130.103C94.787 130.245 94.9296 130.438 95.0117 130.658C95.0939 130.878 95.1122 131.116 95.0646 131.346C94.9505 131.693 94.7041 131.98 94.379 132.145C94.054 132.311 93.6768 132.341 93.3296 132.229Z" fill="#F8FDFF"/>
<path d="M92.8201 134.63C92.4598 134.588 92.13 134.407 91.9011 134.125C91.6721 133.844 91.562 133.484 91.5942 133.123C91.7108 132.778 91.957 132.492 92.2808 132.325C92.6046 132.158 92.9806 132.124 93.3292 132.23C93.5176 132.227 93.7041 132.268 93.8749 132.347C94.0457 132.427 94.1964 132.544 94.3159 132.69C94.4353 132.835 94.5205 133.006 94.5651 133.189C94.6097 133.372 94.6125 133.563 94.5734 133.747C94.5343 133.932 94.4542 134.105 94.3392 134.254C94.2241 134.403 94.077 134.525 93.9086 134.61C93.7403 134.694 93.555 134.74 93.3666 134.744C93.1782 134.747 92.9914 134.708 92.8201 134.63Z" fill="#F8FDFF"/>
<path d="M92.301 137.03C91.9347 136.988 91.5999 136.803 91.3701 136.515C91.1403 136.227 91.0342 135.859 91.0751 135.493C91.1937 135.149 91.4408 134.866 91.7644 134.701C92.088 134.536 92.4628 134.503 92.8101 134.609C92.9981 134.609 93.1839 134.65 93.3537 134.731C93.5235 134.812 93.6731 134.929 93.7914 135.076C93.9097 135.222 93.9937 135.393 94.0373 135.575C94.0808 135.758 94.0828 135.949 94.043 136.132C94.0032 136.316 93.9227 136.489 93.8074 136.637C93.6922 136.786 93.545 136.907 93.3769 136.991C93.2087 137.075 93.0239 137.12 92.8359 137.123C92.6479 137.127 92.4615 137.088 92.2906 137.009L92.301 137.03Z" fill="#F8FDFF"/>
<path d="M91.7919 139.43C91.5742 139.334 91.3881 139.178 91.2553 138.981C91.1226 138.783 91.0486 138.552 91.0419 138.315C91.0353 138.077 91.0962 137.842 91.2177 137.637C91.3392 137.433 91.5163 137.267 91.7283 137.159C91.9404 137.051 92.1786 137.006 92.4155 137.028C92.6524 137.05 92.8781 137.139 93.0665 137.284C93.2549 137.429 93.3981 137.625 93.4796 137.849C93.5611 138.072 93.5775 138.314 93.5269 138.547C93.4105 138.891 93.1637 139.177 92.8394 139.342C92.5151 139.507 92.1391 139.539 91.7919 139.43Z" fill="#F8FDFF"/>
<path d="M91.2832 141.83C91.0948 141.832 90.9083 141.792 90.7375 141.712C90.5667 141.632 90.416 141.515 90.2965 141.369C90.1771 141.224 90.0919 141.053 90.0473 140.87C90.0028 140.687 89.9999 140.496 90.039 140.312C90.0781 140.127 90.1582 139.954 90.2732 139.805C90.3883 139.656 90.5355 139.534 90.7038 139.45C90.8721 139.365 91.0574 139.319 91.2458 139.316C91.4342 139.312 91.621 139.351 91.7923 139.43C91.9807 139.427 92.1672 139.468 92.338 139.547C92.5088 139.627 92.6595 139.744 92.779 139.89C92.8984 140.035 92.9836 140.206 93.0282 140.389C93.0728 140.572 93.0756 140.763 93.0365 140.948C92.9974 141.132 92.9174 141.305 92.8023 141.454C92.6872 141.604 92.5401 141.725 92.3717 141.81C92.2034 141.894 92.0182 141.94 91.8297 141.944C91.6413 141.947 91.4545 141.908 91.2832 141.83Z" fill="#F8FDFF"/>
<path d="M90.7742 144.23C90.5551 144.136 90.3674 143.981 90.233 143.784C90.0985 143.587 90.0229 143.356 90.015 143.117C90.007 142.879 90.0671 142.643 90.1881 142.438C90.3091 142.232 90.4861 142.065 90.6984 141.957C90.9107 141.848 91.1496 141.802 91.3871 141.824C91.6246 141.846 91.851 141.935 92.0398 142.081C92.2286 142.226 92.372 142.423 92.4533 142.647C92.5345 142.871 92.5503 143.114 92.4988 143.347C92.3802 143.688 92.1347 143.97 91.8135 144.134C91.4923 144.299 91.1201 144.333 90.7742 144.23Z" fill="#F8FDFF"/>
<path d="M90.7744 144.23H69.3411L65.7775 127.545C64.3126 120.656 69.1852 114.038 76.1669 114.038H83.9901C90.951 114.038 95.8236 120.625 94.3795 127.545L90.7744 144.23Z" fill="#F8FDFF"/>
<path d="M61.5175 76.7197C61.5175 64.5018 64.2603 51.7852 80.0521 51.7852C95.844 51.7852 98.5972 64.4706 98.5972 76.7197C98.5972 88.9688 90.2857 95.0882 80.0521 95.0882C69.8186 95.0882 61.5175 88.9273 61.5175 76.7197Z" fill="#061725"/>
<path d="M95.231 75.701C96.7663 71.3896 96.7406 66.6762 95.1583 62.3818C94.2659 59.7319 92.5609 57.4307 90.2857 55.8053C87.3546 53.8673 83.8971 52.8805 80.3846 52.9794C74.0678 52.9794 68.0108 55.6183 65.6108 62.3818C64.1737 66.6981 64.1264 71.3565 65.4758 75.701H95.231Z" fill="#061725"/>
<path d="M77.4447 48.7301C78.7234 50.1562 79.4974 51.9633 79.6473 53.8728C77.7425 53.7162 75.9408 52.9429 74.5149 51.6703C73.2278 50.2291 72.4534 48.4027 72.3124 46.4756C74.2247 46.6415 76.0289 47.434 77.4447 48.7301Z" fill="#061725"/>
<path d="M77.6521 50.6322C78.5442 51.5553 79.2248 52.6614 79.6468 53.8737C78.4377 53.4464 77.3354 52.7623 76.4157 51.8686C76.1664 51.6138 75.9339 51.3431 75.7196 51.0582C75.6009 50.9042 75.5422 50.7123 75.5547 50.5182C75.5671 50.3242 75.6499 50.1413 75.7874 50.0038C75.9248 49.8663 76.1077 49.7836 76.3018 49.7712C76.4958 49.7587 76.6877 49.8174 76.8417 49.9361C77.1245 50.153 77.395 50.3854 77.6521 50.6322Z" fill="#061725"/>
<path d="M82.6598 48.7301C81.3864 50.1595 80.6132 51.9648 80.4573 53.8728C82.3835 53.728 84.2087 52.9541 85.652 51.6703C86.9345 50.2262 87.7082 48.4014 87.8545 46.4756C85.9205 46.6288 84.0927 47.4221 82.6598 48.7301Z" fill="#061725"/>
<path d="M82.4624 50.6312C81.565 51.552 80.8805 52.6585 80.4573 53.8727C81.6664 53.4454 82.7687 52.7613 83.6884 51.8675C83.941 51.6128 84.1769 51.3421 84.3949 51.0571C84.5233 50.9033 84.5894 50.7069 84.5799 50.5067C84.5705 50.3065 84.4863 50.1171 84.3439 49.9761C84.2015 49.835 84.0114 49.7526 83.8111 49.745C83.6109 49.7374 83.4151 49.8052 83.2624 49.9351C82.9809 50.1495 82.7137 50.382 82.4624 50.6312Z" fill="#061725"/>
<path d="M81.122 52.792H78.9714C78.8222 52.792 78.7013 52.9129 78.7013 53.0621V54.1842C78.7013 54.3334 78.8222 54.4543 78.9714 54.4543H81.122C81.2712 54.4543 81.3921 54.3334 81.3921 54.1842V53.0621C81.3921 52.9129 81.2712 52.792 81.122 52.792Z" fill="#061725"/>
<path d="M97.4228 77.3116C96.9968 79.8985 95.0021 82.5063 93.1216 82.2465C91.2411 81.9868 90.1814 78.8284 90.597 76.2726C91.0126 73.7168 92.758 72.6259 94.6384 72.9272C96.5189 73.2285 97.8384 74.7454 97.4228 77.3116Z" fill="#FFB583"/>
<path d="M96.3739 76.9688C96.083 78.735 94.722 80.5427 93.4337 80.3349C92.1454 80.1272 91.4286 77.9869 91.7091 76.1792C91.7241 75.8437 91.8099 75.5153 91.9609 75.2154C92.112 74.9155 92.3247 74.6509 92.5853 74.4392C92.8459 74.2274 93.1483 74.0731 93.4728 73.9866C93.7972 73.9001 94.1363 73.8832 94.4677 73.9371C94.7991 73.991 95.1154 74.1144 95.3957 74.2993C95.676 74.4841 95.914 74.7262 96.0941 75.0096C96.2741 75.293 96.3922 75.6114 96.4404 75.9437C96.4886 76.2759 96.466 76.6147 96.3739 76.9376V76.9688Z" fill="#FC9854"/>
<path d="M62.6911 77.3116C63.1066 79.8986 65.1014 82.5063 66.9819 82.2466C68.8624 81.9869 69.9325 78.7973 69.5065 76.2C69.0805 73.6026 67.3559 72.5533 65.465 72.8546C63.5742 73.1559 62.2651 74.7455 62.6911 77.3116Z" fill="#FFB583"/>
<path d="M63.7405 76.9692C64.021 78.7354 65.3924 80.5432 66.6703 80.3354C67.9482 80.1276 68.6858 77.9874 68.3949 76.1796C68.3855 75.8405 68.3037 75.5073 68.1549 75.2024C68.0062 74.8975 67.794 74.628 67.5325 74.4118C67.271 74.1957 66.9663 74.038 66.6389 73.9493C66.3115 73.8605 65.9689 73.8429 65.6341 73.8974C65.2992 73.952 64.9799 74.0775 64.6976 74.2656C64.4153 74.4537 64.1765 74.7 63.9971 74.9879C63.8178 75.2759 63.7021 75.5989 63.6579 75.9352C63.6136 76.2715 63.6418 76.6135 63.7405 76.938V76.9692Z" fill="#FC9854"/>
<path d="M66.7222 82.9636C67.1927 82.9636 67.5742 82.5822 67.5742 82.1117C67.5742 81.6412 67.1927 81.2598 66.7222 81.2598C66.2517 81.2598 65.8703 81.6412 65.8703 82.1117C65.8703 82.5822 66.2517 82.9636 66.7222 82.9636Z" fill="#F8FDFF"/>
<path d="M93.3817 82.9636C93.8522 82.9636 94.2336 82.5822 94.2336 82.1117C94.2336 81.6412 93.8522 81.2598 93.3817 81.2598C92.9112 81.2598 92.5298 81.6412 92.5298 82.1117C92.5298 82.5822 92.9112 82.9636 93.3817 82.9636Z" fill="#F8FDFF"/>
<path d="M86.5248 102.807C86.5248 105.986 73.59 106.059 73.59 102.807V92.0854H86.5248V102.807Z" fill="#FFB583"/>
<path d="M73.59 92.0854V97.7788C74.7328 94.9321 81.434 99.2749 86.5248 94.3503V92.0854H73.59Z" fill="#FC9854"/>
<path d="M94.3586 74.1947C94.3586 85.062 87.9587 96.3553 80.0524 96.3553C72.146 96.3553 65.7462 85.0828 65.7462 74.1947C65.7462 63.3066 72.1564 57.8418 80.0524 57.8418C87.9483 57.8418 94.3586 63.3378 94.3586 74.1947Z" fill="#FFC69F"/>
<path d="M80.0524 57.8628C72.1564 57.8628 65.7462 63.338 65.7462 74.2157C65.7462 85.0934 72.1564 96.3763 80.0524 96.3763V83.9817L78.7537 83.8882C78.6831 83.8836 78.6143 83.864 78.5518 83.8308C78.4893 83.7975 78.4347 83.7513 78.3914 83.6953C78.3482 83.6393 78.3174 83.5747 78.301 83.5059C78.2846 83.4371 78.2831 83.3655 78.2965 83.296C79.2924 80.3276 79.883 77.2383 80.0524 74.1118V57.8628Z" fill="#FFB583"/>
<path d="M83.8749 73.9664C83.3555 74.2573 83.1477 73.5508 83.5009 73.3431C84.2771 72.8569 85.0982 72.4463 85.9528 72.1171C86.2022 72.0132 86.4827 71.9509 86.7528 71.8678C87.0229 71.7846 87.3138 71.7431 87.6047 71.7119H88.0411H88.467C88.7631 71.7175 89.0583 71.7453 89.3501 71.795C90.3355 71.9612 91.242 72.4381 91.9371 73.156C92.4669 73.7275 92.5708 74.195 92.4773 74.2677C92.3838 74.3404 92.1137 73.956 91.5735 73.5404C90.8915 73.0119 90.081 72.6748 89.2255 72.5638C88.9776 72.5276 88.7278 72.5068 88.4774 72.5015H88.093H87.6982C87.4489 72.5015 87.1891 72.595 86.9398 72.6366C86.6904 72.6781 86.4411 72.7612 86.2022 72.8547C85.3953 73.1564 84.6166 73.5284 83.8749 73.9664Z" fill="#061725"/>
<path d="M76.8833 73.9664C77.4028 74.2573 77.6002 73.5508 77.2469 73.3431C76.4734 72.8587 75.6559 72.4482 74.8054 72.1171C74.5457 72.0132 74.2756 71.9509 74.0054 71.8678C73.7353 71.7846 73.4444 71.7431 73.1431 71.7119H72.7172H72.2808C71.9882 71.7175 71.6965 71.7453 71.4081 71.795C70.4197 71.9612 69.5099 72.4379 68.8107 73.156C68.2913 73.7275 68.177 74.195 68.2809 74.2677C68.3848 74.3404 68.6445 73.956 69.1744 73.5404C69.8602 73.012 70.6741 72.675 71.5328 72.5638C71.7771 72.5276 72.0235 72.5068 72.2704 72.5015H72.6652H73.0496C73.3093 72.5015 73.5587 72.595 73.8184 72.6366C74.0782 72.6781 74.3171 72.7612 74.5457 72.8547C75.3566 73.1545 76.139 73.5266 76.8833 73.9664Z" fill="#061725"/>
<path d="M89.288 57.7907L88.7062 57.3024C87.9431 56.743 87.1209 56.2692 86.2543 55.8895C85.0043 55.36 83.6856 55.0102 82.3375 54.8505C80.6501 54.6526 78.9419 54.7262 77.2778 55.0687C76.3745 55.2584 75.4884 55.5225 74.6285 55.8583C73.7559 56.2158 72.9119 56.6395 72.1039 57.1258C70.502 58.1198 69.0766 59.3732 67.8858 60.8348C67.3111 61.5516 66.7935 62.3123 66.3378 63.1101L66.0365 63.6607C65.9222 63.8893 65.8391 64.0763 65.7456 64.2841C65.6474 64.482 65.5641 64.6869 65.4963 64.8971C65.4127 65.0974 65.3399 65.302 65.2781 65.5101C64.8234 67.0157 64.5992 68.5814 64.6132 70.1541C64.6306 71.4 64.7628 72.6415 65.008 73.8631C65.1647 74.6831 65.387 75.4891 65.6729 76.2735C65.8807 76.8137 66.0365 77.0942 66.1092 77.0838C66.182 77.0735 66.2859 76.5332 66.4417 75.6501L66.6703 75.3696C66.7846 75.2345 66.9092 75.0683 67.0339 74.8917C67.1586 74.7151 67.3248 74.5073 67.4702 74.2891L68.0313 73.5722C68.1871 73.406 68.3326 73.219 68.4988 73.0216C68.5047 73.0664 68.5047 73.1118 68.4988 73.1567C68.3949 73.4268 68.3637 73.593 68.4261 73.6346C68.4884 73.6761 68.6443 73.6346 68.8624 73.3956C69.0806 73.1567 69.1014 73.1774 69.2468 73.0424C69.3923 72.9073 69.5585 72.7411 69.7455 72.5748C70.7123 71.6822 71.7552 70.8757 72.8623 70.1645C72.6026 70.3619 72.3429 70.5489 72.1247 70.7255C71.1689 71.4632 70.6286 71.9619 70.7014 72.0865C70.7741 72.2112 71.4909 71.9411 72.5818 71.4112C73.3506 71.0476 74.3169 70.5593 75.3974 69.9775L75.3142 70.0398C74.4311 70.6424 73.9117 71.0788 73.9844 71.1827C74.0571 71.2866 74.7013 71.1827 75.7194 70.7671C76.8662 70.322 77.9897 69.8192 79.0856 69.2606L78.7947 69.5204C78.1506 70.0918 77.7558 70.4866 77.87 70.5593C77.9843 70.632 78.4726 70.5593 79.2726 70.1437C80.3198 69.6541 81.3333 69.0953 82.3063 68.471C83.5556 67.6838 84.7217 66.7718 85.7868 65.749C86.79 64.7761 87.6567 63.6717 88.3633 62.466L88.6127 61.9984C88.6127 62.2582 88.6958 62.5387 88.7477 62.8296C89.12 64.357 89.6783 65.8329 90.41 67.2243C91.1685 68.71 92.0204 70.1333 92.6438 71.4528C92.7996 71.7749 92.9658 72.0969 93.0801 72.4086C93.1944 72.7203 93.3502 73.032 93.4334 73.3229L93.7243 74.154C93.7866 74.4138 93.8593 74.6631 93.9217 74.8917L94.0152 75.2138L94.0775 75.515C94.1294 75.7021 94.171 75.8683 94.2126 75.993C94.2304 76.0691 94.2583 76.1425 94.2957 76.2111C94.2957 76.4605 94.2957 76.6163 94.3788 76.6371C94.4619 76.6579 94.5658 76.5124 94.7216 76.2423C94.8149 76.0778 94.8982 75.9078 94.971 75.7332C95.0645 75.5358 95.1476 75.2969 95.2515 75.0267C95.4495 74.4131 95.6125 73.7887 95.7398 73.1567C96.5502 67.962 95.0022 59.3491 89.288 57.7907Z" fill="#061725"/>
<path d="M81.8701 86.6621C81.3644 86.7188 80.8641 86.8161 80.374 86.953C79.8874 86.816 79.3906 86.7188 78.8883 86.6621C77.1325 86.7348 75.4079 87.192 74.639 86.9946C76.987 88.9893 77.0182 90.6516 80.374 90.6516C83.7298 90.6516 84.0311 88.4491 86.1089 86.9946C85.6934 87.2751 83.6259 86.7348 81.8701 86.6621Z" fill="#061725"/>
<path d="M80.3743 87.7006C78.7634 87.6957 77.1552 87.5671 75.564 87.3162C76.9907 88.265 78.666 88.7712 80.3795 88.7712C82.0929 88.7712 83.7682 88.265 85.1949 87.3162C83.6002 87.5668 81.9886 87.6953 80.3743 87.7006Z" fill="#F8FDFF"/>
<path d="M87.2621 77.8627C88.1228 77.8627 88.8205 77.2114 88.8205 76.4081C88.8205 75.6048 88.1228 74.9536 87.2621 74.9536C86.4014 74.9536 85.7037 75.6048 85.7037 76.4081C85.7037 77.2114 86.4014 77.8627 87.2621 77.8627Z" fill="#061725"/>
<path d="M88.4049 76.8753C88.4049 76.9335 88.3933 76.9911 88.3707 77.0447C88.3481 77.0984 88.3151 77.1469 88.2734 77.1876C88.2318 77.2283 88.1825 77.2602 88.1283 77.2815C88.0742 77.3028 88.0163 77.3131 87.9581 77.3117C87.8452 77.3117 87.7368 77.2668 87.6569 77.1869C87.577 77.107 87.5322 76.9987 87.5322 76.8857C87.5322 76.7727 87.577 76.6644 87.6569 76.5845C87.7368 76.5046 87.8452 76.4597 87.9581 76.4597C88.0149 76.457 88.0717 76.4656 88.1251 76.4851C88.1785 76.5046 88.2275 76.5346 88.2692 76.5733C88.3108 76.612 88.3443 76.6587 88.3676 76.7106C88.3909 76.7625 88.4036 76.8185 88.4049 76.8753Z" fill="#F8FDFF"/>
<path d="M85.0492 76.2106C84.7167 76.4808 84.5297 75.9925 84.7687 75.7847C85.1392 75.4091 85.5859 75.1173 86.0788 74.9291C86.5717 74.741 87.0992 74.6607 87.6257 74.6938C88.4773 75.0168 89.3098 75.388 90.1192 75.8055L90.4932 75.8574C90.7365 75.8395 90.977 75.7942 91.2101 75.7223C91.223 75.7159 91.2372 75.7126 91.2516 75.7126C91.2661 75.7126 91.2803 75.7159 91.2932 75.7223C91.3005 75.735 91.3043 75.7493 91.3043 75.7639C91.3043 75.7785 91.3005 75.7928 91.2932 75.8055C91.2607 75.8641 91.2186 75.9168 91.1685 75.9613C91.0008 76.1058 90.7954 76.1995 90.5763 76.2314C89.5374 76.3665 88.6543 75.5145 87.6673 75.2548C87.1813 75.1819 86.6846 75.2467 86.2336 75.4418C85.816 75.6416 85.4251 75.8929 85.07 76.1899L85.0492 76.2106Z" fill="#061725"/>
<path d="M72.8311 77.8627C73.6918 77.8627 74.3895 77.2114 74.3895 76.4081C74.3895 75.6048 73.6918 74.9536 72.8311 74.9536C71.9704 74.9536 71.2727 75.6048 71.2727 76.4081C71.2727 77.2114 71.9704 77.8627 72.8311 77.8627Z" fill="#061725"/>
<path d="M73.974 76.8759C73.9714 76.9881 73.9256 77.0949 73.8463 77.1742C73.767 77.2535 73.6602 77.2992 73.548 77.3019C73.4351 77.3019 73.3267 77.257 73.2468 77.1771C73.1669 77.0972 73.1221 76.9889 73.1221 76.8759C73.1221 76.7629 73.1669 76.6546 73.2468 76.5747C73.3267 76.4948 73.4351 76.45 73.548 76.45C73.661 76.45 73.7694 76.4948 73.8492 76.5747C73.9291 76.6546 73.974 76.7629 73.974 76.8759Z" fill="#F8FDFF"/>
<path d="M75.0549 76.2104C75.3873 76.4805 75.5743 75.9922 75.3458 75.7844C74.9748 75.4094 74.528 75.118 74.0352 74.9298C73.5425 74.7417 73.0151 74.6611 72.4887 74.6935C71.6355 75.0127 70.8028 75.3839 69.9952 75.8052L69.6212 75.8571C69.378 75.8383 69.1377 75.793 68.9043 75.7221C68.8912 75.7163 68.8771 75.7134 68.8628 75.7134C68.8485 75.7134 68.8343 75.7163 68.8212 75.7221C68.8148 75.735 68.8115 75.7492 68.8115 75.7636C68.8115 75.778 68.8148 75.7923 68.8212 75.8052C68.8533 75.8612 68.8917 75.9135 68.9355 75.961C69.1073 76.1054 69.316 76.199 69.5381 76.2311C70.577 76.3662 71.4497 75.5143 72.4471 75.2545C72.9331 75.1811 73.43 75.2459 73.8808 75.4416C74.2984 75.6414 74.6893 75.8927 75.0445 76.1896L75.0549 76.2104Z" fill="#061725"/>
</g>
</g>
<defs>
<clipPath id="clip0_15_4">
<rect width="160" height="160" rx="80" fill="white"/>
</clipPath>
<clipPath id="clip1_15_4">
<rect width="125.774" height="116.32" fill="white" transform="translate(18.5366 46.5278)"/>
</clipPath>
</defs>
</svg>
