<svg width="160" height="161" viewBox="0 0 160 161" fill="none" xmlns="http://www.w3.org/2000/svg">
<g clip-path="url(#clip0_15_117)">
<rect y="0.990234" width="160" height="160" rx="80" fill="#F8FDFF"/>
<g clip-path="url(#clip1_15_117)">
<path d="M43.1903 113.738L70.6191 106.449C71.7706 105.424 71.2985 103.668 71.4194 101.336L76.3133 62.7377C76.4005 61.1384 75.9256 59.559 74.9708 58.273C74.016 56.987 72.6416 56.0755 71.0855 55.6962C64.8328 54.182 54.1814 52.5123 43.9849 55.1205C33.6904 57.7689 24.2078 64.5167 18.8648 68.8809C17.5839 69.9339 16.7244 71.4124 16.4432 73.0466C16.1621 74.6807 16.478 76.3615 17.3334 77.782L40.254 109.823C41.4631 111.815 41.797 113.433 43.1903 113.738Z" fill="#061725"/>
<path d="M86.74 167.852L76.7737 130.428L71.3559 110.093L69.669 110.542L75.0868 130.877L52.5346 136.888L47.111 116.541L45.4241 116.99L50.8477 137.337L60.8139 174.761C61.7121 178.118 68.2987 179.309 75.4092 177.409C82.5197 175.509 87.6382 171.209 86.74 167.852Z" fill="#061725"/>
<path d="M90.0907 94.0986V168.371C90.0907 172.902 91.8986 176.61 94.121 176.61H99.8036C102.009 176.61 103.834 172.902 103.834 168.371V94.0986H90.0907Z" fill="#061725"/>
<path d="M102.447 76.0601V92.9238H91.4443V76.0601H90.2986V95.2786H103.598V76.0601H102.447Z" fill="#061725"/>
<path d="M93.1941 75.3227H100.719C101.582 75.2806 102.404 74.9411 103.045 74.3617C103.687 73.7824 104.108 72.999 104.237 72.1446L108.567 50.646C108.758 49.7852 108.681 48.8863 108.345 48.0708C108.01 47.2553 107.432 46.5625 106.69 46.0861C103.734 44.3415 100.374 43.3988 96.9422 43.3513C93.5718 43.3223 90.2581 44.2184 87.3617 45.9421C86.6297 46.4166 86.0592 47.1024 85.7261 47.9086C85.3929 48.7148 85.3128 49.6032 85.4963 50.456L89.6762 72.1043C89.7959 72.9665 90.2128 73.7599 90.8551 74.3475C91.4973 74.9351 92.3246 75.28 93.1941 75.3227Z" fill="#061725"/>
<path d="M121.705 103.858C121.677 103.961 121.642 104.065 121.619 104.174L107.093 169.447C106.362 172.729 108.244 175.959 111.227 176.627L116.167 177.726C119.172 178.394 122.224 176.258 122.955 172.977L137.487 107.704C137.487 107.594 137.521 107.491 137.544 107.381L121.705 103.858Z" fill="#061725"/>
<path d="M138.092 98.0021L135.276 110.64L122.425 107.784L125.241 95.1406L123.68 94.7952L120.485 109.137L136.456 112.695L139.652 98.3475L138.092 98.0021Z" fill="#061725"/>
<path d="M126.162 94.1156L137.194 96.5683C137.501 96.623 137.817 96.6165 138.122 96.5491C138.427 96.4818 138.716 96.3549 138.973 96.1758C139.229 95.9966 139.447 95.7687 139.615 95.5051C139.783 95.2415 139.897 94.9474 139.952 94.6396L143.176 80.1537C143.59 78.294 142.024 76.6992 140.297 77.3152L127.746 81.7773C127.349 81.9285 126.996 82.177 126.721 82.4999C126.445 82.8228 126.255 83.2099 126.168 83.6255L124.441 91.1908C124.36 91.4959 124.34 91.8142 124.383 92.127C124.425 92.4399 124.53 92.7411 124.69 93.0132C124.85 93.2853 125.063 93.5229 125.316 93.7122C125.568 93.9014 125.856 94.0386 126.162 94.1156Z" fill="#061725"/>
</g>
</g>
<defs>
<clipPath id="clip0_15_117">
<rect y="0.990234" width="160" height="160" rx="80" fill="white"/>
</clipPath>
<clipPath id="clip1_15_117">
<rect width="132.066" height="164.74" fill="white" transform="translate(16.337 43.3516)"/>
</clipPath>
</defs>
</svg>
