<svg width="161" height="161" viewBox="0 0 161 161" fill="none" xmlns="http://www.w3.org/2000/svg">
<g clip-path="url(#clip0_15_374)">
<rect x="0.5" y="0.990234" width="160" height="160" rx="80" fill="#F8FDFF"/>
<g clip-path="url(#clip1_15_374)">
<path d="M113.497 143.25C133.076 123.671 133.076 91.9261 113.497 72.3468C93.9175 52.7674 62.1731 52.7674 42.5937 72.3468C23.0144 91.9261 23.0144 123.671 42.5937 143.25C62.1731 162.829 93.9175 162.829 113.497 143.25Z" fill="#BBC1C7"/>
<path fill-rule="evenodd" clip-rule="evenodd" d="M66.1199 55.0774C64.4575 53.9854 62.9488 52.6757 61.6339 51.1834C59.6129 48.7903 58.4291 46.1097 58.6447 42.8922C58.9576 38.2752 63.1476 34.1275 67.6124 34.3177C68.9653 34.3769 69.6207 34.0218 70.424 33.0028C72.3605 30.5336 75.1171 29.2695 78.1106 28.5422C82.4359 27.4979 86.6639 27.6121 90.7567 29.4851C92.184 30.097 93.4708 30.995 94.5376 32.1236C95.6044 33.2522 96.4285 34.5875 96.9592 36.047C97.1072 36.4698 97.2129 36.6474 97.7414 36.4698C103.314 34.7405 109.419 38.4697 110.489 44.2325C110.949 46.6192 110.618 49.0906 109.546 51.2722C109.254 51.881 109.267 52.1474 109.863 52.6421C110.612 53.2584 111.225 54.0241 111.662 54.8904C112.099 55.7567 112.35 56.7045 112.4 57.6734C112.666 61.0855 111.622 64.0155 108.912 66.1633C106.375 68.1632 103.559 68.0364 100.693 66.9455C100.198 66.7595 99.737 66.4847 99.255 66.2648C99.0944 66.1929 98.9125 65.9477 98.735 66.2225C98.4727 66.5273 98.273 66.8807 98.1473 67.2626C98.1473 67.2965 98.3375 67.4064 98.4517 67.4317C100.934 67.9814 102.21 70.7508 101.175 73.4736C100.54 75.1395 99.3142 76.2937 97.8259 77.1901C96.8855 77.7405 95.8817 78.1749 94.8367 78.4838C94.2433 78.7208 93.5893 78.7594 92.9722 78.5938C92.6001 78.4669 92.4352 78.56 92.3802 78.9785C92.2576 79.9341 92.1012 80.8854 91.9278 81.8325C91.8602 82.1876 91.9701 82.306 92.3126 82.4032C93.192 82.6485 94.0461 82.974 94.9213 83.2192C95.1808 83.2757 95.4149 83.4152 95.5881 83.6166C95.7613 83.818 95.8641 84.0704 95.881 84.3355C96.1432 85.9083 96.4814 87.4727 96.7266 89.0455C96.7375 89.2179 96.8086 89.3811 96.9277 89.5063C97.0467 89.6316 97.2061 89.7109 97.3778 89.7304C101.893 90.9988 106.396 92.2673 110.907 93.5103C111.35 93.6117 111.764 93.8104 112.121 94.0919C112.477 94.3735 112.766 94.7309 112.967 95.1381C113.699 96.6388 114.342 98.182 114.89 99.7593C116.231 103.311 117.406 106.947 119.148 110.329C119.485 110.981 119.861 111.612 120.273 112.219C120.551 112.677 120.957 113.044 121.44 113.276C123.241 114.071 124.399 115.348 124.289 117.428C124.175 119.627 124.83 121.601 125.786 123.538C126.302 124.574 126.632 125.711 127.054 126.785C128.509 130.315 127.807 133.668 126.124 136.877C124.323 140.315 121.44 142.695 118.167 144.648C115.369 146.298 112.39 147.617 109.288 148.581C109.042 148.621 108.816 148.742 108.646 148.925C108.476 149.108 108.372 149.342 108.35 149.591C108.344 149.642 108.334 149.693 108.32 149.743C107.474 152.749 107.474 152.766 104.43 153.481C102.557 153.904 100.688 154.394 98.8068 154.813C96.6928 155.278 98.7054 161.311 97.8725 162.347C97.7414 162.512 96.7478 157.73 96.473 157.827C91.1668 159.713 85.7972 161.768 79.8441 161.768C71.3881 161.78 63.0642 159.67 55.6343 155.633C55.4525 155.531 55.3553 157.062 55.1735 156.96C54.9917 156.859 54.7972 155.168 54.6534 155.083C52.444 153.818 50.3325 152.389 48.3367 150.809C48.0027 150.542 46.7005 154.047 46.3749 153.768C46.8992 148.796 48.0662 144.276 48.7722 139.359C48.9019 138.453 48.8718 137.532 48.6834 136.636C48.1761 134.125 48.6158 131.685 49.1062 129.241C49.25 128.497 49.3811 127.749 49.5502 126.815C48.3325 128.138 47.2797 129.351 46.1339 130.497C42.9745 133.588 39.3058 136.111 35.289 137.955C33.3949 138.843 31.6614 138.602 30.0336 137.304C26.8916 134.83 24.342 131.686 22.5711 128.1C21.6832 126.299 21.8692 124.455 22.2878 122.603C22.8129 120.411 23.58 118.284 24.5752 116.261C24.6568 116.127 24.6946 115.97 24.6832 115.814C24.6719 115.657 24.6119 115.507 24.5117 115.386C23.688 114.256 23.0986 112.972 22.7782 111.611C22.6335 110.885 22.7409 110.132 23.0827 109.475C23.851 108.017 24.7377 106.624 25.7336 105.311L26.2495 104.596C24.3088 104.262 22.4189 103.975 20.5416 103.607C16.5799 102.829 12.6901 101.81 9.12591 99.8439C7.8774 99.2131 6.76651 98.3408 5.85763 97.2775C4.61459 95.7173 4.69493 94.1191 6.10709 92.7154C7.51926 91.3117 9.27812 90.6521 11.0877 90.0475C12.702 89.5199 14.3563 89.124 16.0345 88.8637C16.2049 88.8471 16.3671 88.7827 16.5024 88.678C16.6378 88.5733 16.7409 88.4325 16.7998 88.2718C17.7088 86.3184 18.7574 84.4369 19.7594 82.5385C20.614 80.9656 21.9805 79.7319 23.6323 79.0419C26.8287 77.5833 30.2281 76.9279 33.6824 76.4798C34.7394 76.3445 35.7964 76.2684 36.8661 76.2007C37.217 76.1796 37.3142 76.0865 37.3354 75.7145C37.4834 73.444 39.1069 71.9811 41.221 72.1756C43.2081 72.3616 44.6034 74.1543 44.3201 76.2937C44.2567 76.818 44.4596 76.9195 44.8909 77.0125C48.0972 77.6639 51.1817 78.8138 54.0319 80.4203C55.3231 81.18 56.5342 82.0681 57.6469 83.0713C59.0481 84.3388 60.0315 86.0019 60.467 87.8405C60.5981 88.3563 60.801 88.851 60.9152 89.371C60.9913 89.7177 61.1646 89.7643 61.4564 89.7008L64.9487 88.944C65.1939 88.8933 65.4053 88.796 65.2827 88.4874C65.0798 87.9716 65.4096 87.7602 65.7647 87.5192C66.475 87.0329 67.1642 86.5129 67.8787 86.0182C68.1451 85.8322 68.1916 85.6842 68.0394 85.3502C66.0099 80.8008 64.8599 76.002 64.175 71.089C63.9213 69.254 64.4752 67.4613 64.805 65.6687C64.8905 65.2484 64.876 64.8139 64.7627 64.4002C64.3906 63.0304 64.0904 61.6436 63.786 60.261C63.3632 58.3964 64.0016 56.9885 65.3631 55.792C65.6125 55.5679 65.8451 55.3184 66.1199 55.0774Z" fill="#061725"/>
<path fill-rule="evenodd" clip-rule="evenodd" d="M73.4723 104.939C74.4719 106.87 75.7434 108.647 77.248 110.216C78.2434 111.238 79.4811 111.991 80.846 112.406C83.1334 113.083 84.6175 114.097 86.8541 114.897C86.9839 114.934 87.0977 115.013 87.178 115.121C87.2583 115.23 87.3005 115.362 87.298 115.497C87.5475 117.509 87.5559 117.505 85.6068 118.127C83.9156 118.664 82.9262 119.247 81.2266 119.75C80.8168 119.849 80.4497 120.077 80.1794 120.401C79.9092 120.725 79.7501 121.126 79.7256 121.547C79.6183 122.098 79.6335 122.666 79.7702 123.21C79.9068 123.755 80.1615 124.262 80.5162 124.697C80.5978 124.786 80.65 124.898 80.6659 125.017C80.6818 125.137 80.6605 125.258 80.605 125.365C80.1822 126.748 80.4148 127.987 81.5733 128.934C81.6731 129.003 81.7464 129.105 81.781 129.222C81.8155 129.338 81.8094 129.463 81.7635 129.576C81.6532 129.971 81.6662 130.39 81.8007 130.777C81.9352 131.164 82.1849 131.5 82.5161 131.741C82.7909 131.952 82.9389 132.164 82.774 132.506C82.7487 132.604 82.7388 132.706 82.7444 132.807C82.495 135.593 82.9643 136.303 85.6322 137.056C86.391 137.258 87.1602 137.419 87.9365 137.538C88.7144 137.669 89.4163 137.538 89.8137 136.751C89.8687 136.646 89.9279 136.502 90.0801 136.515C91.0271 136.578 91.932 136.265 92.8664 136.223C93.4287 136.197 93.3737 136.599 93.4033 136.937C92.8241 141.242 93.9065 144.971 93.7881 147.55C93.6274 151.177 90.968 153.08 90.245 156.649C90.2111 156.826 93.564 151.748 94.4476 152.167C95.4201 152.632 96.5617 156.999 96.5194 157.194C96.3249 158.001 95.5004 158.856 94.4054 159.659C87.9829 161.568 81.2464 162.191 74.5828 161.49C67.9192 160.789 61.4597 158.779 55.575 155.575C55.7442 152.07 55.9133 148.56 56.1035 145.055C56.2388 142.442 56.7251 139.867 57.0633 137.28C57.7779 131.821 58.5347 126.367 59.2704 120.913C59.634 118.249 60.006 115.586 60.3316 112.918C60.3992 112.377 60.691 112.415 61.0588 112.415C63.4265 112.415 65.7097 112.081 67.7772 110.829C69.9292 109.531 71.557 107.7 72.9777 105.667L73.4723 104.939Z" fill="#061725"/>
<path fill-rule="evenodd" clip-rule="evenodd" d="M109.83 95.0887C107.035 97.8115 105.923 99.3167 105.445 101.19L106.498 99.7987C107.525 98.3155 108.755 96.9835 110.151 95.8412C110.997 95.2155 111.035 95.2155 111.504 96.1753C112.443 98.0863 113.119 100.107 113.863 102.095C115.178 105.625 116.4 109.202 118.307 112.483C117.343 112.111 116.759 111.409 114.599 108.103C114.953 109.642 115.698 111.063 116.764 112.229C117.842 113.43 119.254 114.14 120.653 114.838C121.88 115.455 122.624 116.212 122.56 117.709C122.487 118.927 122.592 120.149 122.873 121.336C123.528 123.844 123.533 126.503 124.649 128.9C124.701 129.088 124.73 129.281 124.733 129.475C124.926 128.657 124.906 127.802 124.674 126.993C124.485 126.201 124.365 125.393 124.315 124.579C124.627 125.232 124.884 125.909 125.084 126.604C125.417 128.223 125.577 129.873 125.562 131.526C125.562 134.025 124.425 136.071 122.772 137.847C119.993 140.946 116.364 143.159 112.337 144.21C111.271 144.481 111.111 144.565 110.011 144.337C109.453 144.218 109.221 144.015 109.255 143.385C109.462 139.508 108.582 135.627 108.231 131.75C108.015 129.656 107.459 127.611 106.587 125.695C106.485 125.467 106.396 125.235 106.282 124.96C108.22 124.807 110.145 124.524 112.045 124.114C115.428 123.518 118.332 124.647 120.962 126.693L121.385 127.057C121.136 126.419 120.734 125.853 120.214 125.408C119.473 124.788 118.638 124.29 117.74 123.932C117.582 123.891 117.44 123.799 117.338 123.671C117.235 123.543 117.176 123.386 117.169 123.222C117.186 122.735 117.36 122.266 117.665 121.885C117.969 121.504 118.389 121.231 118.861 121.108C119.621 121.013 120.387 120.979 121.152 121.006C120.695 120.662 120.125 120.501 119.554 120.554C117.804 120.47 116.248 121.121 114.671 121.793C112.417 122.777 109.873 122.868 107.555 122.047C106.473 121.675 105.762 120.833 105.141 119.933C101.796 115.049 101.416 109.883 103.648 104.462C103.699 104.348 103.745 104.23 103.8 104.116C103.855 104.001 103.995 103.836 103.8 103.722C103.606 103.608 103.551 103.815 103.479 103.917C101.548 106.589 100.159 109.614 99.3905 112.821C99.2975 113.21 99.2299 113.599 99.1157 113.984C99.0861 111.87 98.9424 109.79 99.8599 107.764C99.251 108.09 99.0143 108.61 98.8916 109.591C98.859 110.318 98.7296 111.037 98.5069 111.73C98.3927 110.711 98.2913 109.777 98.1856 108.838C97.7218 111.178 97.5612 113.569 97.7078 115.95C97.8008 117.662 97.6486 118.52 96.6592 119.924C96.3648 119.622 96.1283 119.268 95.9616 118.88C95.1752 117.375 94.6171 116.394 93.911 114.85C93.243 113.383 92.6426 111.971 92.9935 110.398C93.1373 109.747 93.4163 108.931 92.7948 108.47C92.1733 108.01 91.3784 108.47 90.7315 108.804C90.0635 109.138 89.4817 109.621 89.0314 110.217C88.581 110.812 88.2744 111.504 88.1355 112.238C87.7201 110.596 87.2062 108.981 86.5965 107.401C86.0525 106.032 85.3425 104.736 84.4824 103.54C83.7764 102.581 84.2119 100.179 85.2266 99.3717C86.2281 98.6347 87.2776 97.9651 88.368 97.3676C90.5286 96.0992 92.7398 94.8984 94.7481 93.3805C95.4256 92.9361 96.0077 92.3612 96.4605 91.6893C96.4773 91.6425 96.5034 91.5997 96.5373 91.5634C96.5713 91.5271 96.6123 91.4982 96.6579 91.4784C96.7034 91.4586 96.7526 91.4483 96.8022 91.4482C96.8519 91.4482 96.9011 91.4583 96.9467 91.4779C101.234 92.6787 105.528 93.8823 109.83 95.0887Z" fill="#061725"/>
<path fill-rule="evenodd" clip-rule="evenodd" d="M89.5431 78.7219C86.9598 80.9374 84.4399 83.2205 81.6959 85.2331C80.8503 85.8461 79.9666 86.3916 79.1041 86.9708C76.4785 88.7297 72.0602 87.9263 69.9377 85.7912C69.257 85.1062 68.9441 84.2014 68.6186 83.3305C67.1855 79.4803 66.1568 75.4915 65.549 71.4285C65.3207 69.9022 65.6293 68.4012 65.9464 66.9045C66.5299 64.1225 66.7286 61.2855 67.0457 58.4484C67.1345 57.6451 67.3417 56.8545 67.4685 56.0511C67.4804 55.86 67.5595 55.6791 67.6918 55.5407C67.8241 55.4022 68.0011 55.3149 68.1915 55.2943C74.6012 54.1485 80.9095 54.1612 86.981 56.9263C88.521 57.6425 89.9903 58.5018 91.3697 59.4928C91.5383 59.5882 91.6672 59.7409 91.7331 59.9231C91.799 60.1053 91.7976 60.3051 91.7291 60.4864C90.9914 63.9943 90.8939 67.6068 91.4415 71.1495C91.6149 72.2234 91.8221 72.253 92.655 71.5723C93.5894 70.7816 94.2701 69.75 95.1622 68.9171C95.4201 68.6761 95.6992 68.4562 95.9698 68.2237C96.2404 67.9911 96.3926 67.9277 96.5659 68.3294C96.6323 68.4546 96.7372 68.5551 96.8651 68.616C96.9931 68.6769 97.1372 68.695 97.2762 68.6676C99.2338 68.5196 100.701 70.4138 100.012 72.6969C99.6255 73.8624 98.8681 74.8692 97.8555 75.5635C96.7021 76.3972 95.3985 77.0002 94.0164 77.3393C93.416 77.5042 92.8833 77.2336 92.3717 76.9165C91.7037 76.4937 91.2048 76.7347 91.1709 77.5084C91.0779 79.8254 90.4437 82.062 90.1689 84.3536C90.059 85.2753 89.8137 86.1928 90.004 87.1399C90.059 87.3978 89.8264 87.5627 89.6911 87.7149C88.4927 89.1427 87.096 90.3913 85.5434 91.4229C86.964 88.7804 87.8308 85.9265 88.6468 83.0768C88.3065 83.49 88.0624 83.9738 87.9323 84.4932C87.0232 86.827 86.1903 89.1947 84.8077 91.3172C84.2502 92.2287 83.4761 92.9883 82.5542 93.5285C81.7086 93.9978 80.8883 94.4967 80.0977 95.0463C78.8504 95.9131 77.4425 96.0907 75.9289 96.1837C76.0219 95.5072 76.3517 94.9153 76.1572 94.1881C75.6921 94.4629 75.6836 94.9872 75.4342 95.355C75.2608 95.6045 75.4003 96.1203 74.9437 96.0991C74.4871 96.078 73.8825 96.0188 73.6542 95.5706C72.8297 93.9682 71.7008 92.4672 71.7515 90.497C72.0137 90.4505 72.1363 90.6703 72.3012 90.7887C73.3905 91.5849 74.6422 92.1306 75.9669 92.3869C76.413 92.4902 76.8769 92.4886 77.3222 92.3822C77.7675 92.2758 78.1821 92.0676 78.5333 91.7738C82.9347 88.0969 86.6606 83.68 89.5431 78.7219Z" fill="#EDCBAA"/>
<path fill-rule="evenodd" clip-rule="evenodd" d="M68.5849 64.3333C69.0965 65.3311 68.9569 65.3903 69.7264 65.6017C70.4959 65.8131 73.5571 65.5721 73.5571 65.5721C73.5571 65.5721 74.1025 65.2592 74.0433 65.0563C73.9841 64.8533 73.1977 63.513 73.1977 63.513L69.5404 63.4285C69.2406 63.7492 68.9215 64.0513 68.5849 64.3333Z" fill="#061725"/>
<path fill-rule="evenodd" clip-rule="evenodd" d="M80.7024 65.1028C81.0906 65.6893 81.6355 66.1551 82.2753 66.4473L85.8649 66.4727L87.3066 65.6482C87.3066 65.6482 86.0763 64.4728 85.4209 64.2149C84.7656 63.957 82.0765 63.847 81.7341 63.902C81.3916 63.957 80.7024 65.1028 80.7024 65.1028Z" fill="#061725"/>
<path fill-rule="evenodd" clip-rule="evenodd" d="M108.142 59.97C106.501 60.7648 105.258 60.2067 104.197 59.0313C102.616 57.2767 101.791 55.1204 101.034 52.9345C100.583 51.5856 100.214 50.2103 99.9309 48.8164C99.6166 49.3548 99.2437 49.8567 98.819 50.3131C98.1171 50.922 97.4533 50.8797 96.836 50.1778C96.0623 49.2984 96.1426 48.2752 96.3329 47.2182C96.557 45.9498 96.4555 45.8526 95.2209 46.1105C93.2168 46.5333 91.31 46.1105 89.3608 45.6877C85.0947 44.7321 83.1456 41.8401 82.4311 37.8108C82.3423 37.3246 82.2619 36.8299 82.152 36.1703C81.0079 38.0974 80.0305 40.1187 79.2304 42.2122C78.9214 43.0206 78.4017 43.7315 77.7253 44.2713C76.8247 45.0069 75.7423 44.656 74.6007 44.9478C75.903 43.4426 76.3723 41.7556 76.8289 40.0052C76.4061 40.0559 76.4061 40.3603 76.3046 40.5717C75.2857 43.1086 73.3069 44.618 70.7743 45.2522C69.3072 45.62 67.8147 45.045 66.5844 44.0979C65.7903 43.4229 65.1044 42.6301 64.5507 41.7471L64.0433 41.0114C64.0053 42.3095 65.2694 44.5419 66.8254 46.0259C65.3286 46.1274 63.8657 45.1803 62.7242 43.3157C61.0329 47.1548 62.9144 49.9326 65.3202 52.7189C61.35 49.8903 59.0458 45.5608 60.3184 41.3581C61.3035 38.1068 64.5253 35.5446 67.6625 35.608C67.7893 35.608 67.9162 35.608 68.043 35.608C69.1085 35.7137 69.1085 35.7137 69.0113 36.758C68.8337 38.7537 68.9732 39.5781 69.6539 40.5379C69.8146 40.5379 69.7892 40.4026 69.7765 40.3223C69.2015 36.517 70.656 33.6251 73.9158 31.7436C79.1924 28.6994 84.7269 28.302 90.3291 30.7627C91.7833 31.3658 93.0662 32.3184 94.0641 33.5361C95.0619 34.7537 95.7439 36.1988 96.0496 37.7432C96.2299 38.8209 96.2499 39.9194 96.1088 41.003C96.1088 41.1763 96.0031 41.4258 96.2145 41.4723C96.5274 41.5695 96.502 41.2355 96.5485 41.0833C96.795 40.389 96.9278 39.6594 96.9417 38.9228C96.9195 38.6855 96.9865 38.4484 97.1295 38.2577C97.2725 38.067 97.4814 37.9363 97.7154 37.8912C100.95 36.7454 103.838 37.4684 106.341 39.6585C109.964 42.8506 110.146 47.5099 107.913 51.5942C107.736 51.9198 107.52 51.9156 107.233 51.9113C106.244 51.8993 105.267 52.1194 104.379 52.554C105.003 52.7355 105.655 52.7986 106.303 52.74C107.867 52.6766 108.966 53.4503 109.846 54.6046C112.704 58.3549 110.509 64.8914 105.977 66.1683C105.71 66.242 105.433 66.272 105.157 66.2571C107.804 64.9421 108.586 62.7943 108.142 59.97Z" fill="#061725"/>
<path fill-rule="evenodd" clip-rule="evenodd" d="M45.3304 93.6763C33.3946 93.5029 29.7585 92.9871 19.0447 89.1015C18.5711 88.9324 18.5669 88.7633 18.7529 88.3574C19.6366 86.421 20.1609 85.1652 21.2094 83.3134C22.017 81.8927 23.2642 81.0302 24.6891 80.3537C27.6487 78.9712 30.8028 78.3835 33.9908 78.0029C40.0707 77.2799 45.8589 78.375 51.3934 80.9034C52.239 81.2924 53.0212 81.8378 53.8625 82.2479C58.302 84.4169 58.3189 88.8901 57.9891 92.281C57.9384 92.7757 57.6382 92.8772 57.2112 92.9194C55.9427 93.0463 54.6447 93.2408 53.3552 93.3422C50.6662 93.5748 47.9518 93.6509 45.3304 93.6763Z" fill="#AFB0B0"/>
<path fill-rule="evenodd" clip-rule="evenodd" d="M26.8031 106.901C27.9996 108.905 29.805 109.941 31.8302 110.956C31.7118 110.637 31.4958 110.363 31.2129 110.174C30.287 109.383 29.3526 108.601 28.4309 107.806C28.2626 107.65 28.1109 107.477 27.9785 107.29C27.0737 106.136 27.5049 105.058 28.9552 104.821L29.6528 104.698C28.8283 105.789 29.6232 106.364 30.2532 106.969C32.3076 108.935 34.5461 110.699 36.9377 112.237C37.517 112.647 38.1935 112.9 38.9001 112.968C39.6068 113.037 40.3192 112.921 40.967 112.63C42.9906 111.831 44.9546 110.889 46.844 109.81C47.0596 109.687 47.2668 109.561 47.5754 109.387C47.5925 111.615 47.4299 113.84 47.0892 116.042C47.068 116.221 46.985 116.387 46.8546 116.511C46.7241 116.635 46.5544 116.71 46.3747 116.723C44.6835 116.867 43.1698 117.619 41.6393 118.275C40.9416 118.575 40.2525 118.888 39.5718 119.23C40.9217 119.051 42.2494 118.732 43.5334 118.279C44.0915 118.097 44.8018 117.564 45.195 117.915C45.5121 118.194 45.0682 118.993 44.9202 119.547C44.6327 120.646 44.3029 121.737 43.9689 122.824C43.5451 124.106 42.8049 125.261 41.8168 126.181C40.337 127.644 38.8953 129.141 37.166 130.346C36.8743 130.553 36.5995 130.794 36.8785 131.149C37.1576 131.504 37.4704 131.259 37.7241 131.069C39.4704 129.757 41.0924 128.288 42.5694 126.68C42.7581 126.47 42.9631 126.274 43.1825 126.096C42.6498 127.585 41.5378 128.726 40.7429 130.075C41.448 129.747 42.0523 129.236 42.4933 128.595C43.5713 127.21 44.332 125.605 44.7215 123.894C45.1739 122.025 45.6728 120.164 46.1125 118.291C46.2225 117.831 46.5776 117.687 46.8947 117.539C47.2062 117.398 47.4739 117.175 47.6696 116.895C47.8653 116.614 47.9817 116.286 48.0067 115.945C48.2763 114.036 48.4176 112.11 48.4295 110.182C48.4295 109.878 48.4295 109.573 48.476 109.269C48.5775 108.317 48.476 107.485 47.3809 107.155C47.0681 107.053 47.0216 106.694 46.8398 106.533C48.1504 105.485 49.6852 105.586 51.2158 105.637C50.9621 108.25 50.7634 110.859 50.4463 113.467C49.7064 119.475 46.9412 124.46 43.0345 128.912C41.2291 130.976 39.2547 132.828 36.6925 133.914C34.6461 134.785 32.5152 135.144 30.3081 134.565C29.5168 134.371 28.8041 133.938 28.266 133.326C26.7314 131.633 25.4043 129.762 24.3128 127.754C23.4672 126.126 23.6194 124.469 24.0295 122.79C24.3486 121.489 24.7728 120.217 25.2979 118.985C25.3825 118.782 25.3613 118.456 25.7884 118.642C27.185 119.2 28.69 119.433 30.1897 119.323C32.0459 119.26 33.8851 119.581 35.7369 119.505C35.9652 119.505 36.3373 119.623 36.3754 119.277C36.4134 118.93 36.0075 118.998 35.8004 118.972C33.5467 118.785 31.3459 118.189 29.3061 117.213C27.1919 116.161 25.5534 114.349 24.7187 112.14C24.5415 111.775 24.4602 111.371 24.4824 110.967C24.5046 110.562 24.6296 110.17 24.8455 109.827C25.4882 108.838 26.0886 107.878 26.8031 106.901Z" fill="#061725"/>
<path fill-rule="evenodd" clip-rule="evenodd" d="M43.3518 111.607C44.5399 111.061 45.7068 110.469 46.8441 109.81C47.0598 109.687 47.2669 109.56 47.5756 109.387C47.5927 111.615 47.4301 113.84 47.0894 116.042C47.0681 116.221 46.9852 116.387 46.8547 116.511C46.7243 116.635 46.5546 116.71 46.3748 116.723C44.6836 116.866 43.17 117.619 41.6394 118.274L40.9037 118.596C41.776 117.948 42.5946 117.231 43.3518 116.452V111.607ZM39.851 119.192C39.6908 119.257 39.5206 119.294 39.3478 119.302C38.0794 119.302 42.8909 119.53 42.8909 119.53L39.1322 128.773C40.0581 127.927 40.9291 127.048 41.817 126.172C42.8051 125.252 43.5453 124.097 43.9691 122.815C44.3031 121.729 44.6329 120.638 44.9204 119.539C45.0684 118.985 45.5123 118.186 45.1952 117.907C44.7978 117.556 44.0917 118.088 43.5336 118.27C42.3365 118.688 41.1039 118.997 39.851 119.192ZM37.1027 131.305L33.9698 134.688C34.9216 134.529 35.8503 134.253 36.7349 133.867C39.2717 132.781 41.2631 130.929 43.077 128.866C46.9837 124.405 49.7488 119.429 50.4887 113.421C50.8058 110.812 51.0045 108.203 51.2582 105.59C49.7277 105.54 48.1929 105.438 46.8822 106.487C47.064 106.647 47.1105 107.007 47.4234 107.108C48.51 107.455 48.6199 108.288 48.5184 109.222C48.4888 109.527 48.4762 109.831 48.4719 110.135C48.46 112.064 48.3187 113.989 48.0491 115.898C48.0242 116.239 47.9077 116.567 47.712 116.848C47.5163 117.128 47.2487 117.351 46.9372 117.492C46.6201 117.64 46.2649 117.784 46.155 118.245C45.7322 120.118 45.2163 121.978 44.7639 123.847C44.3744 125.558 43.6138 127.163 42.5358 128.549C42.0948 129.189 41.4904 129.7 40.7854 130.028C41.5802 128.68 42.6922 127.538 43.2249 126.05C43.0055 126.228 42.8005 126.423 42.6119 126.633C41.1348 128.242 39.5128 129.711 37.7665 131.022C37.5509 131.204 37.3226 131.381 37.1027 131.305Z" fill="#C4C4C4"/>
<path fill-rule="evenodd" clip-rule="evenodd" d="M54.4292 117.15C53.4357 118.947 52.738 120.765 51.6937 122.397C53.072 116.799 52.1757 111.231 51.6176 105.59C54.7667 105.461 57.9053 105.143 61.0165 104.639C60.2408 105.759 59.5753 106.951 59.0294 108.199C58.7503 108.88 58.467 109.556 58.1542 110.22C57.9639 110.643 57.7863 111.066 57.2705 111.197C57.2147 111.21 57.1623 111.235 57.1165 111.27C57.0706 111.304 57.0323 111.348 57.0038 111.398C56.9753 111.448 56.9573 111.503 56.9508 111.56C56.9443 111.617 56.9495 111.675 56.9661 111.73C57.0168 112.013 57.2536 112.068 57.4819 112.097C57.9557 112.181 58.4345 112.233 58.9152 112.254C59.4099 112.254 59.4944 112.436 59.431 112.888C59.0759 115.374 58.7503 117.864 58.4163 120.355C57.6806 125.851 56.928 131.314 56.2135 136.798C55.8245 139.757 55.2833 142.662 55.1438 145.63C54.9972 148.784 54.8464 151.937 54.6914 155.088C52.1546 154.276 49.6177 154.052 47.639 152.479C48.4592 149.076 49.8799 143.956 50.4507 140.37C50.965 141.711 51.2895 143.117 51.4147 144.548C51.5007 145.934 51.3242 147.324 50.8946 148.645C51.662 147.483 52.087 146.129 52.1207 144.738C52.1757 142.776 51.6556 140.933 51.0764 139.081C50.2001 136.421 50.0454 133.576 50.6282 130.836C51.1271 128.532 51.5626 126.215 52.0108 123.902C52.0743 123.633 52.1845 123.377 52.3364 123.145C53.3071 121.538 54.0204 119.789 54.4504 117.962C54.5027 117.832 54.5278 117.693 54.5242 117.554C54.5205 117.414 54.4882 117.277 54.4292 117.15Z" fill="#061725"/>
<path fill-rule="evenodd" clip-rule="evenodd" d="M67.7816 54.4739C68.3355 51.9794 68.864 49.6074 69.384 47.2355C69.4517 46.9226 69.6081 46.8127 69.9294 46.7155C81.806 43.5106 93.7714 47.5611 100.794 58.3172C100.885 58.4167 100.944 58.5414 100.963 58.675C100.982 58.8086 100.96 58.9447 100.9 59.0656C100.113 60.7568 99.3566 62.4776 98.5617 64.2534C97.9064 63.3274 97.3187 62.4268 96.6633 61.5812C95.9897 60.7505 95.1502 60.0693 94.1984 59.5814C95.4457 60.9809 96.6971 62.3634 97.4962 64.0842C96.397 62.8835 95.3188 61.67 94.1138 60.5707C89.1247 56.0298 83.2182 53.8735 76.5167 53.7298C73.5871 53.6747 70.6597 53.9241 67.7816 54.4739Z" fill="#061725"/>
<path fill-rule="evenodd" clip-rule="evenodd" d="M57.4483 93.8701C56.9121 95.0361 56.0976 96.0525 55.0764 96.8297C52.734 98.7112 50.0027 99.8316 47.2461 100.961C47.0764 101.012 46.8987 101.032 46.7218 101.02C38.8661 100.994 31.078 100.386 23.3703 98.7239C21.4529 98.3591 19.591 97.7465 17.8316 96.9016C17.5816 96.7741 17.3388 96.633 17.1044 96.4788C15.8613 95.684 15.7894 95.5064 16.2588 94.1492C16.6562 93.0288 17.1044 91.921 17.5018 90.8048C17.6075 90.5131 17.7217 90.3482 18.1022 90.4962C24.829 93.0922 31.8687 94.0181 39.0141 94.3648C44.9714 94.6523 50.9287 94.6692 56.8648 93.8744C57.0591 93.8615 57.2539 93.8601 57.4483 93.8701Z" fill="#AFB0B0"/>
<path fill-rule="evenodd" clip-rule="evenodd" d="M61.6889 94.2176C64.2257 95.1267 66.6399 95.7905 68.6567 97.4563C68.8903 97.6504 69.1041 97.8671 69.2951 98.1032C70.1407 99.1306 70.0435 100.014 69.033 100.881C68.1991 101.546 67.2525 102.056 66.2382 102.386C63.063 103.532 59.7524 104.001 56.4207 104.335C52.7316 104.698 49.0235 104.831 45.3179 104.733C35.327 104.5 25.4461 103.524 15.7977 100.691C13.5751 100.073 11.4302 99.2034 9.40493 98.099C8.64457 97.6893 7.94807 97.1708 7.33742 96.56C6.21699 95.3888 6.2931 94.3572 7.59111 93.3594C8.43729 92.7551 9.37132 92.2846 10.3605 91.9641C12.2336 91.2732 14.1734 90.7787 16.1487 90.4885C15.654 91.8795 15.2185 93.2156 14.6984 94.5178C14.5518 94.8412 14.5138 95.2033 14.59 95.55C14.6662 95.8967 14.8526 96.2095 15.1212 96.4416C16.0102 97.2787 17.0748 97.907 18.2373 98.2808C21.4527 99.4226 24.7762 100.233 28.1563 100.699C34.8814 101.718 41.6793 102.179 48.4805 102.078C52.0828 102.031 55.6681 101.875 59.2112 101.025C60.1339 100.844 61.0109 100.481 61.7903 99.9551C62.1098 99.7695 62.3549 99.4787 62.4837 99.1324C62.6125 98.7862 62.617 98.4059 62.4964 98.0567C62.1878 96.8517 61.9806 95.6044 61.6889 94.2176Z" fill="#AFB0B0"/>
<path fill-rule="evenodd" clip-rule="evenodd" d="M91.8136 118.714C91.2136 118.145 90.4419 117.791 89.6193 117.707C89.281 117.648 89.0823 117.555 89.0358 117.179C88.7927 115.621 88.7927 114.035 89.0358 112.477C89.3445 110.757 90.4522 109.742 92.1392 109.218C92.2999 109.89 92.0842 110.486 91.9828 111.095C91.7909 112.173 91.9036 113.282 92.3083 114.3C93.1464 116.61 94.2025 118.836 95.4624 120.946C96.8823 123.278 97.8385 125.862 98.2783 128.557C98.3446 129.11 98.4548 129.657 98.6081 130.193C98.8956 130.984 98.6081 131.533 98.0753 132.091C97.4591 132.843 96.7486 133.512 95.9613 134.083C96.0332 133.685 96.418 133.453 96.2742 133.06C91.2598 135.808 90.5495 135.829 87.0487 135.051C87.0106 135.334 87.3573 135.334 87.4249 135.596C86.554 135.338 85.1376 135.376 84.5753 134.704C84.2328 134.281 84.3427 133.157 84.5753 132.59C84.8458 131.922 87.0444 131.668 87.8139 131.584C88.6595 131.487 88.8709 131.263 88.7229 130.451C87.1205 130.933 85.4843 131.474 83.8396 131.339C83.3491 131.301 82.698 128.73 83.4168 128.624C84.7228 128.366 86.0054 128.001 87.2516 127.533C88.1268 127.216 88.52 126.168 86.406 126.836C85.3405 127.17 83.3829 127.952 82.2329 127.851C81.8101 127.817 81.6156 126.367 81.6664 125.737C81.7044 125.263 82.0088 125.145 82.3344 125.039L86.0255 123.859C86.8711 123.593 88.186 121.695 85.8225 122.76C84.5795 123.346 83.2645 123.766 81.9116 124.007C81.066 123.889 80.8081 122.468 80.7785 121.678C80.7406 121.426 80.803 121.169 80.9525 120.962C81.1019 120.756 81.3264 120.617 81.5776 120.574C83.3914 120.024 85.1841 119.386 87.0021 118.849C88.4193 118.417 89.927 118.376 91.3655 118.731C91.4796 118.79 91.6149 118.904 91.8136 118.714Z" fill="#D98B58"/>
<path fill-rule="evenodd" clip-rule="evenodd" d="M98.2742 124.059C100.096 127.995 101.437 132.029 101.306 136.421C101.538 135.965 101.581 133.263 101.428 132.464C100.904 129.788 100.684 127.035 99.3862 124.558C99.3082 124.37 99.2501 124.174 99.2128 123.974C99.1367 123.678 99.2128 123.572 99.5511 123.619C101.242 123.851 102.976 124.004 104.625 124.629C104.8 124.691 104.961 124.787 105.098 124.912C105.236 125.037 105.346 125.188 105.424 125.357C106.768 128.126 107.49 131.157 107.538 134.236C107.682 138.781 107.665 143.317 107.009 147.824C106.822 148.87 106.521 149.892 106.113 150.873C106.081 151.007 106.012 151.13 105.914 151.227C105.817 151.324 105.693 151.392 105.559 151.423C103.614 151.871 101.674 152.327 99.5933 152.814C101.589 143.076 100.667 133.538 98.2742 124.059Z" fill="#061725"/>
<path fill-rule="evenodd" clip-rule="evenodd" d="M93.8517 84.7797C93.3252 85.8295 92.7099 86.8324 92.0125 87.7774C91.3432 88.7311 90.6011 89.6316 89.7927 90.4707C91.6404 89.1642 92.9596 87.3715 94.2407 85.3167C94.4605 86.4963 94.6212 87.4603 94.8199 88.4201C94.8557 88.5649 94.8404 88.7178 94.7764 88.8526C94.7125 88.9875 94.6038 89.096 94.469 89.16C92.7186 90.3776 90.8836 91.46 89.2093 92.7834C88.537 93.3119 87.8648 93.8404 87.2306 94.4239C89.9116 93.0745 92.5108 91.5681 95.0144 89.9126C95.3907 91.0372 95.3907 91.0414 94.4013 91.5742C89.6574 94.1406 84.9094 96.6943 80.174 99.2777C79.1 99.8611 78.0599 100.335 76.838 99.7216C78.7787 98.4532 81.028 97.7133 83.0279 96.4956C81.4564 96.8861 79.9302 97.4401 78.4743 98.1488C77.7682 98.4912 77.0579 98.8253 76.3603 99.1889C76.0601 99.3453 75.8106 99.3326 75.6584 99.0324C75.5062 98.7322 75.8698 98.6857 76.0093 98.6096C78.9394 96.7493 82.0089 95.113 84.8586 93.1132C86.9008 91.6883 88.8668 90.1536 90.4481 88.2171C91.2881 87.2606 91.8932 86.1212 92.2154 84.8897C92.338 84.3315 92.5748 84.285 93.0272 84.4964C93.2962 84.6071 93.5715 84.7016 93.8517 84.7797Z" fill="#061725"/>
<path fill-rule="evenodd" clip-rule="evenodd" d="M87.3446 113.01C84.0129 108.706 81.1674 104.211 76.098 101.992C77.2396 101.797 78.3093 102.169 80.8038 103.619C80.25 102.71 78.4869 101.729 76.9394 101.467L76.487 101.395C76.2502 101.362 76.1361 101.264 76.1699 100.994C76.2037 100.723 76.3855 100.681 76.5927 100.71C79.6538 101.133 82.457 102.034 84.2412 104.795C85.8183 107.23 86.6301 109.974 87.3446 113.01Z" fill="#061725"/>
<path fill-rule="evenodd" clip-rule="evenodd" d="M66.437 89.3974C67.4137 90.7038 68.0225 92.2133 69.0161 93.4986C68.5468 92.4585 68.0775 91.4142 67.5997 90.3741C67.4856 90.1246 67.3249 89.8921 67.2023 89.6426C66.678 88.5898 66.678 88.5898 67.6251 87.9006L68.9865 86.9028C70.1831 91.0548 72.0815 94.8304 74.2082 98.5088C73.76 98.754 73.5401 98.6018 73.2569 98.2424C72.5422 97.2217 71.7091 96.2893 70.775 95.4646C71.3796 96.6569 72.2421 97.6843 73.0159 98.809C71.7474 98.6779 66.3694 90.9322 66.437 89.3974Z" fill="#061725"/>
<path fill-rule="evenodd" clip-rule="evenodd" d="M85.214 111.683C83.6116 110.74 81.9034 110.152 80.246 109.434C79.1255 108.953 78.1189 108.241 77.292 107.345C76.4651 106.449 75.8365 105.389 75.4472 104.233C75.3871 104.097 75.3417 103.956 75.3119 103.81C75.2887 103.659 75.2994 103.505 75.3433 103.359C75.3871 103.213 75.4631 103.078 75.5656 102.965C75.777 102.745 76.0306 103.003 76.2378 103.1C78.6943 104.216 80.58 106.06 82.3093 108.051C83.324 109.21 84.25 110.465 85.214 111.683Z" fill="#061725"/>
<path fill-rule="evenodd" clip-rule="evenodd" d="M59.7058 110.863C63.7013 107.929 67.3459 104.593 72.2631 103.189C71.5362 104.174 70.7348 105.101 69.8658 105.963C69.3542 106.525 68.758 107.011 68.2634 107.586C66.365 109.793 63.7436 110.343 61.0757 110.761C60.6329 110.9 60.1642 110.935 59.7058 110.863Z" fill="#061725"/>
<path fill-rule="evenodd" clip-rule="evenodd" d="M33.6782 108.555C34.1033 108.75 34.5673 108.845 35.0348 108.833C35.5023 108.822 35.9609 108.703 36.3757 108.487C37.3355 108.064 38.346 108.377 39.2677 108.711C40.354 109.142 41.5638 109.142 42.6501 108.711C43.0476 108.551 43.1913 108.631 43.2421 109.054C43.3858 110.369 43.1998 110.711 41.9736 111.231C38.9844 112.5 38.7561 112.478 36.0967 110.593C35.251 109.992 34.4393 109.362 33.6106 108.745L33.6782 108.555Z" fill="#EDCBAA"/>
<path fill-rule="evenodd" clip-rule="evenodd" d="M59.4268 109.836C60.0282 107.902 61.0068 106.108 62.3061 104.555C62.4711 104.396 62.6866 104.3 62.915 104.284C64.51 103.97 66.0685 103.492 67.5658 102.859C67.6584 102.846 67.7523 102.846 67.8449 102.859L67.0458 103.519C68.4828 102.839 70.0345 102.435 71.6205 102.327C66.9358 103.832 63.3209 107.041 59.4268 109.836Z" fill="#061725"/>
<path fill-rule="evenodd" clip-rule="evenodd" d="M99.7371 118.842C100.934 120.613 102.663 121.759 104.016 123.45C102.274 123.048 100.504 122.774 98.7223 122.63C98.346 122.588 98.1769 122.482 98.3249 122.068C98.7124 120.958 99.1845 119.879 99.7371 118.842Z" fill="#DC9118"/>
<path fill-rule="evenodd" clip-rule="evenodd" d="M95.9992 142.32C96.0922 146.036 96.3628 149.444 97.1873 152.789C97.2338 152.979 97.4199 153.304 97.1239 153.385C96.8279 153.465 96.773 153.089 96.7011 152.877C96.1852 151.045 95.8552 149.165 95.7159 147.267C95.3861 143.91 95.2931 140.536 95.2593 137.162C95.2593 136.904 95.124 136.557 95.5933 136.566C96.0626 136.574 95.8555 136.925 95.8639 137.132C95.9654 138.954 96.0457 140.781 95.9992 142.32Z" fill="#061725"/>
<path fill-rule="evenodd" clip-rule="evenodd" d="M40.8698 73.897C41.9184 73.897 41.9902 74.9794 41.745 76.011C41.6774 76.307 41.5505 76.4338 41.225 76.3788C40.3497 76.2562 40.3286 76.2774 39.4534 76.1928C39.1955 76.1674 39.1236 76.0617 39.1025 75.8165C39.0928 75.3304 39.2712 74.8594 39.6005 74.5017C39.9298 74.1441 40.3846 73.9274 40.8698 73.897Z" fill="#AFB0B0"/>
<path fill-rule="evenodd" clip-rule="evenodd" d="M65.0416 94.3141L61.7691 93.126C61.5154 93.0372 60.8769 91.5912 61.0291 91.3629C61.1813 91.1346 61.5069 91.1811 61.7564 91.3291C62.3333 91.6489 62.8651 92.0442 63.3377 92.5045C63.9465 93.1133 64.5215 93.756 65.0416 94.3141Z" fill="#061725"/>
<path fill-rule="evenodd" clip-rule="evenodd" d="M43.6645 110.474C44.1211 109.628 44.4721 108.951 44.8272 108.296C44.8822 108.19 44.9964 108.017 45.0513 108.025C45.8566 108.122 46.6672 108.167 47.4782 108.161C46.3705 109.129 45.1021 109.721 43.6645 110.474Z" fill="#061725"/>
<path fill-rule="evenodd" clip-rule="evenodd" d="M73.726 101.62C73.8081 101.044 74.0082 100.492 74.3137 99.9966C74.4363 99.8105 74.5843 99.5738 74.8507 99.6499C74.9743 99.6838 75.0839 99.7562 75.1637 99.8565C75.2435 99.9568 75.2894 100.08 75.2946 100.208C75.3877 101.028 75.0029 101.73 74.7196 102.453C74.7107 102.484 74.6934 102.513 74.6696 102.535C74.6458 102.557 74.6164 102.572 74.5845 102.578C74.5527 102.585 74.5197 102.583 74.4891 102.572C74.4585 102.561 74.4314 102.542 74.4109 102.517C74.1234 102.25 73.6414 102.157 73.726 101.62Z" fill="#061725"/>
<path fill-rule="evenodd" clip-rule="evenodd" d="M68.7536 102.326C69.4846 101.822 70.1059 101.174 70.5802 100.423C70.7873 100.047 71.337 100.127 71.7556 100.102C71.9543 100.102 71.8866 100.267 71.8824 100.381C71.8824 100.681 71.8444 100.986 71.8444 101.286C71.8444 101.48 71.8444 101.62 71.578 101.628C70.6089 101.73 69.6584 101.964 68.7536 102.326Z" fill="#061725"/>
<path fill-rule="evenodd" clip-rule="evenodd" d="M73.6034 101.828C73.3464 101.612 73.1542 101.329 73.0482 101.01C72.9422 100.692 72.9266 100.35 73.003 100.023C73.1341 99.4986 73.6415 99.5663 74.1404 99.4944C73.7581 100.211 73.5728 101.017 73.6034 101.828Z" fill="#061725"/>
<path fill-rule="evenodd" clip-rule="evenodd" d="M62.7545 132.367C62.7491 132.597 62.6979 132.824 62.6038 133.034C62.5097 133.244 62.3747 133.433 62.2066 133.591C62.0386 133.748 61.8408 133.871 61.6249 133.951C61.409 134.031 61.1793 134.067 60.9492 134.058C60.499 134.026 60.0786 133.822 59.7765 133.486C59.4744 133.151 59.3142 132.712 59.3295 132.261C59.3448 131.81 59.5346 131.382 59.8588 131.069C60.183 130.755 60.6163 130.579 61.0676 130.578C61.5266 130.597 61.9602 130.794 62.2754 131.129C62.5907 131.463 62.7627 131.907 62.7545 132.367Z" fill="#061725"/>
<path fill-rule="evenodd" clip-rule="evenodd" d="M65.6633 115.602C65.6674 115.831 65.625 116.059 65.5386 116.271C65.4523 116.483 65.3237 116.675 65.1609 116.836C64.998 116.997 64.8042 117.123 64.5911 117.207C64.378 117.291 64.1502 117.33 63.9213 117.323C63.4758 117.314 63.0513 117.132 62.7362 116.817C62.4211 116.502 62.2398 116.078 62.2301 115.632C62.2256 115.17 62.4038 114.724 62.7261 114.392C63.0483 114.06 63.4885 113.869 63.9509 113.86C64.1791 113.858 64.4056 113.901 64.6166 113.988C64.8276 114.075 65.0189 114.203 65.1789 114.366C65.3389 114.529 65.4643 114.722 65.5475 114.935C65.6308 115.147 65.6701 115.374 65.6633 115.602Z" fill="#061725"/>
<path fill-rule="evenodd" clip-rule="evenodd" d="M59.7568 153.326C59.426 153.311 59.1068 153.199 58.8389 153.004C58.5709 152.81 58.366 152.541 58.2496 152.231C58.1332 151.92 58.1104 151.583 58.184 151.26C58.2576 150.937 58.4244 150.643 58.6636 150.414C58.9029 150.185 59.2042 150.032 59.53 149.972C59.8558 149.913 60.1919 149.95 60.4965 150.08C60.8011 150.21 61.0609 150.427 61.2436 150.703C61.4263 150.979 61.5238 151.303 61.5242 151.634C61.5244 151.863 61.4783 152.089 61.3886 152.3C61.2989 152.51 61.1674 152.7 61.0022 152.858C60.837 153.016 60.6415 153.139 60.4274 153.219C60.2134 153.3 59.9852 153.336 59.7568 153.326Z" fill="#061725"/>
<path fill-rule="evenodd" clip-rule="evenodd" d="M98.0119 93.2282C98.1176 93.0295 98.2699 93.1352 98.4094 93.169C100.657 93.6805 102.861 94.3676 105.001 95.2239C105.187 95.3021 105.368 95.3925 105.542 95.4944C105.741 95.6044 105.994 95.7058 105.91 95.9891C105.825 96.2724 105.551 96.2132 105.326 96.1878C104.65 96.0877 103.99 95.8957 103.365 95.6171C101.673 94.9152 99.9569 94.1838 98.2572 93.4565C98.1599 93.4143 97.995 93.41 98.0119 93.2282Z" fill="#061725"/>
<path fill-rule="evenodd" clip-rule="evenodd" d="M75.4721 80.5605C74.4974 80.5732 73.5269 80.4305 72.5971 80.1377C71.9079 79.9178 71.8106 79.6515 72.2884 79.1483C72.5982 78.8847 72.8104 78.5246 72.891 78.1259C72.9715 77.7271 72.9156 77.3129 72.7324 76.9497C72.4449 76.3071 72.2208 75.6306 71.9755 74.9668C71.8741 74.6962 71.6415 74.4214 71.9248 74.1212C72.2081 73.821 72.4449 73.9986 72.7112 74.062C74.0116 74.3896 75.3323 74.6311 76.6645 74.785C78.5099 74.9676 80.3728 74.738 82.1186 74.1127C82.4061 74.007 82.719 73.8295 82.9642 74.1127C83.2095 74.396 83.0361 74.6793 82.9177 74.9583C81.8058 77.5713 80.1399 79.6092 77.2437 80.3195C76.6658 80.4748 76.0705 80.5558 75.4721 80.5605Z" fill="#061725"/>
<path fill-rule="evenodd" clip-rule="evenodd" d="M78.8293 60.0209C80.9433 60.0674 83.0573 59.7207 85.2051 59.8518C87.1542 59.9702 88.355 61.2386 88.355 63.3526C87.0358 61.4204 85.184 61.5726 83.3067 61.7671C82.4255 61.8847 81.5352 61.9201 80.6473 61.8728C79.2944 61.7502 78.9857 61.4585 78.8293 60.0209Z" fill="#061725"/>
<path fill-rule="evenodd" clip-rule="evenodd" d="M95.0271 71.8676C95.8305 71.6604 96.4901 71.7027 96.9213 72.3876C97.2173 72.8612 97.0989 73.2967 96.6465 73.7491C96.5831 73.2798 96.6803 72.7978 96.2237 72.5737C96.0967 72.5141 95.9581 72.4832 95.8178 72.4832C95.6775 72.4832 95.5389 72.5141 95.4119 72.5737C95.0356 72.7301 94.8453 72.8696 95.2174 73.3094C95.3835 73.4707 95.4997 73.6763 95.5523 73.9018C95.6049 74.1272 95.5917 74.3631 95.5143 74.5813C95.4368 74.7994 95.2983 74.9908 95.1153 75.1326C94.9322 75.2744 94.7123 75.3606 94.4817 75.3811C94.2027 75.4318 93.9025 75.4741 93.8095 75.0936C93.7898 75.0322 93.7836 74.9672 93.7913 74.9032C93.799 74.8391 93.8205 74.7775 93.8542 74.7225C93.8879 74.6675 93.9331 74.6204 93.9867 74.5845C94.0402 74.5486 94.1009 74.5247 94.1646 74.5143C94.3803 74.4509 94.6466 74.434 94.6339 74.1254C94.6181 73.9976 94.5628 73.8779 94.4756 73.7831C94.3884 73.6884 94.2738 73.6232 94.1477 73.5969C93.5981 73.4193 93.5431 73.0853 93.7249 72.5948C94.0074 71.6492 94.5036 70.7812 95.1751 70.058C95.932 69.3054 96.9594 69.0517 97.7373 69.4365C98.6802 69.9016 98.9592 70.7345 98.9254 71.7154C98.8483 72.679 98.5059 73.6024 97.936 74.3833C97.7416 74.6792 97.4879 74.8441 97.1792 74.637C96.8706 74.4298 96.9847 74.155 97.1496 73.9013C97.4686 73.443 97.718 72.9401 97.8895 72.4088C98.0163 72.0218 98.0496 71.6103 97.9868 71.208C97.9805 71.0085 97.9189 70.8146 97.8089 70.648C97.6988 70.4813 97.5447 70.3486 97.3637 70.2644C97.1826 70.1802 96.9818 70.148 96.7835 70.1713C96.5852 70.1945 96.3972 70.2724 96.2406 70.3962C95.6888 70.7438 95.2633 71.2597 95.0271 71.8676Z" fill="#061725"/>
<path fill-rule="evenodd" clip-rule="evenodd" d="M81.7726 66.1431L82.4449 66.2149C82.1418 65.663 81.9833 65.0434 81.984 64.4138C81.4767 64.5026 81.3921 64.955 81.1384 65.234C80.8847 65.5131 80.6184 66.1896 80.1364 66.0035C79.6544 65.8175 79.6205 65.2002 79.6671 64.5068C79.8489 64.8324 79.963 65.0269 80.0645 65.2087C80.132 65.2054 80.1967 65.1807 80.2492 65.1381C80.3017 65.0955 80.3392 65.0373 80.3562 64.9719C80.8636 63.7035 81.8318 63.3568 83.1087 63.5217C84.2629 63.6739 85.4383 63.6612 86.5292 64.1559C86.7998 64.2827 86.8124 64.325 86.6856 64.5787C86.6137 64.7309 86.7659 64.7901 86.8378 64.8704C87.2428 65.2386 87.5358 65.7133 87.6834 66.2403L86.5968 65.3313C86.129 64.9023 85.5649 64.592 84.9521 64.4265C84.7788 64.3842 84.5082 64.2996 84.4109 64.5322C84.3137 64.7647 84.5335 64.955 84.7153 64.9761C85.561 65.1283 85.654 65.3609 85.5905 65.9274C85.5905 66.0458 85.4214 66.2572 85.4848 66.3502C85.6032 66.5236 86.3009 66.3502 86.1571 66.439C85.7893 66.6631 84.2883 66.828 83.9797 66.8111C83.2271 66.7772 82.4364 66.735 81.7726 66.1431Z" fill="#061725"/>
<path fill-rule="evenodd" clip-rule="evenodd" d="M67.7055 65.0438C67.8915 64.3842 68.4285 64.0544 68.8598 63.5386L68.2425 63.6401C68.1452 63.5809 68.1494 63.5555 68.2044 63.5175C68.6785 63.2166 69.2284 63.0567 69.7899 63.0566C70.5214 63.0313 71.2571 63.0059 71.9927 63.0313C73.4683 63.0862 73.9545 63.4541 74.4408 64.8155C74.5761 65.1918 74.0729 65.9401 73.6839 65.9444C73.5782 65.9444 73.4725 65.9444 73.4387 65.8175C73.4211 65.7567 73.4205 65.6923 73.4369 65.6312C73.4533 65.5701 73.4861 65.5146 73.5317 65.4708C74.2167 64.7647 73.2654 64.4646 73.1089 63.9826C72.9525 63.5006 72.4113 63.5598 71.9716 63.5978C71.9239 63.6058 71.8785 63.6238 71.8384 63.6508C71.7982 63.6778 71.7644 63.7131 71.739 63.7542C71.6841 63.8895 71.794 63.991 71.8997 64.0629C72.2575 64.2403 72.6552 64.3219 73.054 64.2997C73.2442 64.7478 72.5297 65.0269 72.8595 65.5216C72.9102 65.6019 72.6269 65.6738 72.4959 65.7034C71.7802 65.8792 71.0357 65.9037 70.31 65.7752C70.0309 65.7203 69.6715 65.7034 70.1409 65.3059C70.3945 65.0945 70.0182 64.8535 69.9548 64.621C69.7138 63.7373 69.5912 63.7035 68.7963 64.2574C68.4285 64.528 68.0607 64.7986 67.7055 65.0438Z" fill="#061725"/>
<path fill-rule="evenodd" clip-rule="evenodd" d="M75.5614 62.5274C75.5714 62.7543 75.5969 62.9803 75.6375 63.2039C75.9101 64.2436 75.7834 65.3478 75.2824 66.2988C74.7539 67.3304 74.3015 68.4128 73.6926 69.3979C73.1726 70.2436 73.3079 70.9581 73.756 71.7191C73.9153 71.9654 74.0485 72.2275 74.1535 72.5013C73.3922 71.9831 72.83 71.2211 72.5595 70.3408C72.0394 70.9581 72.4453 71.4612 72.8047 71.9728C72.6465 71.9503 72.4954 71.8924 72.3626 71.8035C72.2298 71.7147 72.1186 71.5971 72.0374 71.4594C71.9562 71.3218 71.907 71.1676 71.8935 71.0084C71.8799 70.8491 71.9023 70.6889 71.9591 70.5395C72.056 70.2511 72.2098 69.9851 72.4115 69.7573C73.8829 68.1591 74.386 66.0916 75.0836 64.134C75.3796 63.3096 75.0075 62.3836 74.8934 61.5084C74.8563 61.309 74.8365 61.1067 74.8342 60.9038C75.1936 61.4027 75.1978 62.0581 75.5656 62.5527L75.5614 62.5274Z" fill="#061725"/>
<path fill-rule="evenodd" clip-rule="evenodd" d="M67.2573 62.3968C67.5025 60.2828 68.1029 59.7374 69.9252 59.86C71.0541 59.9361 72.1745 60.156 73.3077 60.2828C73.6755 60.3208 73.6417 60.5026 73.5909 60.7352C73.5501 60.962 73.4279 61.1661 73.2474 61.3094C73.0668 61.4526 72.8402 61.525 72.61 61.5131C71.9532 61.5333 71.2966 61.468 70.6567 61.3187C69.4009 61.0523 68.2255 61.0269 67.2573 62.3968Z" fill="#061725"/>
<path fill-rule="evenodd" clip-rule="evenodd" d="M76.8382 81.677C76.1998 82.7721 75.3838 83.1526 74.3014 83.0257C73.4557 82.9243 72.8765 82.4719 72.4833 81.491C73.9208 82.252 75.3288 82.1675 76.8382 81.677Z" fill="#061725"/>
<path fill-rule="evenodd" clip-rule="evenodd" d="M78.3091 72.587C79.5776 71.9147 78.825 70.8957 78.7319 69.9656C79.345 70.5702 79.7044 71.42 79.5395 71.8936C79.3746 72.3671 78.8715 72.5193 78.3091 72.587Z" fill="#061725"/>
<path fill-rule="evenodd" clip-rule="evenodd" d="M71.5991 86.298C71.0143 86.1215 70.4945 85.7769 70.1043 85.307C69.7141 84.8371 69.4708 84.2627 69.4047 83.6555C69.8233 84.8098 70.893 85.4017 71.5991 86.298Z" fill="#061725"/>
<path fill-rule="evenodd" clip-rule="evenodd" d="M68.4069 76.8823C68.4703 76.654 68.2716 76.3749 68.5717 76.3242C68.8719 76.2735 68.8339 76.5652 68.8973 76.747C69.0623 77.0866 69.164 77.4534 69.1975 77.8294C69.1975 77.9859 69.1721 78.1465 68.9861 78.1846C68.9429 78.2016 68.8965 78.2088 68.8503 78.2056C68.804 78.2025 68.759 78.1891 68.7185 78.1665C68.6781 78.1438 68.6431 78.1124 68.6163 78.0746C68.5894 78.0368 68.5713 77.9935 68.5633 77.9478C68.483 77.5715 68.4576 77.1952 68.4069 76.8823Z" fill="#061725"/>
<path fill-rule="evenodd" clip-rule="evenodd" d="M85.9067 77.2668C85.7629 77.6896 85.6361 78.0828 85.4839 78.476C85.4204 78.6239 85.2851 78.7931 85.0611 78.6831C85.0205 78.6632 84.9845 78.6351 84.9554 78.6006C84.9263 78.5661 84.9047 78.5258 84.8919 78.4825C84.8792 78.4392 84.8756 78.3936 84.8815 78.3488C84.8873 78.304 84.9024 78.2609 84.9258 78.2223C85.0907 77.8544 85.2767 77.4908 85.4585 77.1315C85.5261 76.9962 85.5261 76.734 85.7925 76.8524C85.9574 76.9285 85.9193 77.1019 85.9067 77.2668Z" fill="#061725"/>
<path fill-rule="evenodd" clip-rule="evenodd" d="M75.5776 62.5539C75.6241 62.1987 75.3239 61.8901 75.4466 61.4546C75.8948 61.9831 76.2922 62.4651 76.0893 63.2008C75.6664 63.0866 75.751 62.7145 75.5607 62.5327L75.5776 62.5539Z" fill="#061725"/>
<path fill-rule="evenodd" clip-rule="evenodd" d="M78.0302 72.0153L76.8252 72.4C77.0239 71.5545 77.3622 71.4488 78.0302 72.0153Z" fill="#061725"/>
<path fill-rule="evenodd" clip-rule="evenodd" d="M107.352 42.7285C108.405 43.9124 108.472 45.333 108.329 46.7874C108.249 47.872 108.026 48.9412 107.665 49.9669C107.58 50.1868 107.491 50.5588 107.208 50.4954C106.853 50.4109 106.976 50.0219 107.031 49.7809C107.403 48.4925 107.652 47.1717 107.775 45.8361C107.86 44.7819 107.715 43.7217 107.352 42.7285Z" fill="#061725"/>
<path fill-rule="evenodd" clip-rule="evenodd" d="M77.967 30.8774C75.891 31.4651 74.4788 32.873 73.0878 34.3275C72.7961 34.6319 72.3775 35.2915 72.0731 35.004C71.701 34.653 72.3268 34.1879 72.5931 33.8455C73.7432 32.3657 75.168 31.2706 77.0749 30.9408C77.2482 30.9112 77.4258 30.8943 77.6034 30.8774C77.781 30.8605 77.8444 30.8774 77.967 30.8774Z" fill="#061725"/>
<path fill-rule="evenodd" clip-rule="evenodd" d="M77.645 42.0007C77.6154 42.5681 77.4092 43.112 77.0552 43.5563C76.7011 44.0006 76.217 44.323 75.6705 44.4784C76.2455 43.4805 77.1968 42.9478 77.645 42.0007Z" fill="#061725"/>
<path fill-rule="evenodd" clip-rule="evenodd" d="M46.1383 111.446C46.5104 111.446 46.6795 111.425 46.7598 111.594C46.7988 111.666 46.8087 111.75 46.7875 111.828C46.7662 111.907 46.7154 111.975 46.6457 112.017C45.6417 112.688 44.5349 113.191 43.369 113.505C43.3062 113.517 43.2411 113.509 43.1833 113.482C43.1255 113.454 43.078 113.409 43.0476 113.353C43.0267 113.329 43.0114 113.301 43.0029 113.27C42.9945 113.239 42.993 113.207 42.9987 113.176C43.0044 113.145 43.0171 113.115 43.0358 113.089C43.0545 113.064 43.0788 113.042 43.1068 113.027C44.1723 112.448 45.2293 111.903 46.1383 111.446Z" fill="#061725"/>
<path fill-rule="evenodd" clip-rule="evenodd" d="M51.3301 135.499C51.3301 134.971 51.3301 134.442 51.3301 133.91C51.3301 133.791 51.309 133.639 51.4823 133.626C51.6557 133.614 51.6895 133.757 51.6937 133.88C51.774 135.571 52.2138 137.165 52.5097 138.806C52.5393 138.958 52.607 139.186 52.3829 139.266C52.1588 139.347 52.0446 139.114 51.9601 138.945C51.3343 137.875 51.3047 136.687 51.3301 135.499Z" fill="#061725"/>
<path fill-rule="evenodd" clip-rule="evenodd" d="M70.3051 47.4084C70.9181 49.0997 69.9837 52.0889 68.6139 52.6005C69.6159 50.9642 69.8654 49.2434 70.3051 47.4084Z" fill="#061725"/>
<path fill-rule="evenodd" clip-rule="evenodd" d="M81.4974 52.7822C82.1696 51.1713 82.9899 49.6154 83.0744 47.6663C83.7382 48.977 82.7954 51.9746 81.4974 52.7822Z" fill="#061725"/>
<path fill-rule="evenodd" clip-rule="evenodd" d="M100.261 58.9639C99.3922 60.0781 98.4501 61.1332 97.441 62.1222C97.3564 61.1751 98.9716 59.3655 100.261 58.9639Z" fill="#061725"/>
<path fill-rule="evenodd" clip-rule="evenodd" d="M92.1222 55.7427C91.7924 54.8041 92.4055 53.2059 93.361 52.5759C92.8875 53.578 92.7353 54.7153 92.1222 55.7427Z" fill="#061725"/>
<path fill-rule="evenodd" clip-rule="evenodd" d="M59.8875 103.096C59.4647 103.041 58.9996 102.982 58.5261 102.901C58.395 102.88 58.1878 102.901 58.1963 102.673C58.2048 102.445 58.3823 102.436 58.5261 102.415C59.2533 102.313 59.9763 102.208 60.7078 102.132C63.2362 101.883 65.6542 100.971 67.7178 99.4892C67.8574 99.3919 68.0138 99.0959 68.2041 99.3243C68.3943 99.5526 68.0941 99.671 67.9715 99.802C65.7856 102.068 62.9867 102.795 59.8875 103.096Z" fill="#061725"/>
<path fill-rule="evenodd" clip-rule="evenodd" d="M8.44523 95.6675C9.46743 96.4122 10.5574 97.0592 11.7008 97.5997C12.4619 97.938 13.2398 98.2424 14.0093 98.5595C14.4863 98.73 14.9384 98.9631 15.3538 99.2529C15.4849 99.3502 15.709 99.4305 15.6371 99.6461C15.5652 99.8617 15.3285 99.7603 15.1763 99.7476C14.9481 99.7329 14.7232 99.686 14.5082 99.6081C12.3393 98.7624 10.2802 97.7096 8.52979 96.0987C8.44523 96.0226 8.31839 95.9465 8.44523 95.6675Z" fill="#061725"/>
<path fill-rule="evenodd" clip-rule="evenodd" d="M94.9296 123.162C95.0522 123.205 95.141 123.205 95.1664 123.247C96.1178 124.691 96.6746 126.358 96.7815 128.084C96.7815 128.325 96.9295 128.748 96.5616 128.777C96.1938 128.807 96.2192 128.38 96.1642 128.126C95.9824 127.28 95.8767 126.435 95.6737 125.589C95.4708 124.744 95.1917 124.012 94.9296 123.162Z" fill="#061725"/>
<path fill-rule="evenodd" clip-rule="evenodd" d="M100.857 151.372C102.337 150.83 103.817 150.289 105.297 149.744C105.453 149.689 105.61 149.659 105.72 149.803C105.83 149.947 105.69 150.129 105.555 150.226C105.049 150.613 104.455 150.87 103.826 150.974C102.87 151.194 101.902 151.359 100.942 151.545C100.904 151.498 100.879 151.435 100.857 151.372Z" fill="#061725"/>
<path fill-rule="evenodd" clip-rule="evenodd" d="M105.91 148.734C104.958 149.444 104.007 149.558 103.009 149.884C103.861 149.257 104.86 148.861 105.91 148.734Z" fill="#061725"/>
<path fill-rule="evenodd" clip-rule="evenodd" d="M61.8536 132.295C61.7902 132.769 61.5534 133.111 61.046 133.119C60.9367 133.132 60.8259 133.12 60.7215 133.086C60.617 133.051 60.5213 132.994 60.4409 132.919C60.3605 132.844 60.2974 132.752 60.2559 132.65C60.2144 132.549 60.1954 132.439 60.2004 132.329C60.1902 132.22 60.2033 132.109 60.2389 132.006C60.2745 131.902 60.3318 131.807 60.407 131.727C60.4822 131.647 60.5735 131.584 60.6749 131.542C60.7764 131.5 60.8856 131.48 60.9953 131.483C61.5111 131.475 61.7648 131.813 61.8536 132.295Z" fill="#C4C4C4"/>
<path fill-rule="evenodd" clip-rule="evenodd" d="M63.9422 116.415C63.8343 116.415 63.7276 116.392 63.6288 116.349C63.53 116.305 63.4413 116.242 63.3682 116.162C63.2952 116.083 63.2393 115.989 63.2042 115.887C63.1691 115.785 63.1555 115.677 63.1643 115.569C63.1577 115.459 63.1756 115.349 63.2166 115.246C63.2576 115.144 63.3208 115.052 63.4016 114.977C63.4825 114.902 63.5789 114.845 63.6841 114.812C63.7892 114.778 63.9005 114.768 64.0099 114.783C64.1182 114.78 64.2259 114.801 64.3256 114.844C64.4253 114.886 64.5146 114.95 64.5876 115.03C64.6605 115.11 64.7154 115.205 64.7485 115.308C64.7816 115.412 64.7921 115.521 64.7794 115.628C64.7778 115.736 64.7547 115.841 64.7114 115.939C64.6681 116.037 64.6056 116.126 64.5275 116.199C64.4494 116.273 64.3573 116.329 64.2568 116.366C64.1562 116.404 64.0493 116.42 63.9422 116.415Z" fill="#C4C4C4"/>
<path fill-rule="evenodd" clip-rule="evenodd" d="M59.7738 152.45C59.6643 152.448 59.5565 152.423 59.4571 152.377C59.3576 152.331 59.2687 152.265 59.1957 152.184C59.1228 152.102 59.0674 152.006 59.033 151.902C58.9986 151.798 58.986 151.688 58.9959 151.579C59.0162 151.376 59.1132 151.188 59.2672 151.054C59.4212 150.919 59.6206 150.849 59.8249 150.856C60.0291 150.864 60.2228 150.949 60.3665 151.094C60.5102 151.24 60.593 151.434 60.5983 151.638C60.6007 151.747 60.5809 151.855 60.5401 151.955C60.4993 152.055 60.4385 152.146 60.3613 152.222C60.2841 152.298 60.1921 152.358 60.0911 152.397C59.9901 152.436 59.8821 152.454 59.7738 152.45Z" fill="#C4C4C4"/>
<path fill-rule="evenodd" clip-rule="evenodd" d="M76.5168 79.5582C76.3646 79.5582 75.9883 79.63 75.612 79.6343C75.371 79.6343 75.0285 79.8161 74.9017 79.6047C74.7749 79.3933 74.9694 79.017 75.1004 78.7591C75.7388 77.5287 78.3982 77.0678 79.4468 77.9557C79.7216 78.1925 79.5229 78.2602 79.3622 78.3785C78.5064 78.966 77.5372 79.3678 76.5168 79.5582Z" fill="#061725"/>
<path fill-rule="evenodd" clip-rule="evenodd" d="M73.079 75.1062C75.4594 75.6601 77.7764 75.9941 80.1525 75.5924C78.1738 77.0554 73.7005 76.8144 73.079 75.1062Z" fill="#061725"/>
<path fill-rule="evenodd" clip-rule="evenodd" d="M19.0155 95.6122C19.4383 94.3945 19.8611 93.1853 20.2839 92.0057C21.1676 92.2847 21.7511 92.4834 22.1358 92.6145C21.7807 93.7899 21.4213 95.0499 20.9985 96.4198C20.8771 96.661 20.6693 96.8477 20.4164 96.9426C20.1635 97.0375 19.8842 97.0336 19.6341 96.9317C19.3839 96.8299 19.1813 96.6375 19.0667 96.393C18.9521 96.1484 18.9338 95.8696 19.0155 95.6122ZM21.3409 89.3166C22.9434 85.541 25.1208 82.2981 29.6617 80.4377C31.4798 79.6851 31.5136 79.8162 33.505 79.5625L31.6996 80.4081C26.4061 82.9745 24.4781 85.9046 23.066 89.8282L21.3409 89.3166Z" fill="#061725"/>
<path fill-rule="evenodd" clip-rule="evenodd" d="M69.9253 65.6612C69.8582 65.6513 69.7919 65.6372 69.7266 65.6189C68.974 65.3949 69.0924 65.3357 68.6188 64.4013C68.3102 64.6169 68.01 64.8241 67.7056 65.0608C67.8916 64.4013 68.4286 64.0715 68.8598 63.5557L68.2425 63.6571C68.1453 63.5979 68.1495 63.5726 68.2045 63.5345C68.6786 63.2336 69.2285 63.0738 69.79 63.0737C70.5215 63.0483 71.2571 63.0229 71.9928 63.0483C73.4684 63.1033 73.9546 63.4711 74.4409 64.8325C74.5762 65.2088 74.073 65.9572 73.684 65.9614C73.5783 65.9614 73.4726 65.9614 73.4388 65.8346C73.411 65.7581 73.411 65.6743 73.4388 65.5978L72.7285 65.6485C72.6482 65.6781 72.5425 65.7035 72.479 65.7204C71.7634 65.8963 71.0188 65.9208 70.2931 65.7923C70.1367 65.7627 69.9549 65.7416 69.9084 65.6612H69.9253ZM72.6059 61.4966C71.9491 61.5168 71.2925 61.4514 70.6525 61.3021C69.3841 61.0527 68.2256 61.0273 67.2701 62.3972C67.3123 62.0058 67.3858 61.6184 67.4899 61.2387C67.8366 60.0887 68.5174 59.7631 69.938 59.8561C71.0669 59.9322 72.1873 60.1521 73.3204 60.2789C73.4811 60.2789 73.5657 60.3381 73.6037 60.4015C73.6444 60.5077 73.6444 60.6252 73.6037 60.7313C73.5629 60.9582 73.4407 61.1623 73.2601 61.3055C73.0796 61.4487 72.853 61.5212 72.6228 61.5093L72.6059 61.4966ZM74.8933 60.3043C74.4155 58.4482 74.1745 56.1524 74.6142 54.6091C72.4547 54.6881 70.3039 54.9255 68.1791 55.3194C67.9887 55.34 67.8117 55.4273 67.6794 55.5658C67.5471 55.7043 67.468 55.8851 67.4561 56.0763C67.342 56.8796 67.1348 57.6702 67.0333 58.4736C66.9234 59.4502 66.8261 60.4269 66.7247 61.4036C66.5535 63.2478 66.2896 65.0823 65.934 66.9C65.6169 68.3968 65.3083 69.8977 65.5366 71.424C66.1444 75.487 67.1731 79.4758 68.6061 83.326C68.9317 84.197 69.2446 85.1018 69.9253 85.7867C70.5884 86.427 71.3715 86.9299 72.2296 87.2665C72.1463 86.3254 72.1975 85.3773 72.3818 84.4506C72.4164 84.1063 72.5186 83.7722 72.6826 83.4675C72.8466 83.1628 73.0691 82.8934 73.3373 82.6749C73.0431 82.4534 72.8079 82.163 72.6524 81.8293C71.8618 81.4064 71.4093 80.8145 71.4093 80.3706C71.4093 80.1042 71.6757 79.859 71.9844 79.6053C72.0351 79.4256 72.1364 79.2642 72.2761 79.1402C72.5817 78.8504 72.795 78.4768 72.8892 78.0663C72.8801 77.7692 72.8547 77.4728 72.8131 77.1784C72.7868 77.0977 72.7558 77.0186 72.7201 76.9416C72.4325 76.299 72.2085 75.6225 71.9632 74.9587C71.9167 74.8361 71.8448 74.7092 71.8026 74.5824C71.0711 73.3647 71.718 73.0518 72.2254 73.0518C72.7327 73.0518 73.8828 73.5127 75.371 73.6269C76.5591 73.7156 78.373 72.0878 79.0494 71.4325C79.0494 71.3479 79.0495 71.2634 79.0199 71.1746C78.0939 71.1746 75.24 71.2253 73.7686 70.9378C73.6429 70.9163 73.5197 70.8823 73.4008 70.8363C73.475 71.1355 73.5963 71.4209 73.7601 71.682C73.9194 71.9282 74.0526 72.1903 74.1576 72.4641C73.3963 71.9459 72.8342 71.1839 72.5636 70.3036C72.0436 70.9209 72.4495 71.424 72.8088 71.9356C72.6506 71.9131 72.4995 71.8552 72.3667 71.7664C72.2339 71.6775 72.1227 71.5599 72.0415 71.4222C71.9603 71.2846 71.9111 71.1304 71.8976 70.9712C71.884 70.812 71.9065 70.6517 71.9632 70.5023C72.0601 70.2139 72.2139 69.9479 72.4156 69.7201C73.887 68.1219 74.3901 66.0544 75.0878 64.0969C75.3837 63.2724 75.0117 62.3464 74.8975 61.4712C74.8604 61.2718 74.8406 61.0695 74.8383 60.8666C75.1681 61.3233 75.2019 61.9067 75.481 62.3803C75.4494 62.1164 75.3885 61.8569 75.2992 61.6065C75.1512 61.2049 75.0117 60.7609 74.8764 60.2662L74.8933 60.3043ZM68.9063 76.7387C69.0713 77.0783 69.173 77.445 69.2065 77.8211C69.2065 77.9775 69.1812 78.1382 68.9951 78.1762C68.952 78.1932 68.9056 78.2004 68.8593 78.1973C68.813 78.1942 68.768 78.1808 68.7276 78.1581C68.6871 78.1354 68.6522 78.1041 68.6253 78.0663C68.5985 78.0284 68.5804 77.9851 68.5723 77.9395C68.492 77.5716 68.4497 77.1953 68.399 76.874C68.4624 76.6457 68.2637 76.3666 68.5639 76.3159C68.8641 76.2652 68.826 76.5569 68.8894 76.7387H68.9063ZM76.8339 72.4007C77.0327 71.5551 77.3836 71.4494 78.0389 72.016L76.8339 72.4007ZM69.4052 83.6473C69.8281 84.8016 70.8935 85.3935 71.5996 86.2898C71.0149 86.1133 70.495 85.7687 70.1048 85.2988C69.7146 84.8289 69.4713 84.2545 69.4052 83.6473Z" fill="#D98B58"/>
<path fill-rule="evenodd" clip-rule="evenodd" d="M85.8604 122.756C88.1351 121.754 86.837 123.602 85.9999 123.885L85.3868 124.08C85.2794 124.496 85.2794 124.932 85.3868 125.348C85.4909 125.928 85.7218 126.478 86.0633 126.959L86.3973 126.849C88.5325 126.181 88.1224 127.23 87.2429 127.547C86.9808 127.644 86.6764 127.75 86.3508 127.855C86.1732 128.464 85.9914 129.483 86.5284 130.096C86.771 130.381 87.0384 130.645 87.3275 130.883C87.7968 130.747 88.2661 130.604 88.7312 130.46C88.8792 131.267 88.6847 131.491 87.8433 131.589C87.9483 132.055 88.1984 132.477 88.5576 132.793C88.9168 133.109 89.3668 133.303 89.8432 133.348C91.9022 133.69 96.7011 130.946 96.7011 130.946L98.2232 128.164C97.766 125.603 96.8354 123.15 95.4792 120.93C94.2192 118.819 93.1631 116.594 92.325 114.283C91.9204 113.266 91.8076 112.156 91.9995 111.078C92.101 110.482 92.3166 109.873 92.1559 109.201C90.4647 109.725 89.3612 110.74 89.0525 112.461C88.8094 114.019 88.8094 115.605 89.0525 117.163C89.099 117.539 89.2978 117.632 89.636 117.691C90.4586 117.775 91.2304 118.128 91.8304 118.697C91.6316 118.888 91.4963 118.773 91.3568 118.74C89.9183 118.385 88.4106 118.426 86.9935 118.858C86.3424 119.048 85.6955 119.255 85.0486 119.467C84.6892 120.989 85.4206 122.426 85.8434 122.714L85.8773 122.739L85.8604 122.756ZM95.6737 125.593C95.4749 124.79 95.1917 124.012 94.9295 123.162C95.0521 123.204 95.1409 123.204 95.1663 123.247C96.1177 124.69 96.6745 126.358 96.7814 128.084C96.7814 128.325 96.9294 128.747 96.5616 128.777C96.1937 128.807 96.2191 128.38 96.1641 128.126C95.9654 127.285 95.8766 126.426 95.6737 125.593Z" fill="#EDCBAA"/>
<path fill-rule="evenodd" clip-rule="evenodd" d="M91.0317 113.983C90.6511 112.516 90.9386 110.972 91.5982 109.412C90.9354 109.646 90.3478 110.054 89.8976 110.593C89.4473 111.133 89.1511 111.784 89.0402 112.478C88.7971 114.035 88.7971 115.621 89.0402 117.179C89.0867 117.556 89.2855 117.649 89.6237 117.708C90.3267 117.79 90.9958 118.056 91.5644 118.477C91.5057 116.967 91.3276 115.465 91.0317 113.983Z" fill="#D98B58"/>
<path fill-rule="evenodd" clip-rule="evenodd" d="M94.4435 152.167C93.5598 151.744 90.2154 156.818 90.2408 156.648C90.9638 153.08 93.6232 151.177 93.7839 147.55C93.9023 144.966 92.8199 141.241 93.3991 136.937C93.3696 136.599 93.4245 136.197 92.8622 136.223C91.9278 136.265 91.023 136.578 90.0759 136.515C89.9237 136.515 89.8645 136.646 89.8095 136.751C89.4121 137.555 88.7103 137.669 87.9323 137.538C87.156 137.419 86.3868 137.258 85.628 137.056C84.9745 136.897 84.3457 136.649 83.7592 136.32C84.0087 138.096 85.2137 138.73 87.2558 139.314C90.4607 140.227 90.4607 140.798 90.4607 140.798L90.1182 150.746L84.3977 160.695L84.2497 161.333L84.1905 161.587C85.4589 161.481 96.7097 159.929 96.9127 159.08C96.9592 158.906 95.4159 152.632 94.4435 152.167Z" fill="#C4C4C4"/>
<path fill-rule="evenodd" clip-rule="evenodd" d="M121.486 136.498C118.074 137.952 113.605 138.248 109.009 138.189C109.231 139.906 109.307 141.638 109.238 143.368C109.204 143.998 109.436 144.214 109.994 144.319C111.094 144.548 111.263 144.463 112.32 144.193C114.288 143.694 116.169 142.901 117.901 141.842C119.695 140.733 121.328 139.383 122.755 137.829C123.809 136.746 124.618 135.448 125.127 134.024C124.1 135.095 122.86 135.938 121.486 136.498Z" fill="#C4C4C4"/>
<path fill-rule="evenodd" clip-rule="evenodd" d="M99.4577 108.867C98.9927 110.559 99.0899 112.25 99.1153 113.979C99.2294 113.594 99.2971 113.205 99.3901 112.816C99.9408 110.486 100.834 108.251 102.041 106.183L99.4577 108.867Z" fill="#C4C4C4"/>
<path fill-rule="evenodd" clip-rule="evenodd" d="M98.5025 111.726C98.7252 111.033 98.8546 110.313 98.8872 109.586C98.8872 109.54 98.8872 109.489 98.8872 109.442L98.2996 110.055C98.3799 110.597 98.4433 111.129 98.5025 111.726Z" fill="#C4C4C4"/>
<path fill-rule="evenodd" clip-rule="evenodd" d="M97.7076 115.945C97.6027 114.156 97.665 112.361 97.8936 110.584C97.4919 111.294 96.0798 113.755 94.5492 116.173C94.9931 117.061 95.4244 117.865 95.9614 118.875C96.1281 119.263 96.3645 119.617 96.659 119.919C97.6568 118.516 97.8006 117.657 97.7076 115.945Z" fill="#C4C4C4"/>
<path fill-rule="evenodd" clip-rule="evenodd" d="M106.303 52.7404C105.656 52.7989 105.003 52.7358 104.379 52.5544C105.267 52.1198 106.245 51.8996 107.233 51.9117C107.521 51.9117 107.736 51.9117 107.914 51.5946C110.134 47.5103 109.964 42.851 106.341 39.6588C105.509 38.9063 104.552 38.3053 103.512 37.8831C105.952 45.113 105.14 49.8695 102.836 50.7701C102.101 51.0566 101.343 51.2788 100.57 51.4339C100.713 51.9371 100.866 52.4317 101.035 52.918C101.792 55.1039 102.616 57.2602 104.197 59.0148C105.259 60.1902 106.502 60.7483 108.142 59.9534C108.586 62.7947 107.783 64.9425 105.157 66.2574C105.433 66.2723 105.71 66.2424 105.977 66.1686C110.51 64.9002 112.704 58.3552 109.846 54.605C108.967 53.4507 107.867 52.677 106.303 52.7404ZM107.664 49.9668C107.58 50.1866 107.491 50.5587 107.208 50.4953C106.853 50.4107 106.975 50.0218 107.03 49.7808C107.403 48.4924 107.652 47.1715 107.774 45.836C107.859 44.7818 107.715 43.7216 107.351 42.7284C108.404 43.9122 108.472 45.3329 108.328 46.7873C108.249 47.8719 108.026 48.9411 107.664 49.9668Z" fill="#C4C4C4"/>
<path fill-rule="evenodd" clip-rule="evenodd" d="M94.6551 51.4797C96.1942 52.9342 96.5705 53.987 95.8644 55.8008C95.2312 57.2832 94.3975 58.6717 93.3867 59.9274C93.6277 60.1345 93.8687 60.3502 94.1055 60.5574C95.3105 61.6566 96.3887 62.8701 97.4879 64.0709C96.6888 62.35 95.4373 60.9675 94.19 59.568C95.1418 60.056 95.9814 60.7371 96.655 61.5679C97.3104 62.4135 97.8981 63.314 98.5534 64.24C99.3483 62.4642 100.105 60.7476 100.892 59.0522C100.952 58.9313 100.974 58.7952 100.955 58.6616C100.936 58.528 100.877 58.4033 100.786 58.3038C99.1174 55.7181 97.048 53.4146 94.6551 51.4797ZM97.4414 62.1217C97.3569 61.1746 98.972 59.365 100.262 58.9634C99.3927 60.0776 98.4505 61.1327 97.4414 62.1217Z" fill="#C4C4C4"/>
<path fill-rule="evenodd" clip-rule="evenodd" d="M48.1885 90.331C48.1885 86.7964 47.5162 83.5154 41.9691 78.0951C41.0389 77.9626 40.1031 77.8738 39.1616 77.8287C37.4443 77.7479 35.7232 77.8101 34.0161 78.0147C30.8113 78.3953 27.6487 78.983 24.7144 80.3655C23.2896 81.0293 22.0423 81.8918 21.2348 83.3252C20.1862 85.177 19.6619 86.4328 18.7783 88.3692C18.5923 88.792 18.5965 88.9442 19.07 89.1133C23.7209 90.8045 27.061 91.8616 30.3166 92.5211C34.5446 93.3667 38.6205 93.5908 45.3557 93.6881L47.7361 93.65C47.9856 93.13 48.2054 92.1617 48.2054 90.3437L48.1885 90.331ZM31.6992 80.4078C26.4057 82.9742 24.4777 85.9042 23.0655 89.8279L21.3743 89.3163C22.9767 85.5406 25.1542 82.2977 29.6951 80.4374C31.5131 79.6848 31.547 79.8159 33.5384 79.5622L31.6992 80.4078Z" fill="#061725"/>
<path fill-rule="evenodd" clip-rule="evenodd" d="M39.0305 94.3653C35.9651 94.2173 32.921 93.9425 29.9106 93.5197C25.8804 92.9549 21.9254 91.9438 18.1186 90.5051C17.7381 90.3571 17.6239 90.5051 17.5182 90.8137C17.0954 91.9299 16.6726 93.0377 16.2752 94.1581C15.7889 95.5153 15.8524 95.6929 17.1208 96.4877C17.3552 96.6419 17.598 96.7831 17.848 96.9105C19.6075 97.7554 21.4693 98.368 23.3867 98.7328C24.9596 99.0711 26.538 99.3684 28.1221 99.6249C34.277 100.579 40.4972 101.048 46.7255 101.029H46.7805C46.8523 100.572 46.9707 99.7602 47.1568 98.4707C47.3423 97.1724 47.3266 95.8533 47.1102 94.5598C44.417 94.5936 41.728 94.5175 39.0347 94.3864L39.0305 94.3653ZM22.1479 92.6149C21.7928 93.7903 21.4334 95.0502 21.0106 96.4201C20.9035 96.6847 20.6957 96.896 20.4328 97.0074C20.17 97.1188 19.8736 97.1212 19.609 97.0141C19.3443 96.907 19.1331 96.6992 19.0217 96.4364C18.9103 96.1735 18.9078 95.8772 19.0149 95.6125C19.4377 94.3949 19.8605 93.1856 20.2833 92.006C21.1797 92.2851 21.7632 92.4838 22.1479 92.6149Z" fill="#061725"/>
<path fill-rule="evenodd" clip-rule="evenodd" d="M8.72437 92.6616C8.97805 95.7269 14.3223 98.9783 27.7505 101.316C28.4101 101.431 29.0866 101.54 29.78 101.65C46.9458 104.361 64.1074 102.919 68.9739 97.7437C68.8767 97.6465 68.771 97.5534 68.6653 97.4646C66.6485 95.7988 64.23 95.135 61.6975 94.226C61.9892 95.6043 62.1964 96.8516 62.5431 98.065C62.6636 98.4143 62.6591 98.7945 62.5303 99.1408C62.4015 99.4871 62.1564 99.7778 61.837 99.9634C61.0575 100.489 60.1805 100.853 59.2579 101.033C55.7317 101.879 52.1294 102.039 48.5271 102.086C41.726 102.187 34.9281 101.726 28.2029 100.708L27.8985 100.661C24.6223 100.194 21.4013 99.3998 18.284 98.2891C17.1214 97.9154 16.0569 97.2871 15.1679 96.4499C14.8992 96.2178 14.7129 95.9051 14.6367 95.5583C14.5605 95.2116 14.5985 94.8495 14.7451 94.5262C15.2651 93.2239 15.7006 91.8879 16.1953 90.4968C14.22 90.787 12.2802 91.2815 10.4071 91.9724C9.83181 92.1653 9.2697 92.3955 8.72437 92.6616Z" fill="#061725"/>
<path fill-rule="evenodd" clip-rule="evenodd" d="M58.1541 110.22C58.467 109.556 58.7503 108.88 59.0293 108.199C59.5753 106.951 60.2408 105.759 61.0165 104.639C57.9053 105.143 54.7667 105.461 51.6176 105.59C52.1757 111.231 53.072 116.799 51.6937 122.397C52.7507 120.765 53.4356 118.947 54.4292 117.15C54.4882 117.277 54.5205 117.414 54.5241 117.554C54.5278 117.693 54.5027 117.832 54.4503 117.962C54.0204 119.789 53.3071 121.538 52.3363 123.145C52.1845 123.377 52.0743 123.633 52.0108 123.902C51.5626 126.215 51.1271 128.553 50.6282 130.836C50.0454 133.576 50.2001 136.421 51.0764 139.081C51.6556 140.924 52.1757 142.776 52.1207 144.738C52.0869 146.129 51.662 147.483 50.8946 148.645C51.3242 147.324 51.5006 145.934 51.4146 144.548C51.2894 143.117 50.965 141.711 50.4506 140.37C49.8798 143.956 48.3366 150.446 46.8399 153.507C47.9941 153.38 48.6241 153.431 50.1504 153.249C51.7951 146.831 52.7126 140.988 52.5266 139.411C52.3406 137.834 52.5266 139.263 52.5012 139.187C52.4711 139.223 52.4317 139.251 52.3871 139.267C52.1165 139.36 52.0488 139.115 51.9643 138.946C51.347 137.876 51.3174 136.688 51.3427 135.5C51.3427 134.971 51.3427 134.443 51.3427 133.91C51.3427 133.792 51.3216 133.639 51.495 133.627C51.6683 133.614 51.7021 133.758 51.7064 133.88C51.8209 135.258 52.0399 136.625 52.3617 137.969C51.867 133.821 51.1905 127.276 53.2073 124.439C55.4947 121.234 55.8371 113.806 55.8371 113.806C55.8371 113.806 56.3107 114.004 59.2703 113.996C59.3211 113.628 59.376 113.26 59.4268 112.892C59.4902 112.44 59.4056 112.258 58.9109 112.258C58.4303 112.237 57.9515 112.185 57.4776 112.102C57.2493 112.072 57.0125 112.017 56.9618 111.734C56.9452 111.679 56.94 111.621 56.9465 111.564C56.953 111.507 56.971 111.452 56.9995 111.402C57.028 111.352 57.0663 111.309 57.1122 111.274C57.158 111.24 57.2105 111.215 57.2662 111.201C57.7863 111.066 57.9639 110.626 58.1541 110.22Z" fill="#C4C4C4"/>
<path fill-rule="evenodd" clip-rule="evenodd" d="M72.9648 105.667C71.5442 107.7 69.9164 109.531 67.7643 110.829C65.6968 112.098 63.4137 112.423 61.046 112.415C60.6781 112.415 60.3864 112.377 60.3188 112.918C60.2765 113.273 60.23 113.628 60.1877 113.983C60.9022 113.983 61.7351 113.949 62.7245 113.916C68.7833 113.687 73.358 107.853 73.358 107.853L75.5312 110.711C77.6453 113.489 82.4398 114.537 87.4247 116.478C87.4247 116.22 87.3697 115.899 87.319 115.497C87.3214 115.362 87.2793 115.23 87.199 115.121C87.1187 115.013 87.0048 114.934 86.8751 114.897C84.6384 114.081 83.1544 113.083 80.867 112.406C79.5021 111.991 78.2644 111.238 77.269 110.216C75.7644 108.647 74.4929 106.87 73.4933 104.939L72.9648 105.667Z" fill="#C4C4C4"/>
<path fill-rule="evenodd" clip-rule="evenodd" d="M61.7691 93.1268L65.0415 94.3149C64.5215 93.7568 63.9465 93.1141 63.3503 92.5053C62.8778 92.045 62.346 91.6497 61.7691 91.3299C61.5196 91.1819 61.2321 91.0804 61.0419 91.3637C60.8516 91.647 61.5154 93.038 61.7691 93.1268Z" fill="#C4C4C4"/>
<path fill-rule="evenodd" clip-rule="evenodd" d="M82.2711 93.7014C84.6769 89.9723 86.4992 85.4483 87.8817 81.3513C85.2976 85.2768 82.1459 88.7976 78.5293 91.7988C78.1781 92.0925 77.7635 92.3008 77.3182 92.4072C76.8729 92.5135 76.4089 92.5152 75.9629 92.4119C74.637 92.1631 73.3824 91.6246 72.2887 90.8348C72.1238 90.7164 72.0012 90.4966 71.7391 90.5431C71.6883 92.5049 72.8172 94.0058 73.6417 95.6167C73.87 96.0649 74.4577 96.1241 74.9313 96.1452C75.4048 96.1664 75.2484 95.6505 75.4217 95.4011C75.6712 95.0333 75.6796 94.509 76.1447 94.2342C76.318 94.9445 76.0094 95.5533 75.9164 96.2298C77.43 96.1368 78.838 95.9592 80.0852 95.0924C80.7955 94.5766 81.527 94.1285 82.2711 93.7014Z" fill="#D98B58"/>
<path fill-rule="evenodd" clip-rule="evenodd" d="M86.5457 57.8009C88.313 58.841 89.8309 60.5406 90.9217 62.0035C91.0781 62.2107 91.2219 62.4263 91.3445 62.6081C91.3656 62.4517 91.3868 62.2953 91.4122 62.143C91.4925 61.5934 91.5897 61.048 91.6997 60.5026C91.7682 60.3213 91.7696 60.1215 91.7037 59.9393C91.6378 59.7571 91.5089 59.6045 91.3403 59.509C86.491 55.9944 80.5762 54.2632 74.5972 54.6087C74.5676 54.7144 74.538 54.8243 74.5168 54.9343C78.7213 54.6844 82.9058 55.6817 86.5457 57.8009Z" fill="#D98B58"/>
<path fill-rule="evenodd" clip-rule="evenodd" d="M96.9211 72.3875C97.2171 72.861 97.0987 73.2965 96.6463 73.7489C96.5829 73.2796 96.6801 72.7976 96.2235 72.5735C96.0965 72.5139 95.9579 72.483 95.8176 72.483C95.6773 72.483 95.5388 72.5139 95.4118 72.5735C95.0355 72.7299 94.8452 72.8695 95.2173 73.3092C95.805 74.011 95.6401 74.8313 94.972 75.2076C95.7084 75.1182 96.4053 74.8254 96.9846 74.362C96.9757 74.1882 97.0297 74.0171 97.1368 73.88C97.4557 73.4217 97.7051 72.9188 97.8767 72.3875C98.0034 72.0005 98.0367 71.589 97.9739 71.1867C97.9676 70.9871 97.906 70.7932 97.796 70.6266C97.686 70.46 97.5318 70.3272 97.3508 70.2431C97.1698 70.1589 96.9689 70.1267 96.7706 70.1499C96.5723 70.1732 96.3844 70.2511 96.2278 70.3749C95.677 70.7271 95.2544 71.2476 95.0228 71.8589C95.8303 71.6602 96.4899 71.7025 96.9211 72.3875Z" fill="#D98B58"/>
<path fill-rule="evenodd" clip-rule="evenodd" d="M107.58 137.419C106.789 138.011 104.134 138.405 100.574 138.303C100.884 143.163 100.549 148.042 99.5764 152.814C101.657 152.327 103.597 151.871 105.542 151.423C105.68 151.395 105.806 151.328 105.907 151.231C106.008 151.133 106.08 151.009 106.113 150.873C106.519 149.889 106.816 148.864 107.001 147.816C107.467 144.371 107.667 140.895 107.597 137.419H107.58ZM103.01 149.884C103.861 149.257 104.86 148.861 105.91 148.734C104.959 149.444 104.007 149.558 103.01 149.884ZM100.858 151.372C102.337 150.831 103.817 150.29 105.297 149.744C105.453 149.689 105.61 149.66 105.72 149.803C105.83 149.947 105.69 150.129 105.555 150.226C105.049 150.614 104.455 150.871 103.826 150.975C102.87 151.194 101.902 151.359 100.942 151.545C100.904 151.499 100.879 151.435 100.858 151.372Z" fill="#C4C4C4"/>
<path fill-rule="evenodd" clip-rule="evenodd" d="M72.2631 103.189C67.3459 104.593 63.7013 107.929 59.7058 110.863C60.1614 110.933 60.6271 110.899 61.0672 110.761C63.7436 110.339 66.365 109.793 68.2549 107.586C68.7496 107.011 69.3457 106.525 69.8573 105.963C70.7292 105.101 71.5335 104.174 72.2631 103.189Z" fill="#061725"/>
<path fill-rule="evenodd" clip-rule="evenodd" d="M75.4472 104.233C75.836 105.39 76.4644 106.451 77.2913 107.348C78.1182 108.245 79.125 108.957 80.246 109.438C81.9034 110.157 83.6285 110.745 85.214 111.687C84.25 110.47 83.324 109.214 82.3093 108.043C80.58 106.043 78.6943 104.208 76.2378 103.092C76.0306 102.995 75.777 102.737 75.5656 102.956C75.4631 103.07 75.3871 103.204 75.3433 103.351C75.2994 103.497 75.2887 103.651 75.3119 103.802C75.3411 103.95 75.3865 104.095 75.4472 104.233Z" fill="#061725"/>
<path fill-rule="evenodd" clip-rule="evenodd" d="M16.6982 97.7396C15.4678 96.894 12.2799 95.1774 12.4955 93.2917C14.6095 95.2028 14.4912 95.1943 17.2648 96.6192C17.6072 96.8517 17.9793 97.2026 17.7425 97.5451C17.6296 97.7091 17.4563 97.8216 17.2605 97.858C17.0648 97.8945 16.8626 97.8519 16.6982 97.7396Z" fill="#061725"/>
<path fill-rule="evenodd" clip-rule="evenodd" d="M62.4205 117.049C64.7882 116.33 64.598 116.482 66.3907 115.188L66.2511 115.785C65.5239 117.527 63.8327 117.307 62.4205 117.049Z" fill="#061725"/>
<path fill-rule="evenodd" clip-rule="evenodd" d="M59.4439 133.982C61.8159 133.267 61.6256 133.415 63.4183 132.126L63.2788 132.718C62.5346 134.451 60.873 134.227 59.4439 133.982Z" fill="#061725"/>
<path fill-rule="evenodd" clip-rule="evenodd" d="M58.3022 153.308C60.6741 152.59 60.4796 152.742 62.2765 151.448L62.1328 152.044C61.3929 153.773 59.7143 153.549 58.3022 153.308Z" fill="#061725"/>
</g>
</g>
<defs>
<clipPath id="clip0_15_374">
<rect x="0.5" y="0.990234" width="160" height="160" rx="80" fill="white"/>
</clipPath>
<clipPath id="clip1_15_374">
<rect width="123.197" height="134.469" fill="white" transform="translate(4.98224 27.8835)"/>
</clipPath>
</defs>
</svg>
