<svg width="160" height="160" viewBox="0 0 160 160" fill="none" xmlns="http://www.w3.org/2000/svg">
<rect width="160" height="160" rx="80" fill="#F8FDFF"/>
<g clip-path="url(#clip0_15_703)">
<path d="M83.3125 142.228C82.6439 142.228 82.0027 141.963 81.53 141.49C81.0572 141.017 80.7916 140.376 80.7916 139.708V106.999L29.451 90.6998C28.9535 90.5375 28.5174 90.2272 28.2012 89.8102C27.885 89.3933 27.7038 88.8897 27.6817 88.3668L26.8362 62.2346C26.8277 61.8869 26.8899 61.541 27.0191 61.218C27.1483 60.895 27.3417 60.6017 27.5878 60.3557C27.8352 60.1139 28.1296 59.9252 28.4527 59.8013C28.7758 59.6775 29.1209 59.6211 29.4666 59.6355L51.387 60.4654C52.0557 60.4979 52.6848 60.7918 53.1388 61.2839C53.5928 61.7759 53.8352 62.4267 53.8139 63.0958C53.806 63.4296 53.7311 63.7584 53.5936 64.0627C53.456 64.367 53.2586 64.6405 53.0132 64.8669C52.7678 65.0934 52.4793 65.2681 52.165 65.3808C51.8507 65.4934 51.5168 65.5417 51.1835 65.5227L31.9875 64.7868L32.6764 86.4097L84.0797 102.756C84.5908 102.921 85.0369 103.242 85.3545 103.675C85.6722 104.108 85.8452 104.63 85.849 105.167V139.708C85.849 140.04 85.7833 140.369 85.6556 140.676C85.5279 140.983 85.3408 141.261 85.1051 141.496C84.8694 141.73 84.5896 141.915 84.2819 142.041C83.9743 142.167 83.6448 142.23 83.3125 142.228Z" fill="#061725"/>
<path d="M85.0819 110.193H82.3888C79.5957 110.193 77.3315 112.457 77.3315 115.25V148.961C77.3315 151.754 79.5957 154.018 82.3888 154.018H85.0819C87.875 154.018 90.1393 151.754 90.1393 148.961V115.25C90.1393 112.457 87.875 110.193 85.0819 110.193Z" fill="#061725"/>
<path d="M126.308 78.0639C126.308 81.1953 126.199 75.2299 125.995 78.0639C125.776 80.6473 125.463 78.7215 125.071 78.0639C124.664 80.9605 124.163 78.8467 123.584 78.0639C123.478 78.2321 123.332 78.3707 123.158 78.4668C122.984 78.5629 122.788 78.6133 122.59 78.6133C122.391 78.6133 122.196 78.5629 122.022 78.4668C121.848 78.3707 121.701 78.2321 121.595 78.0639C120.844 82.2287 120.03 78.424 119.137 78.0639C118.245 79.2382 117.274 78.8154 116.256 78.0639C115.239 76.3415 114.143 74.7915 113 78.0639C111.872 77.1088 110.667 75.4334 109.43 78.0639C108.193 80.1776 106.893 76.9835 105.578 78.0639C104.247 76.3885 102.885 83.8414 101.491 78.0639C100.098 80.8352 98.6573 74.5253 97.2169 78.0639C95.7838 77.5863 94.2346 77.5863 92.8015 78.0639C91.2358 81.0231 89.8109 76.3729 88.2922 78.0639C86.7264 75.6839 85.2546 80.569 83.7358 78.0639C82.2171 75.5587 80.6983 76.0597 79.1952 78.0639C77.6295 77.5785 76.1733 80.4125 74.6859 78.0639C73.2247 77.8132 71.7316 77.8132 70.2705 78.0639C68.8143 77.0774 67.3895 74.2748 65.996 78.0639C64.6025 78.1735 63.2246 77.5785 61.9094 78.0639C60.5785 79.0033 59.2946 81.3676 58.0577 78.0639C56.8051 77.187 55.6151 78.6588 54.4721 78.0639C53.3292 78.3457 52.2488 77.829 51.2311 78.0639C50.1977 77.7037 49.2426 76.185 48.3501 78.0639C47.4576 76.7173 46.6278 75.8718 45.8919 78.0639C45.1403 80.9918 44.4827 78.33 43.9034 78.0639C43.3084 79.2068 42.823 77.5002 42.4159 78.0639C42.0089 78.6275 41.6957 75.8562 41.4922 78.0639C41.2886 78.7215 41.179 75.4491 41.179 78.0639V48.5653C41.179 48.5653 41.2886 49.4891 41.4922 48.5653C41.6957 44.3535 42.0089 49.8492 42.4159 48.5653C42.823 49.7553 43.3084 45.2616 43.9034 48.5653C44.4827 49.7553 45.1403 46.5455 45.8919 48.5653C46.6278 52.6675 47.4576 48.44 48.3501 48.5653C49.2426 49.8335 50.1977 50.3972 51.2311 48.5653C52.2488 43.9777 53.3292 50.0214 54.4721 48.5653C55.6151 48.0799 56.8051 46.3576 58.0577 48.5653C59.2946 40.1886 60.5785 52.3387 61.9094 48.5653C63.2246 48.2208 64.6025 52.9024 65.996 48.5653C67.3895 49.9745 68.8143 52.4796 70.2705 48.5653C71.7109 49.3951 73.1984 46.3106 74.6859 48.5653C76.1733 46.3576 77.6764 50.82 79.1952 48.5653C80.7609 50.3816 82.2171 48.2991 83.7358 48.5653C85.3016 48.5653 86.789 45.7313 88.2922 48.5653C89.8579 46.4202 91.314 48.0329 92.8015 48.5653C94.289 52.6675 95.7607 54.5464 97.2169 48.5653C98.6573 44.2125 100.098 40.9871 101.491 48.5653C102.885 49.583 104.247 50.9139 105.578 48.5653C106.893 55.3136 108.193 48.7688 109.43 48.5653C110.667 45.1676 111.872 50.7886 113 48.5653C114.143 48.5653 115.239 42.0675 116.256 48.5653C117.274 52.6519 118.245 47.8294 119.137 48.5653C120.03 52.8241 120.844 49.8492 121.595 48.5653C122.331 49.9588 123.005 45.1676 123.584 48.5653C124.163 46.6707 124.664 48.5653 125.071 48.5653H126.308V78.0639Z" fill="#061725"/>
<path d="M127.215 68.4821C127.215 68.6007 127.192 68.718 127.146 68.8273C127.1 68.9366 127.033 69.0357 126.948 69.1188C126.864 69.2019 126.764 69.2673 126.654 69.3112C126.544 69.3551 126.426 69.3767 126.307 69.3746C126.189 69.3767 126.071 69.3551 125.961 69.3112C125.851 69.2673 125.751 69.2019 125.666 69.1188C125.581 69.0357 125.514 68.9366 125.469 68.8273C125.423 68.718 125.399 68.6007 125.399 68.4821V59.0877C125.399 58.9692 125.423 58.8518 125.469 58.7425C125.514 58.6332 125.581 58.5341 125.666 58.451C125.751 58.3679 125.851 58.3025 125.961 58.2586C126.071 58.2147 126.189 58.1931 126.307 58.1952C126.426 58.1931 126.544 58.2147 126.654 58.2586C126.764 58.3025 126.864 58.3679 126.948 58.451C127.033 58.5341 127.1 58.6332 127.146 58.7425C127.192 58.8518 127.215 58.9692 127.215 59.0877V68.4821Z" fill="#061725"/>
<path d="M83.5937 150.526C83.5937 150.916 83.4386 151.291 83.1626 151.567C82.8866 151.843 82.5122 151.998 82.1219 151.998C81.7315 151.998 81.3572 151.843 81.0812 151.567C80.8051 151.291 80.6501 150.916 80.6501 150.526V113.715C80.6687 113.33 80.8293 112.964 81.101 112.69C81.3727 112.415 81.7363 112.251 82.1219 112.228C82.5075 112.251 82.8711 112.415 83.1427 112.69C83.4144 112.964 83.575 113.33 83.5937 113.715V150.526Z" fill="#061725"/>
</g>
<defs>
<clipPath id="clip0_15_703">
<rect width="100.364" height="110.025" fill="white" transform="translate(26.8352 44.0095)"/>
</clipPath>
</defs>
</svg>
