<svg width="16" height="18" viewBox="0 0 16 18" fill="none" xmlns="http://www.w3.org/2000/svg">
<g clip-path="url(#clip0_1_3089)">
<path d="M9.12722 8.53949L11.3442 6.46131C7.29491 4.21351 1.3115 0.915813 0.973355 0.868652L0.946289 0.871254L9.12722 8.53949Z" fill="#00F177"/>
<path d="M0.455657 1.3313L0.452881 1.35651V16.6432L0.455483 16.6674L8.63641 8.99937L0.455657 1.3313Z" fill="#00D2FF"/>
<path d="M9.12833 9.46045L0.947754 17.1285L0.973432 17.1313C1.31314 17.0805 7.2955 13.7845 11.3442 11.5377L9.12833 9.46045Z" fill="#E42A50"/>
<path d="M15.0267 8.512C15.0267 8.512 13.7477 7.79678 11.9619 6.80444L9.61914 9.00053L11.9608 11.1955C13.7472 10.203 15.0267 9.48775 15.0267 9.48775C15.3055 9.35049 15.5472 9.26934 15.5472 8.99988C15.5472 8.73057 15.2724 8.63804 15.0267 8.512Z" fill="#FFCD00"/>
</g>
<defs>
<clipPath id="clip0_1_3089">
<rect width="15.0943" height="16.2626" fill="white" transform="translate(0.452881 0.868652)"/>
</clipPath>
</defs>
</svg>
