<svg width="1664" height="695" viewBox="0 0 1664 695" fill="none" xmlns="http://www.w3.org/2000/svg">
<g opacity="0.51">
<path d="M1270.44 382.594C1270.38 408.922 1248.96 430.894 1203.83 448.745C1154.74 468.159 1107.83 488.707 1056.19 506.821C992.741 529.084 897.807 527.466 842.983 504.761C800.856 487.31 771.295 466.251 756.286 441.776C748.636 429.304 746.422 416.679 754.528 404.303C763.905 389.992 786.401 379.317 814.594 370.979C893.901 347.513 978.058 327.961 1073.68 319.886C1106.36 317.12 1142.01 316.802 1174.83 319.139C1220.86 322.416 1249.25 336.341 1260.87 355.464C1266.21 364.272 1267.38 373.537 1270.44 382.594ZM1014.33 417.979C1046.65 415.338 1077.45 407.912 1096.95 393.227C1103.33 388.415 1104.12 383.631 1095.85 379.04C1086.99 374.104 1075.6 371.186 1060.69 372.763C1025.1 376.51 995.866 383.977 979.784 398.786C968.584 409.102 981.997 418.186 1014.33 417.979Z" stroke="white" stroke-width="2.66327" stroke-miterlimit="10"/>
<path d="M2133.74 684.867C2115.51 685.89 2097.24 686.789 2079.08 687.978C2003.25 692.928 1938.89 680.621 1901.55 651.501C1873.13 629.335 1848.12 606.284 1824.81 583.04C1779.49 537.824 1712.36 500.144 1616.81 472.336C1568.6 458.315 1517.52 446.092 1468.03 432.859C1430.66 422.875 1402.46 409.365 1388.95 391.348C1376.61 374.907 1367.11 358.093 1355.55 341.541C1343.89 324.879 1328.27 309.06 1298.9 296.27C1277.25 286.839 1250.46 282.829 1220.67 281.17C1156.5 277.588 1096.05 285.346 1035.56 292.315C961.296 300.86 887.948 310.885 813.329 318.753C775.792 322.708 736.432 323.773 697.69 325.307C661.162 326.759 631.797 337.448 626.946 352.852C616.593 385.72 626.327 417.538 655.888 448.235C674.543 467.621 692.807 487.077 712.015 506.352C735.65 530.053 749.063 554.942 759.937 580.095C768.857 600.67 787.935 619.047 818.05 635.64C874.437 666.725 869.521 711.609 807.241 737.398C785.656 746.33 760.198 752.967 730.865 756.438C688.965 761.388 668.227 754.502 665.687 735.973C663.604 720.625 661.618 705.179 655.628 690.066C649.214 673.86 628.248 661.18 591.915 653.976C546.239 644.932 500.368 636.069 454.854 626.887C395.895 614.996 344.978 598.112 300.246 578.27C263.653 562.036 231.097 544.157 196.783 526.997C152.409 504.79 103.64 484.491 44.6482 469.446C-22.1893 452.397 -90.9477 436.703 -158.078 419.847C-190.211 411.785 -221.953 403.074 -242.04 388.97C-271.992 367.952 -271.113 345.371 -256.463 322.846C-234.878 289.688 -193.043 261.963 -125.587 242.052C-78.7392 228.224 -26.6821 222.209 30.5514 222.817C85.1479 223.398 134.666 231.39 183.207 240.503C249.003 252.851 317.728 261.106 386.943 268.794C420.443 272.514 454.106 276.04 487.996 279.082C499.977 280.16 512.902 280.05 525.208 279.58C546.565 278.778 560.238 271.145 561.834 261.382C567.271 228.044 539.044 199.02 498.089 171.766C474.486 156.058 447.432 141.276 424.187 125.471C400.453 109.32 388.082 91.7179 395.602 72.221C402.407 54.6046 433.237 44.8699 474.779 48.0088C511.567 50.7882 548.095 54.2589 585.046 56.4713C664.776 61.2419 742.975 58.7252 817.594 44.9253C875.381 34.2365 915.392 15.431 942.544 -8.18657C961.296 -24.5031 978.746 -41.193 993.234 -58.2563C1015.73 -84.6946 1060.4 -98.1904 1123.36 -103.5C1158.36 -106.446 1193.1 -110.455 1226.89 -115.309C1261.95 -120.342 1294.87 -127.754 1319.9 -139.825C1357.28 -157.843 1381.4 -178.515 1388.89 -202.658C1391.65 -211.563 1391.36 -219.998 1384.17 -228.391C1373.33 -241.016 1351.32 -248.911 1322.47 -253.129C1255.73 -262.863 1187.56 -263.859 1119.16 -256.848C1064.43 -251.248 1033.31 -234.572 1014.49 -213.277C1000.59 -197.556 988.253 -181.585 975.881 -165.614C955.143 -138.844 903.9 -130.796 838.918 -133.022C779.471 -135.069 722.107 -140.461 667.283 -150.265C606.338 -161.161 554.736 -177.381 523.255 -202.658C489.038 -230.12 487.15 -250.017 540.086 -277.977C567.303 -292.371 600.054 -304.996 632.187 -317.565C688.9 -339.731 743.301 -362.685 789.303 -389.082C836.965 -416.446 896.021 -437.838 971.747 -450.158C1039.33 -461.165 1108.42 -463.336 1176.65 -452.882C1247.92 -441.972 1318.44 -429.956 1387.59 -416.82C1446.8 -405.578 1497.43 -388.418 1544.47 -369.419C1576.02 -356.684 1611.15 -346.548 1656.6 -345.359C1696.57 -344.308 1732.78 -349.493 1765.69 -358.55C1783.76 -363.528 1801.34 -369.184 1816.32 -375.71C1868.86 -398.65 1926.03 -419.143 1993.84 -433.164C2038.93 -442.484 2086.99 -449.19 2133.7 -457.058C2133.7 -447.379 2133.7 -437.699 2133.7 -428.02C2078.29 -419.737 2026.5 -408.357 1987.33 -389.579C1953.73 -373.47 1924.53 -355.688 1894.48 -338.293C1865.87 -321.727 1833.77 -307.029 1788.38 -298.704C1756.05 -292.772 1724.28 -286.121 1690.97 -281.42C1608.77 -269.819 1551.83 -247.404 1516.57 -213.831C1490.3 -188.816 1459.66 -164.632 1431.86 -139.908C1397.84 -109.667 1343.86 -90.5991 1266.02 -83.3949C1232.78 -80.3252 1200.03 -75.9003 1167.96 -71.033C1132.54 -65.6403 1098.16 -58.3946 1076.87 -44.6223C1049.62 -26.9921 1023.38 -8.93329 1000.62 9.78928C959.636 43.501 902.305 68.9853 816.78 81.9417C774.425 88.3577 732.004 94.7323 690.072 101.605C642.214 109.445 621.639 125.485 632.545 146.766C649.475 179.896 680.338 210.815 720.707 239.908C755.51 264.978 810.334 275.542 876.944 273.966C912.918 273.108 949.185 270.426 984.086 266.526C1044.31 259.779 1103.4 251.219 1163.24 243.849C1204.98 238.719 1247.4 235.179 1291.22 238.761C1353.95 243.891 1392.27 260.995 1413.43 285.346C1431.44 306.046 1445.57 327.354 1462.33 348.261C1481.87 372.639 1514.55 393.242 1564.76 408.066C1625.7 426.055 1687.56 443.492 1748.89 461.219C1799.13 475.738 1839.59 493.907 1865.21 517.608C1890.54 541.032 1914.28 564.801 1941.88 587.741C1966.53 608.234 2000.19 625.961 2056.55 631.533C2081.58 634.009 2107.95 634.009 2133.7 635.142C2133.74 651.68 2133.74 668.273 2133.74 684.867ZM633.424 537.934C634.271 519.848 622.16 503.365 607.184 487.256C577.298 455.149 543.895 423.594 516.874 391.072C482.918 350.183 421.485 321.657 326.291 306.129C250.923 293.836 175.882 281.128 100.189 269.209C59.2333 262.751 17.4314 259.06 -27.0076 264.411C-113.086 274.768 -168.073 317.675 -140.498 353.668C-126.89 371.436 -97.2961 384.033 -64.9028 395.165C-9.78546 414.108 48.0341 431.628 103.77 450.24C153.288 466.764 196.49 486.109 236.534 506.726C277.847 527.992 317.045 550.144 368.386 567.456C415.69 583.4 467.161 595.125 530.124 593.577C559.522 592.858 584.297 587.603 603.57 578.062C627.141 566.378 634.173 552.44 633.424 537.934ZM1227.05 -305.051C1255.28 -307.347 1291.97 -309.2 1327 -313.459C1368.12 -318.464 1384.95 -334.449 1371.83 -351.692C1363.82 -362.215 1347.31 -370.11 1327.29 -376.609C1279.92 -391.972 1224.48 -398.789 1166.86 -403.2C1120.46 -406.753 1074.59 -407.707 1028.92 -400.973C978.226 -393.506 946.906 -378.863 937.465 -356.628C930.368 -339.952 940.265 -322.045 993.038 -317.054C1011.5 -315.311 1030.12 -313.694 1048.87 -312.795C1105.29 -310.14 1161.81 -307.858 1227.05 -305.051ZM691.797 -226.829C691.374 -205.963 711.591 -194.126 745.287 -186.355C802.879 -173.094 868.414 -182.373 884.204 -208.147C889.087 -216.112 894.361 -224.27 894.947 -232.401C895.761 -243.339 893.905 -254.498 880.232 -264.412C866.656 -274.257 844.583 -278.295 818.473 -276.331C788.977 -274.119 762.802 -268.961 739.329 -261.232C709.931 -251.566 693.751 -238.859 691.797 -226.829Z" stroke="white" stroke-width="2.66327" stroke-miterlimit="10"/>
<path d="M-470.032 727.717C-470.032 612.049 -470.032 496.381 -470.032 380.699C-462.706 378.113 -452.907 376.122 -448.479 372.831C-431.746 360.289 -413.742 347.817 -401.794 334.418C-382.846 313.193 -366.341 291.414 -365.982 268.253C-365.852 260.427 -377.442 255.31 -395.869 254.992C-404.431 254.84 -413.124 255.324 -421.718 255.656C-437.834 256.278 -453.949 256.984 -470.032 257.661C-470.032 236.463 -470.032 215.266 -470.032 194.068C-464.074 192.685 -457.074 191.759 -452.321 189.851C-425.918 179.245 -406.189 166.523 -393.72 152.143C-380.665 137.071 -370.41 121.667 -374.74 105.087C-379.982 84.9267 -399.548 67.0753 -420.774 49.4174C-434.708 37.8161 -434.969 25.7584 -426.439 13.8667C-414.719 -2.4914 -390.009 -15.7382 -364.615 -28.7223C-328.152 -47.3619 -285.536 -62.8766 -234.391 -73.6206C-136.169 -94.2376 -31.5341 -96.7126 74.9893 -91.4582C117.377 -89.3702 159.212 -85.3187 201.535 -82.8436C240.276 -80.562 276.739 -86.0378 293.733 -104.788C313.202 -126.248 313.528 -148.857 317.564 -171.257C319.257 -180.646 319.909 -190.063 322.318 -199.41C326.843 -217.027 321.764 -234.131 293.733 -247.489C266.582 -260.431 236.305 -272.586 203.651 -282.971C112.331 -312.008 30.9735 -345.665 -50.8724 -379.169C-72.6524 -388.088 -94.5626 -397.131 -118.687 -404.833C-202.844 -431.7 -278.667 -462.494 -355.076 -493.081C-388.641 -506.508 -425.983 -518.012 -470.032 -524.857C-470.032 -529.005 -470.032 -533.153 -470.032 -537.302C-423.379 -537.302 -376.726 -537.302 -330.073 -537.302C-327.599 -535.559 -325.646 -533.651 -322.585 -532.116C-307.902 -524.76 -292.406 -517.68 -278.114 -510.186C-229.8 -484.854 -172.013 -463.753 -113.868 -442.735C-79.6845 -430.387 -46.0541 -417.596 -15.1909 -403.796C29.9969 -383.594 74.3382 -363.115 127.502 -346.591C175.913 -331.533 228.817 -320.582 289.762 -319.074C350.479 -317.567 404.977 -326.458 455.7 -339.636C549.722 -364.069 635.767 -393.163 718.655 -423.846C790.929 -450.603 867.925 -474.068 954.035 -492.058C985.647 -498.667 1016.84 -505.664 1048.68 -512.094C1074.04 -517.224 1099.92 -521.87 1125.77 -526.544C1146.15 -530.222 1165.52 -528.203 1182.61 -523.073C1199.38 -518.054 1215.85 -512.716 1230.6 -506.701C1271.55 -490.011 1316.58 -475.838 1367.37 -465.066C1435.05 -450.699 1506.12 -440.412 1579.7 -432.917C1637.71 -426.999 1695.99 -425.353 1752.9 -433.138C1846.72 -445.97 1939.6 -460.075 2032.81 -473.722C2066.57 -478.659 2100.11 -483.844 2133.74 -488.919C2133.74 -478.313 2133.74 -467.721 2133.74 -457.115C2087.02 -449.247 2038.93 -442.541 1993.88 -433.221C1926.06 -419.214 1868.89 -398.708 1816.35 -375.768C1801.4 -369.241 1783.79 -363.572 1765.72 -358.608C1732.81 -349.551 1696.61 -344.365 1656.63 -345.416C1611.18 -346.605 1576.05 -356.741 1544.5 -369.476C1497.46 -388.461 1446.87 -405.621 1387.62 -416.877C1318.47 -430.013 1247.95 -442.029 1176.69 -452.939C1108.45 -463.379 1039.36 -461.208 971.778 -450.215C896.053 -437.881 836.996 -416.49 789.334 -389.139C743.333 -362.742 688.931 -339.788 632.219 -317.623C600.086 -305.067 567.367 -292.429 540.118 -278.034C487.182 -250.061 489.102 -230.177 523.286 -202.715C554.768 -177.438 606.369 -161.232 667.314 -150.322C722.139 -140.518 779.47 -135.112 838.95 -133.079C903.932 -130.853 955.175 -138.887 975.913 -165.671C988.252 -181.628 1000.62 -197.599 1014.52 -213.335C1033.34 -234.629 1064.43 -251.305 1119.19 -256.906C1187.56 -263.902 1255.73 -262.92 1322.5 -253.186C1351.35 -248.982 1373.39 -241.073 1384.2 -228.448C1391.39 -220.055 1391.69 -211.62 1388.92 -202.715C1381.43 -178.586 1357.31 -157.914 1319.93 -139.882C1294.9 -127.811 1261.98 -120.399 1226.92 -115.366C1193.13 -110.513 1158.39 -106.503 1123.39 -103.557C1060.46 -98.2475 1015.76 -84.7518 993.265 -58.3134C978.745 -41.2502 961.328 -24.5464 942.576 -8.24366C915.424 15.36 875.412 34.1656 817.625 44.8681C743.007 58.6681 664.807 61.1847 585.078 56.4142C548.126 54.2018 511.566 50.7449 474.81 47.9517C433.269 44.8129 402.406 54.5474 395.634 72.1638C388.113 91.6607 400.485 109.263 424.218 125.414C447.463 141.219 474.485 156.001 498.12 171.709C539.076 198.949 567.302 227.987 561.865 261.325C560.27 271.102 546.596 278.721 525.24 279.523C512.933 279.993 500.009 280.103 488.028 279.025C454.137 275.983 420.474 272.457 386.974 268.737C317.76 261.049 249.034 252.794 183.238 240.446C134.697 231.347 85.1794 223.341 30.5829 222.76C-26.6507 222.152 -78.7078 228.167 -125.556 241.994C-193.012 261.906 -234.879 289.63 -256.431 322.789C-271.082 345.314 -271.961 367.895 -242.009 388.913C-221.922 403.017 -190.147 411.728 -158.047 419.79C-90.9163 436.646 -22.1579 452.326 44.6796 469.389C103.671 484.434 152.44 504.733 196.814 526.94C231.128 544.1 263.684 561.979 300.277 578.213C345.009 598.055 395.894 614.939 454.886 626.83C500.399 636.012 546.271 644.875 591.947 653.919C628.279 661.109 649.278 673.803 655.659 690.009C661.617 705.122 663.603 720.581 665.719 735.916C668.258 754.445 688.997 761.331 730.896 756.381C760.229 752.924 785.688 746.287 807.273 737.341C869.552 711.552 874.468 666.668 818.081 635.583C787.967 618.99 768.889 600.613 759.969 580.038C749.062 554.885 735.649 530.009 712.046 506.295C692.838 487.019 674.574 467.55 655.92 448.178C626.359 417.467 616.592 385.663 626.977 352.795C631.828 337.405 661.194 326.716 697.722 325.25C736.463 323.702 775.823 322.651 813.361 318.696C887.979 310.828 961.328 300.817 1035.59 292.258C1096.08 285.289 1156.53 277.531 1220.7 281.113C1250.49 282.772 1277.28 286.796 1298.93 296.212C1328.3 309.003 1343.93 324.808 1355.58 341.484C1367.17 358.036 1376.65 374.85 1388.98 391.291C1402.53 409.322 1430.69 422.818 1468.06 432.802C1517.58 446.035 1568.66 458.258 1616.84 472.279C1712.4 500.087 1779.56 537.753 1824.84 582.983C1848.12 606.227 1873.13 629.278 1901.58 651.443C1938.92 680.564 2003.28 692.885 2079.11 687.921C2097.27 686.732 2115.54 685.847 2133.77 684.809C2133.77 700.932 2133.77 717.069 2133.77 733.192C2126.28 733.538 2118.76 733.897 2111.24 734.243C2067.22 736.207 2023.24 739.581 1979.19 739.705C1935.6 739.83 1892.46 734.658 1865.18 718.839C1843.01 705.993 1824.16 691.751 1808.89 677.163C1771.97 641.847 1739.94 605.605 1702.21 570.455C1670.76 541.168 1621.3 517.399 1555.57 501.082C1484.8 483.507 1411.09 478.875 1341.03 501.677C1284.45 520.109 1225.59 536.619 1160.96 549.465C1149.44 551.76 1139.44 555.618 1129.51 559.13C1092.11 572.35 1076.09 590.478 1065.44 609.864C1053.43 631.794 1048.94 653.877 1056.49 676.25C1061.41 690.811 1076.67 702.149 1109.62 708.607C1145.76 715.687 1185.02 713.82 1222.62 716.599C1275.82 720.526 1329.83 723.292 1381.85 729.141C1470.44 739.11 1550.04 758.483 1631.3 775.892C1678.05 785.903 1718.22 799.44 1744.43 819.145C1761.72 832.17 1776.73 845.735 1793.62 858.857C1819.8 879.212 1852.65 897.284 1896.31 911.582C1966.37 934.522 2047.27 942.611 2133.74 943.303C2133.74 995.834 2133.74 1048.38 2133.74 1100.91C2085.94 1109.41 2036.36 1115.43 1984.83 1117.28C1904.22 1120.17 1826.99 1128.19 1752.02 1141.02C1694.39 1150.9 1634.75 1158.63 1571.72 1155.96C1522.89 1153.88 1473.92 1150.79 1426.1 1146.14C1341.94 1137.97 1258.69 1135.33 1173.63 1144.04C1146.96 1146.76 1117.53 1146.51 1089.96 1145.25C1043.17 1143.13 1002.48 1133.38 963.867 1122.51C921.284 1110.53 880.426 1097.55 854.056 1078.32C830.453 1061.07 823.811 1042.97 855.976 1026.84C873.231 1018.17 897.062 1011.24 920.665 1005.57C982.229 990.787 1029.21 971.055 1040.6 940.579C1046.62 924.469 1045.68 907.572 1042.56 891.228C1038.42 869.726 1022.08 849.358 995.674 830.718C966.179 809.894 932.744 806.008 879.352 813.558C843.312 818.647 808.738 826.459 783.702 838.932C751.504 854.986 721.194 871.842 692.708 889.126C664.319 906.355 631.307 921.303 589.538 932.462C539.564 945.819 488.744 958.624 438.152 971.552C356.664 992.363 285.92 1018 236.565 1053.05C209.055 1072.6 184.313 1092.88 155.566 1112.1C133.883 1126.6 110.996 1141.19 83.1609 1153.5C38.6893 1173.16 -19 1181.62 -83.2006 1180.97C-117.222 1180.63 -151.34 1179.89 -185.134 1178.29C-296.41 1173.02 -392.483 1155.67 -458.181 1114.82C-461.014 1113.06 -466.092 1111.97 -470.129 1110.56C-470.129 1081.99 -470.129 1053.41 -470.129 1024.84C-465.181 1026.82 -459.028 1028.48 -455.512 1030.83C-428.816 1048.7 -403.845 1067.06 -375.879 1084.57C-349.867 1100.87 -316.562 1114.23 -275.965 1124.29C-234 1134.7 -189.073 1140.36 -141.085 1142.83C-71.2199 1146.42 -10.1448 1139.03 40.9031 1118.12C81.5005 1101.49 110.345 1081.12 139.743 1060.99C176.629 1035.73 212.864 1010.16 266.875 990.635C298.519 979.185 332.898 969.077 366.301 958.527C404.945 946.317 445.868 935.241 482.331 921.967C557.405 894.657 596.635 859.051 606.89 817.458C610.504 802.759 588.756 791.973 555.061 793.149C502.288 795.015 449.709 797.753 396.936 799.689C340.972 801.736 284.911 803.575 228.817 804.888C198.54 805.594 168.067 804.57 137.757 805.11C81.2401 806.119 34.2943 797.283 -6.69382 781.409C-43.0589 767.346 -83.8842 756.755 -133.89 754.39C-165.014 752.91 -196.463 752.537 -227.554 751.002C-269.91 748.9 -312.721 747.352 -354.165 743.369C-393.525 739.719 -431.453 733.095 -470.032 727.717ZM-177.06 474.602C-233.772 473.054 -276.421 484.074 -307.121 502.824C-329.585 516.528 -348.402 531.489 -365.364 546.603C-397.887 575.571 -422.532 605.84 -436.076 637.491C-441.936 651.222 -438.485 665.202 -416.412 676.181C-370.41 699.066 -309.465 706.92 -240.935 703.145C-197.57 700.753 -154.759 696.3 -111.882 692.401C-56.9604 687.409 -7.24727 691.834 36.0848 707.03C59.8508 715.355 82.8679 724.149 104.518 733.441C184.866 767.913 293.506 772.795 392.899 755.164C417.251 750.85 438.25 744.088 453.649 734.907C495.711 709.81 469.634 685.916 423.534 667.58C383.686 651.734 339.344 637.837 301.124 621.355C258.703 603.061 219.994 583.135 181.448 563.293C134.99 539.412 87.1327 516.334 22.6066 500.889C-39.5103 486.024 -105.111 475.819 -177.06 474.602ZM1585.69 1128.62C1647.61 1130.18 1703.74 1119.83 1759.15 1108.45C1804.99 1099.03 1850.21 1089.06 1896.53 1080.1C1944.23 1070.88 1995.24 1064.5 2036.3 1049.79C2060.65 1041.06 2085.46 1022.74 2053.49 1007.34C2039.42 1000.55 2021.84 994.949 2004.78 989.432C1960.02 974.968 1912.29 961.984 1870.07 946.303C1810.32 924.124 1761.95 897.354 1717.51 869.505C1670.43 840.01 1615.18 814.167 1541.87 796.149C1504.36 786.94 1467.15 777.371 1428.02 769.559C1370.56 758.096 1310.46 751.528 1245.44 755.22C1178.31 759.022 1128.86 777.192 1116.13 804.626C1108.25 821.647 1115.55 838.448 1120.1 855.304C1126.13 877.649 1137 900.022 1136.51 922.34C1135.89 949.774 1125.64 977.166 1119.71 1004.59C1117.14 1016.45 1111.31 1028.45 1113.43 1040.16C1117.4 1061.93 1156.14 1072.87 1198.17 1079.95C1279.73 1093.68 1362.52 1106.14 1445.44 1118.35C1490.01 1124.93 1536.01 1129.49 1585.69 1128.62ZM273.842 106.885C271.27 86.7381 269.674 63.5354 264.954 40.4295C261.405 23.0067 247.374 6.71781 222.566 -7.45548C197.628 -21.6979 165.723 -32.6356 129.358 -41.264C41.8147 -62.033 -49.7981 -69.9424 -146.62 -54.9809C-213.327 -44.6794 -259.817 -25.5143 -267.989 5.68074C-271.375 18.6372 -268.607 32.3818 -262.291 45.2138C-246.665 77.0588 -238.786 108.669 -255.422 140.901C-264.115 157.729 -270.43 174.778 -277.17 191.786C-282.509 205.227 -264.505 213.122 -235.107 210.163C-215.639 208.214 -196.138 205.96 -177.45 202.959C-102.734 190.971 -25.5764 184.817 54.2511 184.375C100.253 184.112 146.254 183.67 192.224 182.951C237.477 182.232 265.605 170.589 268.796 151.313C271.042 137.541 271.953 123.755 273.842 106.885ZM1270.45 382.593C1267.39 373.536 1266.22 364.272 1260.88 355.464C1249.29 336.354 1220.86 322.416 1174.83 319.139C1142.01 316.802 1106.37 317.12 1073.68 319.885C978.062 327.961 893.904 347.513 814.598 370.978C786.404 379.33 763.908 390.005 754.532 404.303C746.425 416.678 748.639 429.303 756.29 441.776C771.298 466.25 800.859 487.31 842.987 504.76C897.811 527.465 992.744 529.083 1056.2 506.821C1107.83 488.706 1154.74 468.172 1203.84 448.745C1248.96 430.893 1270.38 408.921 1270.45 382.593ZM613.401 -111.467C609.071 -111.467 604.741 -111.467 600.379 -111.467C523.97 -111.411 471.62 -88.748 470.252 -56.2946C469.145 -29.8839 500.79 -11.424 546.987 3.53748C581.659 14.7655 621.931 20.8634 665.198 23.2556C746.1 27.7219 836.313 13.9634 874.175 -23.0531C888.891 -37.4614 892.993 -52.5058 882.64 -67.5087C873.003 -81.447 845.624 -88.7618 815.933 -93.9195C751.146 -105.189 682.974 -109.904 613.401 -111.467ZM1196.71 -209.546C1169.04 -211.067 1150.02 -204.374 1133.91 -195.857C1118.96 -187.961 1117.11 -174.147 1128.5 -166.528C1138.43 -159.877 1163.86 -155.895 1184.76 -157.582C1205.3 -159.241 1221.58 -163.735 1235.65 -170.22C1252.74 -178.102 1259.67 -188.528 1250.07 -196.755C1239.49 -205.785 1222.07 -210.569 1196.71 -209.546Z" stroke="white" stroke-width="2.66327" stroke-miterlimit="10"/>
<path d="M2133.73 635.101C2107.98 633.981 2081.58 633.967 2056.58 631.492C2000.19 625.919 1966.56 608.192 1941.91 587.7C1914.31 564.76 1890.57 540.99 1865.25 517.566C1839.62 493.866 1799.16 475.683 1748.92 461.177C1687.55 443.437 1625.73 426.014 1564.79 408.024C1514.58 393.201 1481.9 372.584 1462.36 348.22C1445.6 327.312 1431.47 306.004 1413.46 285.304C1392.3 260.954 1353.98 243.849 1291.25 238.719C1247.4 235.138 1205.01 238.677 1163.27 243.808C1103.4 251.178 1044.34 259.737 984.116 266.485C949.248 270.384 912.948 273.081 876.974 273.924C810.397 275.5 755.54 264.936 720.737 239.867C680.368 210.76 649.504 179.855 632.575 146.724C621.702 125.443 642.277 109.403 690.102 101.563C732.067 94.6907 774.455 88.3024 816.81 81.9002C902.335 68.9576 959.666 43.4595 1000.65 9.74782C1023.41 -8.97475 1049.65 -27.0336 1076.9 -44.6638C1098.19 -58.4361 1132.57 -65.6818 1167.99 -71.0745C1200.06 -75.9557 1232.81 -80.3667 1266.05 -83.4364C1343.89 -90.6406 1397.87 -109.709 1431.89 -139.95C1459.73 -164.674 1490.33 -188.858 1516.6 -213.872C1551.86 -247.446 1608.83 -269.846 1691.01 -281.461C1724.31 -286.163 1756.12 -292.814 1788.41 -298.746C1833.8 -307.07 1865.9 -321.755 1894.51 -338.334C1924.56 -355.729 1953.76 -373.512 1987.36 -389.621C2026.53 -408.399 2078.32 -419.779 2133.73 -428.062C2133.73 -416.543 2133.73 -405.025 2133.73 -393.493C2118.6 -389.137 2102.16 -385.417 2088.58 -380.301C2041.57 -362.616 2018 -339.607 2014.06 -313.472C2011.23 -294.75 2019.1 -276.4 2064.2 -267.011C2085.68 -262.531 2110.46 -260.914 2133.73 -258.01C2133.73 -184.737 2133.73 -111.465 2133.73 -38.1925C2073.47 -35.7036 2025.55 -23.4661 2012.3 3.40091C2005.14 17.9061 2002.7 32.2039 2005.95 47.0962C2010.28 66.7314 2017.9 85.8825 2036.65 103.9C2056.64 123.106 2085.62 139.064 2133.7 147.056C2133.7 161.796 2133.7 176.55 2133.7 191.29C2108.15 188.345 2081.84 186.229 2057.13 182.289C2009.37 174.67 1974.57 160.787 1961.58 139.368C1949.86 120.023 1941.88 100.277 1931.85 80.7525C1919.42 56.5127 1908.81 32.0656 1893.18 8.19913C1880.97 -10.4681 1853.92 -25.7891 1812.57 -35.0951C1730.5 -53.5411 1642.69 -56.1268 1553.46 -48.7429C1518.95 -45.8806 1491.34 -36.3949 1480.24 -21.1292C1468.39 -4.8265 1466.11 12.1123 1475.52 28.5672C1487.11 48.8522 1500.58 69.0544 1517.48 88.6343C1538.25 112.75 1567.62 135.192 1610.85 153.555C1645.75 168.378 1689.64 177.656 1733 187.211C1755.01 192.065 1777.12 197.305 1796.39 203.86C1839.23 218.448 1841.38 239.258 1836.37 260.055C1830.87 282.884 1821.26 305.52 1814.52 328.308C1805.67 358.231 1812.57 387.532 1837.6 415.878C1855.02 435.61 1882.53 452.66 1925.44 463.252C1989.32 479.015 2060.74 484.754 2133.77 487.146C2133.77 502.356 2133.77 517.566 2133.77 532.763C2125.82 534.09 2117.23 534.989 2110 536.842C2085.78 543.051 2081.19 551.638 2099.36 560.833C2108.21 565.313 2122.14 567.982 2133.77 571.48C2133.73 592.706 2133.73 613.903 2133.73 635.101ZM1450.71 150.319C1452.47 146.005 1452.47 141.594 1450.71 137.266C1445.56 124.71 1441.17 112.058 1433.68 99.7655C1412.06 64.1041 1390.09 28.4565 1365.09 -6.79002C1351.9 -25.3881 1322.28 -38.2478 1273.02 -39.6997C1259.18 -40.1145 1244.99 -40.2114 1231.31 -39.3955C1190.75 -36.948 1156.5 -29.1216 1129.09 -16.0821C1093.34 0.911991 1071.53 21.28 1053.82 42.3395C1022.79 79.19 975.293 109.846 889.638 127.642C876.16 130.435 863.593 134.417 852.394 138.69C831.005 146.821 817.787 156.956 818.926 169.595C822.052 203.694 893.512 227.284 972.688 221.047C1021.75 217.189 1064.72 207.828 1106.53 196.973C1152.3 185.082 1201.23 178.071 1255.83 178.776C1295.94 179.302 1336.11 179.011 1376.22 178.832C1417.83 178.652 1443.51 169.761 1449.37 153.596L1450.71 150.319ZM1885.46 -179.22C1889.66 -213.333 1847.83 -223.994 1799.84 -221.616C1761.46 -219.707 1724.67 -214.688 1691.82 -205.576C1633.12 -189.287 1586.17 -168.974 1568.14 -139.051C1559.19 -124.2 1571.62 -111.755 1605.15 -105.74C1653.92 -97.0013 1704.87 -94.1804 1757.65 -98.4255C1787.6 -100.832 1815.86 -104.468 1835.42 -115.088C1874.1 -136.064 1879.41 -161.466 1885.46 -179.22ZM1548.7 273.44C1551.11 297.417 1565.96 319.223 1600.5 336.342C1634.65 353.267 1679.58 353.543 1701.16 331.364C1710.96 321.297 1716.76 310.304 1720.7 299.491C1732.38 267.439 1697.48 243.462 1625.76 236.838C1595.26 234.018 1568.43 239.383 1558.73 252.007C1553.42 258.88 1551.93 266.277 1548.7 273.44Z" stroke="white" stroke-width="2.66327" stroke-miterlimit="10"/>
<path d="M2133.73 943.4C2047.27 942.709 1966.36 934.619 1896.3 911.679C1852.65 897.382 1819.8 879.323 1793.62 858.955C1776.72 845.832 1761.75 832.254 1744.43 819.242C1718.25 799.524 1678.08 786 1631.3 775.989C1550.04 758.594 1470.44 739.208 1381.85 729.238C1329.83 723.389 1275.82 720.623 1222.62 716.696C1185.02 713.917 1145.76 715.784 1109.62 708.704C1076.64 702.233 1061.4 690.894 1056.49 676.347C1048.9 653.961 1053.43 631.892 1065.44 609.961C1076.05 590.561 1092.1 572.447 1129.51 559.228C1139.47 555.715 1149.43 551.844 1160.96 549.562C1225.58 536.716 1284.44 520.206 1341.03 501.774C1411.09 478.972 1484.79 483.605 1555.57 501.179C1621.3 517.496 1670.75 541.266 1702.2 570.552C1739.94 605.702 1771.94 641.944 1808.89 677.26C1824.16 691.848 1843.01 706.077 1865.18 718.936C1892.46 734.755 1935.6 739.927 1979.19 739.802C2023.24 739.678 2067.22 736.304 2111.24 734.34C2118.76 734.009 2126.25 733.649 2133.77 733.29C2133.77 750.795 2133.77 768.315 2133.77 785.821C2118.82 786.747 2103.78 787.508 2088.94 788.641C2040.56 792.333 1991.69 795.113 1947.42 805.29C1908.93 814.14 1891.42 834.687 1910.24 851.516C1937.68 876.046 1984.89 888.408 2048.01 889.362C2076.53 889.79 2105.18 888.587 2133.77 888.131C2133.73 906.522 2133.73 924.968 2133.73 943.4ZM1592.85 713.074C1593.21 712.424 1593.56 711.774 1593.95 711.138C1646.5 713.903 1667.86 697.67 1660.99 679.334C1656.76 668.065 1651.29 656.532 1640.93 646.079C1617.26 622.157 1593.21 598.277 1548.77 579.209C1510.9 562.947 1467.54 560.61 1420.66 568.285C1379.8 574.977 1340.21 583.219 1301.08 591.612C1267.19 598.871 1238.41 608.938 1222.26 624.217C1208.2 637.533 1212.79 652.191 1238.44 661.58C1256.12 668.051 1276.44 674.329 1298.18 677.481C1362.74 686.829 1428.41 694.849 1493.98 702.869C1526.56 706.837 1559.87 709.7 1592.85 713.074Z" stroke="white" stroke-width="2.66327" stroke-miterlimit="10"/>
<path d="M2133.74 487.172C2060.74 484.766 1989.32 479.041 1925.41 463.278C1882.5 452.686 1854.99 435.636 1837.57 415.904C1812.57 387.558 1805.64 358.257 1814.49 328.334C1821.23 305.546 1830.83 282.911 1836.34 260.081C1841.35 239.285 1839.2 218.474 1796.36 203.886C1777.12 197.332 1755.01 192.091 1732.97 187.237C1689.61 177.683 1645.69 168.404 1610.82 153.581C1567.59 135.218 1538.22 112.762 1517.45 88.6605C1500.59 69.0807 1487.07 48.8647 1475.48 28.5934C1466.11 12.1386 1468.35 -4.80022 1480.21 -21.103C1491.31 -36.3686 1518.88 -45.8682 1553.42 -48.7167C1642.66 -56.1007 1730.46 -53.5287 1812.54 -35.0689C1853.92 -25.7629 1880.94 -10.4558 1893.15 8.22533C1908.77 32.0918 1919.39 56.5528 1931.82 80.7788C1941.85 100.303 1949.83 120.063 1961.55 139.394C1974.54 160.813 2009.34 174.71 2057.1 182.315C2081.81 186.256 2108.08 188.371 2133.67 191.317C2133.67 203.305 2133.67 215.28 2133.67 227.268C2106.65 227.739 2079.53 227.725 2052.67 228.817C2016.24 230.283 1981.57 234.694 1958.06 247.526C1940.94 256.873 1924.2 266.76 1912.61 277.449C1882.44 305.215 1870.94 334.653 1884.78 364.922C1897.96 393.725 1932.15 417.647 1988.14 435.291C2031.48 448.939 2080.25 457.429 2133.67 460.927C2133.74 469.652 2133.74 478.405 2133.74 487.172ZM1839.36 83.5166C1837.31 74.2383 1836.24 67.6011 1834.28 61.0053C1824.55 28.3031 1772.72 -8.82408 1672.68 -10.9397C1610.43 -12.2533 1566.51 1.02119 1564.26 28.2339C1562.64 48.0627 1579.79 65.7758 1602.42 82.4657C1629.38 102.308 1666.49 117.629 1718.29 125.801C1767.64 133.6 1813.77 126.119 1828.88 106.692C1835.26 98.5334 1836.69 89.6837 1839.36 83.5166Z" stroke="white" stroke-width="2.66327" stroke-miterlimit="10"/>
<path d="M-470.029 -524.843C-425.981 -517.998 -388.639 -506.507 -355.074 -493.067C-278.632 -462.494 -202.809 -431.7 -118.684 -404.819C-94.5602 -397.117 -72.65 -388.074 -50.87 -379.155C30.9759 -345.651 112.301 -312.008 203.653 -282.956C236.307 -272.572 266.584 -260.417 293.736 -247.475C321.767 -234.103 326.878 -217.012 322.32 -199.396C319.911 -190.049 319.26 -180.618 317.567 -171.243C313.53 -148.842 313.204 -126.234 293.736 -104.774C276.709 -86.0236 240.279 -80.5617 201.537 -82.8294C159.214 -85.3184 117.38 -89.356 74.9917 -91.444C-31.5317 -96.6984 -136.167 -94.2234 -234.388 -73.6064C-285.567 -62.8624 -328.15 -47.3477 -364.613 -28.7081C-390.006 -15.724 -414.716 -2.4772 -426.437 13.8809C-434.934 25.7726 -434.706 37.8303 -420.772 49.4316C-399.578 67.0895 -379.979 84.9409 -374.738 105.101C-370.44 121.681 -380.663 137.085 -393.718 152.157C-406.154 166.524 -425.916 179.259 -452.319 189.865C-457.104 191.787 -464.071 192.699 -470.029 194.082C-470.029 109.748 -470.029 25.413 -470.029 -58.9215C-465.341 -59.4469 -460.262 -59.6267 -456.063 -60.5531C-425.33 -67.3148 -394.532 -74.0489 -364.157 -81.1148C-295.431 -97.1133 -224.198 -110.125 -147.106 -117.288C-87.4304 -122.833 -27.7878 -128.848 30.6503 -136.384C72.8104 -141.818 106.441 -153.419 124.086 -171.368C161.265 -209.214 152.443 -245.124 91.1395 -277.052C56.7603 -294.959 18.6697 -311.801 -21.2114 -327.536C-64.7063 -344.696 -110.35 -361.124 -158.435 -375.892C-229.245 -397.615 -298.003 -420.112 -359.566 -446.564C-381.151 -455.829 -405.698 -463.946 -430.181 -471.869C-441.901 -475.658 -456.649 -477.746 -469.997 -480.608C-470.029 -495.348 -470.029 -510.088 -470.029 -524.843Z" stroke="white" stroke-width="2.66327" stroke-miterlimit="10"/>
<path d="M-177.062 474.604C-105.113 475.82 -39.513 486.025 22.5714 500.89C87.0975 516.349 134.955 539.414 181.412 563.294C219.991 583.123 258.668 603.048 301.088 621.356C339.309 637.838 383.65 651.735 423.499 667.582C469.598 685.917 495.643 709.811 453.613 734.908C438.214 744.09 417.216 750.838 392.864 755.166C293.503 772.796 184.863 767.915 104.482 733.442C82.8326 724.15 59.7829 715.356 36.0496 707.032C-7.28253 691.835 -56.9956 687.41 -111.918 692.402C-154.794 696.301 -197.573 700.754 -240.97 703.146C-309.5 706.921 -370.445 699.067 -416.447 676.182C-438.52 665.203 -441.971 651.224 -436.111 637.493C-422.568 605.841 -397.923 575.573 -365.399 546.604C-348.437 531.49 -329.587 516.543 -307.156 502.826C-276.391 484.075 -233.742 473.069 -177.062 474.604ZM-206.167 632.017C-187.317 630.136 -168.337 628.436 -149.65 626.334C-112.536 622.158 -75.813 617.332 -38.4387 613.612C-14.3146 611.22 10.8837 610.833 35.138 608.607C59.2946 606.394 71.4054 597.586 64.0152 587.7C42.691 559.173 -26.4255 539.248 -98.6348 540.05C-183.443 540.99 -248.588 571.037 -263.954 602.246C-272.289 619.116 -247.514 630.938 -206.167 632.017Z" stroke="white" stroke-width="2.66327" stroke-miterlimit="10"/>
<path d="M273.844 106.886C271.956 123.756 271.044 137.542 268.765 151.286C265.575 170.562 237.447 182.219 192.194 182.924C146.225 183.657 100.223 184.085 54.2211 184.348C-25.6064 184.804 -102.764 190.944 -177.48 202.932C-196.168 205.933 -215.669 208.187 -235.137 210.137C-264.535 213.082 -282.506 205.2 -277.2 191.76C-270.46 174.766 -264.145 157.702 -255.452 140.874C-238.816 108.642 -246.695 77.0322 -262.321 45.1872C-268.605 32.3552 -271.405 18.6105 -268.019 5.65403C-259.847 -25.541 -213.357 -44.7061 -146.65 -55.0076C-49.8281 -69.9553 41.8172 -62.0459 129.328 -41.2907C165.693 -32.6623 197.598 -21.7108 222.536 -7.48219C247.344 6.6911 261.375 22.98 264.924 40.4028C269.677 63.5226 271.272 86.7391 273.844 106.886ZM-164.1 25.4413C-164.1 44.1915 -144.208 89.4217 -131.055 105.766C-114.647 126.134 -84.2398 139.339 -32.1827 141.165C3.46621 142.409 39.2127 142.063 74.0152 137.542C113.831 132.384 144.239 122.857 161.103 106.015C179.204 87.9145 182.427 69.3025 176.762 50.0406C162.698 2.21093 46.5379 -33.1462 -60.2786 -27.062C-85.4118 -25.624 -108.201 -21.849 -127.474 -14.4374C-156.84 -3.16794 -167.193 10.9362 -164.1 25.4413Z" stroke="white" stroke-width="2.66327" stroke-miterlimit="10"/>
<path d="M613.399 -111.467C682.972 -109.904 751.144 -105.203 815.931 -93.9194C845.589 -88.7617 872.969 -81.4469 882.638 -67.5087C893.023 -52.5057 888.921 -37.4613 874.173 -23.053C836.343 13.9497 746.131 27.7081 665.196 23.2556C621.929 20.8634 581.657 14.7655 546.985 3.53754C500.821 -11.4239 469.176 -29.8976 470.25 -56.2945C471.585 -88.7479 523.935 -111.411 600.377 -111.467C604.74 -111.467 609.069 -111.467 613.399 -111.467ZM697.361 -53.3907C673.14 -53.3354 654.42 -44.6794 662.006 -37.5028C673.726 -26.4131 711.426 -23.6614 729.234 -33.078C733.889 -35.5393 736.429 -40.7661 733.434 -43.3933C726.499 -49.4498 714.681 -54.0683 697.361 -53.3907Z" stroke="white" stroke-width="2.66327" stroke-miterlimit="10"/>
<path d="M633.422 537.934C634.171 552.439 627.139 566.377 603.568 578.048C584.327 587.589 559.552 592.843 530.122 593.562C467.191 595.097 415.687 583.385 368.383 567.442C317.042 550.13 277.845 527.992 236.531 506.711C196.487 486.094 153.285 466.749 103.767 450.225C47.999 431.613 -9.82059 414.094 -64.9054 395.15C-97.2662 384.019 -126.892 371.422 -140.501 353.653C-168.076 317.646 -113.088 274.753 -27.0102 264.396C17.4288 259.045 59.2308 262.751 100.186 269.194C175.879 281.114 250.888 293.821 326.288 306.114C421.482 321.642 482.915 350.169 516.871 391.057C543.893 423.579 577.295 455.148 607.182 487.242C622.19 503.351 634.268 519.833 633.422 537.934ZM78.4389 322.679C73.002 322.679 67.5977 322.583 62.1608 322.693C28.9537 323.385 8.41077 334.419 18.8938 347.707C25.6329 356.267 35.1393 365.158 48.9756 371.837C88.2382 390.822 130.594 408.659 171.224 427.133C205.538 442.744 239.624 458.48 272.994 474.465C307.731 491.113 340.58 508.481 376.034 524.825C395.307 533.702 420.212 539.538 448.927 541.93C483.013 544.764 507.528 538.791 518.564 524.977C527.908 513.265 522.243 501.747 511.662 491.279C480.539 460.43 448.145 429.788 413.734 399.575C394.07 382.29 367.211 366.402 328.209 356.115C298.615 348.302 266.287 341.9 233.438 336.894C183.562 329.261 131.635 324.408 78.4389 322.679Z" stroke="white" stroke-width="2.66327" stroke-miterlimit="10"/>
<path d="M1548.71 273.439C1551.93 266.277 1553.43 258.879 1558.7 252.007C1568.43 239.382 1595.23 234.017 1625.73 236.838C1697.42 243.461 1732.32 267.438 1720.67 299.49C1716.73 310.304 1710.93 321.297 1701.13 331.363C1679.55 353.542 1634.62 353.266 1600.47 336.341C1565.96 319.222 1551.15 297.416 1548.71 273.439Z" stroke="white" stroke-width="2.66327" stroke-miterlimit="10"/>
<path d="M1592.85 713.074C1559.87 709.7 1526.57 706.838 1494.01 702.856C1428.44 694.836 1362.78 686.816 1298.22 677.468C1276.51 674.315 1256.16 668.038 1238.48 661.566C1212.83 652.177 1208.2 637.52 1222.3 624.204C1238.45 608.925 1267.23 598.872 1301.12 591.599C1340.28 583.205 1379.84 574.964 1420.7 568.272C1467.54 560.583 1510.94 562.934 1548.8 579.195C1593.21 598.277 1617.3 622.144 1640.97 646.066C1651.32 656.519 1656.79 668.038 1661.02 679.321C1667.89 697.656 1646.57 713.904 1593.99 711.125C1593.57 711.774 1593.21 712.424 1592.85 713.074Z" stroke="white" stroke-width="2.66327" stroke-miterlimit="10"/>
<path d="M1839.36 83.5179C1836.69 89.685 1835.26 98.5347 1828.91 106.693C1813.77 126.121 1767.68 133.601 1718.32 125.803C1666.52 117.617 1629.41 102.31 1602.45 82.467C1579.79 65.7909 1562.67 48.0778 1564.3 28.2352C1566.54 1.02243 1610.46 -12.2521 1672.71 -10.9385C1772.75 -8.82284 1824.58 28.3043 1834.32 61.0066C1836.24 67.6023 1837.28 74.2396 1839.36 83.5179Z" stroke="white" stroke-width="2.66327" stroke-miterlimit="10"/>
<path d="M-206.166 632.016C-247.512 630.938 -272.287 619.115 -263.953 602.246C-248.554 571.037 -183.442 541.003 -98.6332 540.049C-26.4564 539.247 42.66 559.186 64.0168 587.699C71.407 597.586 59.2962 606.38 35.1396 608.606C10.8853 610.832 -14.313 611.22 -38.437 613.612C-75.7788 617.331 -112.535 622.157 -149.649 626.333C-168.336 628.435 -187.316 630.136 -206.166 632.016Z" stroke="white" stroke-width="2.66327" stroke-miterlimit="10"/>
<path d="M-164.101 25.442C-167.226 10.9369 -156.841 -3.16729 -127.475 -14.423C-108.169 -21.8207 -85.4128 -25.6095 -60.2795 -27.0476C46.5369 -33.1317 162.664 2.22548 176.761 50.0552C182.426 69.317 179.203 87.9152 161.102 106.029C144.238 122.871 113.83 132.385 74.0142 137.556C39.2118 142.064 3.46527 142.424 -32.1836 141.179C-84.2407 139.354 -114.648 126.148 -131.056 105.78C-144.209 89.4224 -164.101 44.1923 -164.101 25.442ZM-17.5985 50.5668C-16.9799 55.4341 -11.6082 61.4077 3.04202 63.9381C10.7578 65.2656 25.1802 65.3347 29.4124 63.2882C36.2167 59.9834 39.9606 54.4662 39.8304 49.9031C39.635 43.1829 18.3434 36.0202 4.40937 36.5318C-8.84095 37.0019 -17.5334 41.8554 -17.5985 50.5668Z" stroke="white" stroke-width="2.66327" stroke-miterlimit="10"/>
<path d="M1014.33 417.979C982 418.186 968.555 409.102 979.786 398.786C995.869 383.977 1025.1 376.51 1060.69 372.763C1075.6 371.186 1086.99 374.104 1095.85 379.04C1104.09 383.631 1103.34 388.415 1096.96 393.227C1077.45 407.912 1046.69 415.338 1014.33 417.979Z" stroke="white" stroke-width="2.66327" stroke-miterlimit="10"/>
<path d="M78.4412 322.68C131.638 324.408 183.565 329.275 233.473 336.88C266.29 341.886 298.65 348.288 328.244 356.101C367.246 366.389 394.105 382.277 413.768 399.561C448.18 429.774 480.573 460.416 511.697 491.266C522.245 501.733 527.943 513.252 518.599 524.964C507.562 538.777 483.048 544.751 448.962 541.916C420.247 539.524 395.309 533.689 376.069 524.811C340.583 508.467 307.766 491.1 273.029 474.451C239.659 458.467 205.605 442.731 171.258 427.119C130.628 408.632 88.2731 390.808 49.0105 371.823C35.2067 365.144 25.6678 356.253 18.9287 347.694C8.44566 334.405 28.9885 323.371 62.1957 322.68C67.6 322.569 73.0369 322.68 78.4412 322.68Z" stroke="white" stroke-width="2.66327" stroke-miterlimit="10"/>
<path d="M-17.6001 50.5666C-17.535 41.8553 -8.84254 37.0018 4.40777 36.5317C18.3418 36.0339 39.6334 43.1827 39.8288 49.9029C39.959 54.4522 36.2151 59.9833 29.4108 63.2881C25.2111 65.3345 10.7888 65.2654 3.04043 63.938C-11.6098 61.4075 -16.9815 55.434 -17.6001 50.5666Z" stroke="white" stroke-width="2.66327" stroke-miterlimit="10"/>
</g>
</svg>
